<svg width="24" height="24" viewBox="0 0 24 24" fill="none" xmlns="http://www.w3.org/2000/svg">
<path fill-rule="evenodd" clip-rule="evenodd" d="M12 0C5.37258 0 0 5.37258 0 12C0 18.6274 5.37258 24 12 24C18.6274 24 24 18.6274 24 12C24 5.37258 18.6274 0 12 0ZM7.45257 5.19997H16.9474C17.7481 5.19997 18.4 5.84397 18.4 6.64197V19.2L16.8766 17.87L16.0192 17.086L15.1122 16.253L15.4878 17.548H7.45257C6.65189 17.548 6 16.904 6 16.106V6.64197C6 5.84397 6.65189 5.19997 7.45257 5.19997Z" fill="#4A59DE"/>
<path fill-rule="evenodd" clip-rule="evenodd" d="M14.2124 14.342C14.2124 14.342 13.9573 14.041 13.7447 13.775C14.6729 13.516 15.0272 12.942 15.0272 12.942C14.7367 13.131 14.4604 13.264 14.2124 13.355C13.8581 13.502 13.518 13.6 13.1849 13.656C12.5047 13.782 11.8812 13.747 11.3497 13.649C10.9459 13.572 10.5987 13.46 10.3081 13.348C10.1452 13.285 9.96803 13.208 9.79089 13.11C9.78026 13.103 9.76963 13.0977 9.75901 13.0925C9.74838 13.0872 9.73775 13.082 9.72712 13.075C9.71295 13.068 9.70586 13.061 9.69878 13.054C9.57123 12.984 9.50038 12.935 9.50038 12.935C9.50038 12.935 9.84049 13.495 10.7404 13.761C10.5278 14.027 10.2656 14.342 10.2656 14.342C8.69969 14.293 8.10449 13.278 8.10449 13.278C8.10449 11.024 9.12483 9.19697 9.12483 9.19697C10.1452 8.44097 11.1159 8.46197 11.1159 8.46197L11.1868 8.54597C9.91135 8.90997 9.32323 9.46297 9.32323 9.46297C9.32323 9.46297 9.47912 9.37897 9.74129 9.25997C10.4995 8.93097 11.1017 8.83997 11.3497 8.81897L11.3656 8.81632C11.4014 8.81031 11.4331 8.80497 11.4702 8.80497C11.9024 8.74897 12.3913 8.73497 12.9015 8.79097C13.5747 8.86797 14.2974 9.06397 15.0343 9.46297C15.0343 9.46297 14.4745 8.93797 13.27 8.57397L13.3692 8.46197C13.3692 8.46197 14.3399 8.44097 15.3603 9.19697C15.3603 9.19697 16.3806 11.024 16.3806 13.278C16.3806 13.278 15.7783 14.293 14.2124 14.342ZM11.1171 11.2C10.7164 11.2 10.4001 11.5604 10.4001 12C10.4001 12.4396 10.7234 12.8 11.1171 12.8C11.5178 12.8 11.8342 12.4396 11.8342 12C11.8412 11.5604 11.5178 11.2 11.1171 11.2ZM12.966 12C12.966 11.5604 13.2823 11.2 13.683 11.2C14.0837 11.2 14.4001 11.5604 14.4001 12C14.4001 12.4396 14.0837 12.8 13.683 12.8C13.2894 12.8 12.966 12.4396 12.966 12Z" fill="#4A59DE"/>
</svg>
