<svg width="24" height="24" viewBox="0 0 24 24" fill="none" xmlns="http://www.w3.org/2000/svg">
<path fill-rule="evenodd" clip-rule="evenodd" d="M12 0C5.37258 0 0 5.37258 0 12C0 18.6274 5.37258 24 12 24C18.6274 24 24 18.6274 24 12C24 5.37258 18.6274 0 12 0ZM9.3617 5.63869C10.0444 5.60762 10.2625 5.60002 12.0007 5.60002H11.9987C13.7374 5.60002 13.9547 5.60762 14.6374 5.63869C15.3187 5.66989 15.784 5.77776 16.192 5.93603C16.6134 6.09936 16.9694 6.31803 17.3254 6.67404C17.6814 7.02977 17.9001 7.38684 18.0641 7.80778C18.2214 8.21472 18.3294 8.67979 18.3614 9.36113C18.3921 10.0438 18.4001 10.2619 18.4001 12.0001C18.4001 13.7382 18.3921 13.9558 18.3614 14.6385C18.3294 15.3196 18.2214 15.7848 18.0641 16.1919C17.9001 16.6127 17.6814 16.9697 17.3254 17.3255C16.9698 17.6815 16.6132 17.9007 16.1924 18.0642C15.7852 18.2224 15.3196 18.3303 14.6383 18.3615C13.9556 18.3926 13.7382 18.4002 11.9999 18.4002C10.2618 18.4002 10.0438 18.3926 9.36117 18.3615C8.67996 18.3303 8.21476 18.2224 7.80755 18.0642C7.38688 17.9007 7.02981 17.6815 6.67421 17.3255C6.31834 16.9697 6.09967 16.6127 5.93607 16.1917C5.77793 15.7848 5.67007 15.3197 5.63873 14.6384C5.6078 13.9557 5.60006 13.7382 5.60006 12.0001C5.60006 10.2619 5.60806 10.0437 5.6386 9.361C5.66927 8.67992 5.77727 8.21472 5.93594 7.80765C6.09994 7.38684 6.31861 7.02977 6.67461 6.67404C7.03035 6.31816 7.38742 6.0995 7.80835 5.93603C8.21529 5.77776 8.68036 5.66989 9.3617 5.63869Z" fill="#DC6ACF"/>
<path fill-rule="evenodd" clip-rule="evenodd" d="M11.4265 6.75355C11.538 6.75338 11.6579 6.75343 11.7873 6.75349L12.0006 6.75355C13.7094 6.75355 13.912 6.75969 14.5868 6.79035C15.2108 6.81889 15.5495 6.92315 15.7751 7.01076C16.0737 7.12676 16.2867 7.26543 16.5105 7.48943C16.7345 7.71343 16.8732 7.92677 16.9895 8.22544C17.0771 8.45077 17.1815 8.78944 17.2099 9.41345C17.2405 10.0881 17.2472 10.2908 17.2472 11.9988C17.2472 13.7068 17.2405 13.9095 17.2099 14.5842C17.1813 15.2082 17.0771 15.5468 16.9895 15.7722C16.8735 16.0708 16.7345 16.2835 16.5105 16.5074C16.2865 16.7314 16.0739 16.8701 15.7751 16.9861C15.5497 17.0741 15.2108 17.1781 14.5868 17.2066C13.9121 17.2373 13.7094 17.2439 12.0006 17.2439C10.2917 17.2439 10.0891 17.2373 9.41447 17.2066C8.79046 17.1778 8.45179 17.0735 8.22605 16.9859C7.92739 16.8699 7.71405 16.7313 7.49005 16.5073C7.26604 16.2833 7.12738 16.0704 7.01111 15.7716C6.92351 15.5463 6.81911 15.2076 6.79071 14.5836C6.76004 13.909 6.75391 13.7063 6.75391 11.9972C6.75391 10.2881 6.76004 10.0865 6.79071 9.41185C6.81924 8.78784 6.92351 8.44917 7.01111 8.22357C7.12711 7.9249 7.26604 7.71156 7.49005 7.48756C7.71405 7.26356 7.92739 7.12489 8.22605 7.00862C8.45166 6.92062 8.79046 6.81662 9.41447 6.78795C10.0049 6.76129 10.2337 6.75329 11.4265 6.75195V6.75355ZM15.4169 7.81619C14.9929 7.81619 14.6489 8.15979 14.6489 8.58393C14.6489 9.00793 14.9929 9.35193 15.4169 9.35193C15.8409 9.35193 16.1849 9.00793 16.1849 8.58393C16.1849 8.15992 15.8409 7.81592 15.4169 7.81592V7.81619ZM8.71399 12.0003C8.71399 10.1852 10.1855 8.71365 12.0006 8.71358C13.8156 8.71358 15.2869 10.1852 15.2869 12.0003C15.2869 13.8154 13.8158 15.2863 12.0007 15.2863C10.1856 15.2863 8.71399 13.8154 8.71399 12.0003Z" fill="#DC6ACF"/>
<path d="M12.0005 9.86719C13.1787 9.86719 14.1339 10.8223 14.1339 12.0005C14.1339 13.1787 13.1787 14.1339 12.0005 14.1339C10.8223 14.1339 9.86719 13.1787 9.86719 12.0005C9.86719 10.8223 10.8223 9.86719 12.0005 9.86719Z" fill="#DC6ACF"/>
</svg>
