<svg width="24" height="24" viewBox="0 0 24 24" fill="none" xmlns="http://www.w3.org/2000/svg">
<path fill-rule="evenodd" clip-rule="evenodd" d="M12 0C5.37258 0 0 5.37258 0 12C0 18.6274 5.37258 24 12 24C18.6274 24 24 18.6274 24 12C24 5.37258 18.6274 0 12 0ZM5.00003 11.9802C5.00003 8.13131 8.14015 5.00003 11.9999 5.00003C15.8597 5.00003 18.9999 8.13131 18.9999 11.9802C18.9999 12.5254 18.9544 12.9668 18.8524 13.4099L18.8509 13.4172C18.8507 13.4185 18.8001 13.6228 18.7721 13.7119C18.5991 14.2636 18.2859 14.7232 17.8663 15.0408C17.4593 15.3489 16.9548 15.5186 16.4456 15.5186C16.3826 15.5186 16.3193 15.516 16.2572 15.5111C15.5341 15.4532 14.8983 15.0737 14.5084 14.4687C13.8379 15.141 12.9482 15.5109 11.9999 15.5109C10.0476 15.5109 8.45925 13.927 8.45925 11.9802C8.45925 10.0333 10.0476 8.4495 11.9999 8.4495C13.9523 8.4495 15.5406 10.0333 15.5406 11.9802V13.1183C15.5436 13.7824 15.9905 14.0539 16.3722 14.0846C16.7521 14.1138 17.2576 13.8932 17.4337 13.1731C17.5206 12.7781 17.5647 12.3767 17.5647 11.9802C17.5647 8.92038 15.0684 6.4311 11.9999 6.4311C8.9315 6.4311 6.43518 8.92038 6.43518 11.9802C6.43518 15.04 8.9315 17.5293 11.9999 17.5293C13.068 17.5293 14.1068 17.2251 15.004 16.6496L15.0201 16.6392L15.9631 17.7325L15.9429 17.7463C14.7775 18.5406 13.414 18.9604 11.9999 18.9604C8.14015 18.9604 5.00003 15.8291 5.00003 11.9802Z" fill="#B8C7D0"/>
<path fill-rule="evenodd" clip-rule="evenodd" d="M14.1055 11.9804C14.1055 13.1382 13.1609 14.0801 11.9999 14.0801C10.8389 14.0801 9.89438 13.1382 9.89438 11.9804C9.89438 10.8227 10.8389 9.88086 11.9999 9.88086C13.1609 9.88086 14.1055 10.8227 14.1055 11.9804Z" fill="#B8C7D0"/>
</svg>
