<svg width="24" height="24" viewBox="0 0 24 24" fill="none" xmlns="http://www.w3.org/2000/svg">
<path fill-rule="evenodd" clip-rule="evenodd" d="M24 12C24 18.6274 18.6274 24 12 24C5.37258 24 0 18.6274 0 12C0 5.37258 5.37258 0 12 0C18.6274 0 24 5.37258 24 12ZM5.69558 7.61696C5.84224 7.75225 5.91714 7.95092 5.89726 8.15194V15.3894C5.94078 15.6505 5.86036 15.9172 5.68064 16.1078L3.99997 18.1943V18.4694H8.76561V18.1943L7.08493 16.1078C6.9039 15.9175 6.8185 15.6526 6.85338 15.3894V9.13019L11.0364 18.4694H11.5219L15.1148 9.13019V16.574C15.1148 16.7727 15.1148 16.811 14.9878 16.9409L13.6956 18.2248V18.5H19.9701V18.2248L18.7227 16.9715C18.6125 16.8855 18.5579 16.7444 18.5807 16.6046V7.39532C18.5579 7.25558 18.6125 7.11439 18.7227 7.02848L20 5.7751V5.49997H15.5779L12.4257 13.5476L8.8403 5.49997H4.20165V5.7751L5.69558 7.61696Z" fill="#B8C7D0"/>
</svg>
