<svg width="24" height="24" viewBox="0 0 24 24" fill="none" xmlns="http://www.w3.org/2000/svg">
<circle cx="12" cy="12" r="12" fill="#CEDADE"/>
<path d="M12.9687 14.3967C12.9452 14.3734 12.9135 14.3604 12.8804 14.3604C12.8473 14.3604 12.8156 14.3734 12.7921 14.3967L10.9765 16.2123C10.1359 17.0529 8.71711 17.142 7.78899 16.2123C6.8593 15.2826 6.94836 13.8654 7.78899 13.0248L9.60461 11.2092C9.65305 11.1607 9.65305 11.0811 9.60461 11.0326L8.98274 10.4107C8.95925 10.3875 8.92752 10.3744 8.89446 10.3744C8.8614 10.3744 8.82967 10.3875 8.80618 10.4107L6.99055 12.2264C5.66868 13.5482 5.66868 15.6873 6.99055 17.0076C8.31243 18.3279 10.4515 18.3295 11.7718 17.0076L13.5874 15.192C13.6359 15.1436 13.6359 15.0639 13.5874 15.0154L12.9687 14.3967ZM17.0093 6.99043C15.6874 5.66855 13.5484 5.66855 12.2281 6.99043L10.4109 8.80606C10.3876 8.82955 10.3746 8.86127 10.3746 8.89434C10.3746 8.9274 10.3876 8.95912 10.4109 8.98262L11.0312 9.60293C11.0796 9.65137 11.1593 9.65137 11.2077 9.60293L13.0234 7.7873C13.864 6.94668 15.2827 6.85762 16.2109 7.7873C17.1406 8.71699 17.0515 10.1342 16.2109 10.9748L14.3952 12.7904C14.372 12.8139 14.3589 12.8457 14.3589 12.8787C14.3589 12.9118 14.372 12.9435 14.3952 12.967L15.0171 13.5889C15.0656 13.6373 15.1452 13.6373 15.1937 13.5889L17.0093 11.7732C18.3296 10.4514 18.3296 8.3123 17.0093 6.99043ZM13.5327 9.81699C13.5092 9.79373 13.4775 9.78068 13.4445 9.78068C13.4114 9.78068 13.3797 9.79373 13.3562 9.81699L9.81711 13.3545C9.79385 13.378 9.7808 13.4097 9.7808 13.4428C9.7808 13.4758 9.79385 13.5076 9.81711 13.5311L10.4359 14.1498C10.4843 14.1982 10.564 14.1982 10.6124 14.1498L14.1499 10.6123C14.1984 10.5639 14.1984 10.4842 14.1499 10.4357L13.5327 9.81699Z" fill="white"/>
</svg>
