<svg width="24" height="24" viewBox="0 0 24 24" fill="none" xmlns="http://www.w3.org/2000/svg">
<path fill-rule="evenodd" clip-rule="evenodd" d="M24 12C24 18.6274 18.6274 24 12 24C5.37258 24 0 18.6274 0 12C0 5.37258 5.37258 0 12 0C18.6274 0 24 5.37258 24 12ZM8.03574 10.9008C6.83365 11.4256 5.59852 11.9649 4.4691 12.587L4.46902 12.5871C3.87928 13.0189 4.66317 13.3243 5.3985 13.6107C5.51541 13.6563 5.63109 13.7014 5.73982 13.7464C5.8303 13.7742 5.92233 13.8035 6.01557 13.8332C6.8334 14.0938 7.74535 14.3843 8.53932 13.9472C9.84361 13.198 11.0745 12.3318 12.3044 11.4662C12.7074 11.1827 13.1102 10.8991 13.5155 10.6198C13.5345 10.6077 13.5559 10.5938 13.5794 10.5786C13.9246 10.3548 14.7012 9.85146 14.4139 10.545C13.7347 11.2878 13.0072 11.9454 12.2757 12.6065C11.7827 13.052 11.2879 13.4992 10.8049 13.9752C10.3843 14.317 9.94744 15.0044 10.4185 15.483C11.5034 16.2426 12.6054 16.9837 13.7066 17.7244C14.065 17.9654 14.4233 18.2064 14.7809 18.4479C15.387 18.9318 16.3342 18.5404 16.4675 17.7842C16.5268 17.4364 16.5863 17.0885 16.6458 16.7406C16.9745 14.8183 17.3034 12.8953 17.594 10.9667C17.6335 10.6642 17.6782 10.3617 17.723 10.059C17.8316 9.32549 17.9403 8.59104 17.9742 7.85354C17.8867 7.11757 16.9943 7.27939 16.4977 7.44488C13.9451 8.41618 11.418 9.45948 8.9009 10.5212C8.61576 10.6475 8.32672 10.7737 8.03574 10.9008Z" fill="#01BAEF"/>
</svg>
