<svg width="16" height="16" viewBox="0 0 16 16" fill="none" xmlns="http://www.w3.org/2000/svg">
<path d="M2.66013 4.83978C2.67752 4.68516 2.61199 4.53233 2.48366 4.42826L1.17647 3.01144V2.7998H5.23529L8.37255 8.99028L11.1307 2.7998H15V3.01144L13.8824 3.97558C13.786 4.04167 13.7382 4.15027 13.7582 4.25777V11.3418C13.7382 11.4493 13.786 11.5579 13.8824 11.624L14.9739 12.5882V12.7998H9.48366V12.5882L10.6144 11.6005C10.7255 11.5006 10.7255 11.4712 10.7255 11.3183V5.59228L7.5817 12.7763H7.15686L3.49673 5.59228V10.4071C3.46622 10.6095 3.54094 10.8133 3.69935 10.9597L5.16993 12.5646V12.7763H1V12.5646L2.47059 10.9597C2.62784 10.8131 2.69821 10.6079 2.66013 10.4071V4.83978Z" fill="#728E9D"/>
</svg>
