<svg width="16" height="16" viewBox="0 0 16 16" fill="none" xmlns="http://www.w3.org/2000/svg">
<path d="M0.241656 7.38165C1.8785 6.56518 3.70567 5.88371 5.41287 5.19877C8.34994 4.07691 11.2987 2.97448 14.2772 1.94813C14.8567 1.77327 15.8979 1.60228 16 2.37995C15.9441 3.48079 15.7141 4.57519 15.5564 5.66958C15.156 8.07626 14.6932 10.4747 14.2419 12.8734C14.0864 13.6725 12.9811 14.0861 12.2739 13.5747C10.5743 12.5351 8.86159 11.5056 7.18367 10.4418C6.63402 9.93607 7.14371 9.20974 7.63459 8.84857C9.03445 7.59927 10.519 6.53784 11.8457 5.22398C12.2036 4.44139 11.1462 5.10093 10.7974 5.30303C8.88099 6.49897 7.01147 7.76793 4.99097 8.819C3.95889 9.33348 2.75599 8.89382 1.72439 8.60675C0.799442 8.25993 -0.555975 7.91053 0.241562 7.38175L0.241656 7.38165Z" fill="#728E9D"/>
</svg>
