<svg width="16" height="16" viewBox="0 0 16 16" fill="none" xmlns="http://www.w3.org/2000/svg">
<path d="M12.5134 8.90699C12.4574 8.83949 12.3887 8.78369 12.3111 8.74278C12.2335 8.70188 12.1487 8.67669 12.0613 8.66863C11.974 8.66058 11.886 8.66984 11.8022 8.69587C11.7185 8.7219 11.6407 8.76419 11.5734 8.82033L8.66669 11.2403V3.33366C8.66669 3.15685 8.59645 2.98728 8.47142 2.86225C8.3464 2.73723 8.17683 2.66699 8.00002 2.66699C7.82321 2.66699 7.65364 2.73723 7.52861 2.86225C7.40359 2.98728 7.33335 3.15685 7.33335 3.33366V11.2403L4.42669 8.82033C4.35927 8.76429 4.28149 8.72209 4.19776 8.69612C4.11404 8.67015 4.02602 8.66093 3.93874 8.66898C3.85145 8.67703 3.7666 8.70219 3.68904 8.74303C3.61148 8.78386 3.54272 8.83958 3.48669 8.90699C3.43066 8.9744 3.38845 9.05219 3.36248 9.13591C3.33651 9.21964 3.32729 9.30765 3.33534 9.39494C3.34339 9.48223 3.36855 9.56708 3.40939 9.64464C3.45022 9.7222 3.50594 9.79096 3.57335 9.84699L7.57335 13.1803L7.67335 13.2403L7.76002 13.287C7.91447 13.3466 8.08557 13.3466 8.24002 13.287L8.32669 13.2403L8.42669 13.1803L12.4267 9.84699C12.4942 9.79103 12.55 9.72229 12.5909 9.64473C12.6318 9.56716 12.657 9.48229 12.665 9.39497C12.6731 9.30766 12.6638 9.21961 12.6378 9.13587C12.6118 9.05214 12.5695 8.97436 12.5134 8.90699Z" fill="#5A7687"/>
</svg>
