<svg width="16" height="17" viewBox="0 0 16 17" fill="none" xmlns="http://www.w3.org/2000/svg">
<path fill-rule="evenodd" clip-rule="evenodd" d="M6.58325 5.16699C6.58325 3.64821 7.81447 2.41699 9.33325 2.41699C10.592 2.41699 11.6533 3.26274 11.9797 4.41699H13.9999C14.4141 4.41699 14.7499 4.75278 14.7499 5.16699C14.7499 5.58121 14.4141 5.91699 13.9999 5.91699H11.9797C11.6533 7.07124 10.592 7.91699 9.33325 7.91699C7.81447 7.91699 6.58325 6.68577 6.58325 5.16699ZM9.33325 3.91699C8.6429 3.91699 8.08325 4.47664 8.08325 5.16699C8.08325 5.85735 8.6429 6.41699 9.33325 6.41699C10.0236 6.41699 10.5833 5.85735 10.5833 5.16699C10.5833 4.47664 10.0236 3.91699 9.33325 3.91699ZM1.33325 4.41699C0.919038 4.41699 0.583252 4.75278 0.583252 5.16699C0.583252 5.58121 0.919038 5.91699 1.33325 5.91699H5.33325C5.74747 5.91699 6.08325 5.58121 6.08325 5.16699C6.08325 4.75278 5.74747 4.41699 5.33325 4.41699H1.33325ZM1.33325 11.0837C0.919038 11.0837 0.583252 11.4194 0.583252 11.8337C0.583252 12.2479 0.919038 12.5837 1.33325 12.5837H3.35343C3.6799 13.7379 4.74114 14.5837 5.99992 14.5837C7.5187 14.5837 8.74992 13.3524 8.74992 11.8337C8.74992 10.3149 7.5187 9.08366 5.99992 9.08366C4.74114 9.08366 3.6799 9.92941 3.35343 11.0837H1.33325ZM4.74992 11.8338C4.75 12.5241 5.30961 13.0837 5.99992 13.0837C6.69027 13.0837 7.24992 12.524 7.24992 11.8337C7.24992 11.1433 6.69027 10.5837 5.99992 10.5837C5.30956 10.5837 4.74992 11.1433 4.74992 11.8337C4.74992 11.8337 4.74992 11.8338 4.74992 11.8338ZM9.99992 11.0837C9.58571 11.0837 9.24992 11.4194 9.24992 11.8337C9.24992 12.2479 9.58571 12.5837 9.99992 12.5837H13.9999C14.4141 12.5837 14.7499 12.2479 14.7499 11.8337C14.7499 11.4194 14.4141 11.0837 13.9999 11.0837H9.99992Z" fill="#BAC1FE"/>
</svg>
