<svg width="312" height="33" viewBox="0 0 312 33" fill="none" xmlns="http://www.w3.org/2000/svg">
<rect y="31" width="9" height="2" fill="#253095"/>
<rect x="11" y="30" width="8" height="3" fill="#253095"/>
<rect x="21" y="29" width="8" height="4" fill="#253095"/>
<rect x="31" y="28" width="8" height="5" fill="#253095"/>
<rect x="41" y="27" width="8" height="6" fill="#253095"/>
<rect x="51" y="26" width="9" height="7" fill="#253095"/>
<rect x="62" y="25" width="8" height="8" fill="#253095"/>
<rect x="72" y="24" width="8" height="9" fill="#253095"/>
<rect x="82" y="23" width="8" height="10" fill="#253095"/>
<rect x="92" y="22" width="8" height="11" fill="#253095"/>
<rect x="102" y="21" width="8" height="12" fill="#253095"/>
<rect x="112" y="20" width="8" height="13" fill="#253095"/>
<rect x="122" y="19" width="8" height="14" fill="#253095"/>
<rect x="132" y="18" width="8" height="15" fill="#253095"/>
<rect x="142" y="17" width="8" height="16" fill="#253095"/>
<rect x="152" y="15" width="9" height="18" fill="#253095"/>
<rect x="163" y="14" width="8" height="19" fill="#253095"/>
<rect x="173" y="13" width="8" height="20" fill="#253095"/>
<rect x="183" y="12" width="8" height="21" fill="#253095"/>
<rect x="193" y="11" width="8" height="22" fill="#253095"/>
<rect x="203" y="10" width="8" height="23" fill="#253095"/>
<rect x="213" y="9" width="8" height="24" fill="#253095"/>
<rect x="223" y="8" width="8" height="25" fill="#253095"/>
<rect x="233" y="7" width="8" height="26" fill="#253095"/>
<rect x="243" y="6" width="8" height="27" fill="#253095"/>
<rect x="253" y="5" width="9" height="28" fill="#253095"/>
<rect x="264" y="4" width="8" height="29" fill="#253095"/>
<rect x="274" y="3" width="8" height="30" fill="#253095"/>
<rect x="284" y="2" width="8" height="31" fill="#253095"/>
<rect x="294" y="1" width="8" height="32" fill="#253095"/>
<rect x="304" width="8" height="33" fill="#253095"/>
</svg>
