<svg width="20" height="20" viewBox="0 0 20 20" fill="none" xmlns="http://www.w3.org/2000/svg">
<g clip-path="url(#clip0)">
<path d="M9.37493 3.75H11.8749C12.0407 3.75 12.1997 3.68415 12.3169 3.56694C12.4341 3.44973 12.4999 3.29076 12.4999 3.125V1.875C12.4999 1.70924 12.4341 1.55027 12.3169 1.43306C12.1997 1.31585 12.0407 1.25 11.8749 1.25H9.37493C9.20917 1.25 9.0502 1.31585 8.93299 1.43306C8.81578 1.55027 8.74993 1.70924 8.74993 1.875V3.125C8.74993 3.29076 8.81578 3.44973 8.93299 3.56694C9.0502 3.68415 9.20917 3.75 9.37493 3.75ZM9.37493 8.75H14.3749C14.5407 8.75 14.6997 8.68415 14.8169 8.56694C14.9341 8.44973 14.9999 8.29076 14.9999 8.125V6.875C14.9999 6.70924 14.9341 6.55027 14.8169 6.43306C14.6997 6.31585 14.5407 6.25 14.3749 6.25H9.37493C9.20917 6.25 9.0502 6.31585 8.93299 6.43306C8.81578 6.55027 8.74993 6.70924 8.74993 6.875V8.125C8.74993 8.29076 8.81578 8.44973 8.93299 8.56694C9.0502 8.68415 9.20917 8.75 9.37493 8.75ZM19.3749 16.25H9.37493C9.20917 16.25 9.0502 16.3158 8.93299 16.4331C8.81578 16.5503 8.74993 16.7092 8.74993 16.875V18.125C8.74993 18.2908 8.81578 18.4497 8.93299 18.5669C9.0502 18.6842 9.20917 18.75 9.37493 18.75H19.3749C19.5407 18.75 19.6997 18.6842 19.8169 18.5669C19.9341 18.4497 19.9999 18.2908 19.9999 18.125V16.875C19.9999 16.7092 19.9341 16.5503 19.8169 16.4331C19.6997 16.3158 19.5407 16.25 19.3749 16.25ZM9.37493 13.75H16.8749C17.0407 13.75 17.1997 13.6842 17.3169 13.5669C17.4341 13.4497 17.4999 13.2908 17.4999 13.125V11.875C17.4999 11.7092 17.4341 11.5503 17.3169 11.4331C17.1997 11.3158 17.0407 11.25 16.8749 11.25H9.37493C9.20917 11.25 9.0502 11.3158 8.93299 11.4331C8.81578 11.5503 8.74993 11.7092 8.74993 11.875V13.125C8.74993 13.2908 8.81578 13.4497 8.93299 13.5669C9.0502 13.6842 9.20917 13.75 9.37493 13.75ZM0.62493 6.25H2.49993V18.125C2.49993 18.2908 2.56578 18.4497 2.68299 18.5669C2.8002 18.6842 2.95917 18.75 3.12493 18.75H4.37493C4.54069 18.75 4.69966 18.6842 4.81687 18.5669C4.93408 18.4497 4.99993 18.2908 4.99993 18.125V6.25H6.87493C7.43001 6.25 7.71048 5.57656 7.31673 5.1832L4.19173 1.4332C4.07453 1.31608 3.91562 1.25029 3.74993 1.25029C3.58424 1.25029 3.42533 1.31608 3.30813 1.4332L0.183133 5.1832C-0.209055 5.57578 0.069461 6.25 0.62493 6.25Z" fill="#5E7C8D"/>
</g>
<defs>
<clipPath id="clip0">
<rect width="20" height="20" fill="white"/>
</clipPath>
</defs>
</svg>
