<svg width="25" height="24" viewBox="0 0 25 24" fill="none" xmlns="http://www.w3.org/2000/svg">
<g opacity="0.5">
<path fill-rule="evenodd" clip-rule="evenodd" d="M5.921 20.7C6.185 21.193 6.7 21.501 7.26 21.5C7.496 21.501 7.73 21.446 7.94 21.34L12.492 18.96C12.504 18.953 12.518 18.949 12.532 18.95L17.053 21.31C17.272 21.428 17.517 21.489 17.765 21.488C17.844 21.488 17.924 21.481 18.002 21.47C18.816 21.337 19.372 20.575 19.252 19.76L18.372 14.75C18.3671 14.7429 18.3656 14.7424 18.3652 14.7416C18.365 14.7412 18.365 14.7409 18.365 14.74C18.365 14.737 18.372 14.73 18.372 14.73L22.042 11.18C22.584 10.657 22.653 9.814 22.202 9.21C21.957 8.894 21.598 8.686 21.202 8.63L16.14 7.9C16.131 7.9 16.121 7.89 16.111 7.88L13.85 3.34C13.595 2.827 13.073 2.503 12.5 2.5C12.334 2.5 12.168 2.526 12.01 2.58C11.631 2.709 11.318 2.981 11.14 3.34L8.882 7.867C8.882 7.888 8.861 7.897 8.841 7.897L3.791 8.627C3.482 8.679 3.194 8.817 2.961 9.027C2.666 9.316 2.5 9.713 2.5 10.127C2.501 10.52 2.659 10.896 2.94 11.17L6.64 14.73C6.648 14.738 6.651 14.749 6.651 14.76L5.76 19.75C5.707 20.076 5.764 20.41 5.921 20.7ZM12.471 3.967L12.481 3.96H12.5L12.509 3.969C12.518 3.969 12.526 3.971 12.533 3.977C12.539 3.983 12.542 3.991 12.541 4L14.801 8.519C15.018 8.964 15.44 9.274 15.93 9.349L20.992 10.085C21.001 10.085 21.01 10.087 21.018 10.091C21.023 10.092 21.027 10.092 21.032 10.091L21.042 10.1L21.032 10.122L17.362 13.681C16.997 14.023 16.834 14.529 16.931 15.02L17.812 20.001L17.792 20.02H17.771C17.767 20.022 17.763 20.022 17.759 20.02C17.749 20.019 17.739 20.015 17.73 20.01H17.721L13.221 17.66C13.005 17.548 12.765 17.488 12.521 17.489C12.27 17.489 12.022 17.552 11.8 17.67L7.271 20.045C7.266 20.046 7.26 20.046 7.255 20.045C7.234 20.045 7.216 20.031 7.211 20.011V19.991L8.091 15.011C8.173 14.524 8.013 14.027 7.661 13.681L3.961 10.131C3.96 10.116 3.962 10.103 3.97 10.09L4.031 10.07L9.061 9.349C9.551 9.273 9.972 8.964 10.19 8.519L12.451 3.989C12.456 3.98 12.462 3.972 12.471 3.967Z" fill="white"/>
</g>
</svg>
