<svg width="25" height="25" viewBox="0 0 25 25" fill="none" xmlns="http://www.w3.org/2000/svg">
<path fill-rule="evenodd" clip-rule="evenodd" d="M5.921 21.2C6.185 21.693 6.7 22.001 7.26 22C7.496 22.001 7.73 21.946 7.94 21.84L12.492 19.46C12.504 19.453 12.518 19.449 12.532 19.45L17.053 21.81C17.272 21.928 17.517 21.989 17.765 21.988C17.844 21.988 17.924 21.981 18.002 21.97C18.816 21.837 19.372 21.075 19.252 20.26L18.372 15.25C18.3671 15.2429 18.3656 15.2424 18.3652 15.2416C18.365 15.2412 18.365 15.2409 18.365 15.24C18.365 15.237 18.372 15.23 18.372 15.23L22.042 11.68C22.584 11.157 22.653 10.314 22.202 9.71C21.957 9.394 21.598 9.186 21.202 9.13L16.14 8.4C16.131 8.4 16.121 8.39 16.111 8.38L13.85 3.84C13.595 3.327 13.073 3.003 12.5 3C12.334 3 12.168 3.026 12.01 3.08C11.631 3.209 11.318 3.481 11.14 3.84L8.882 8.367C8.882 8.388 8.861 8.397 8.841 8.397L3.791 9.127C3.482 9.179 3.194 9.317 2.961 9.527C2.666 9.816 2.5 10.213 2.5 10.627C2.501 11.02 2.659 11.396 2.94 11.67L6.64 15.23C6.648 15.238 6.651 15.249 6.651 15.26L5.76 20.25C5.707 20.576 5.764 20.91 5.921 21.2ZM12.471 4.467L12.481 4.46H12.5L12.509 4.469C12.518 4.469 12.526 4.471 12.533 4.477C12.539 4.483 12.542 4.491 12.541 4.5L14.801 9.019C15.018 9.464 15.44 9.774 15.93 9.849L20.992 10.585C21.001 10.585 21.01 10.587 21.018 10.591C21.023 10.592 21.027 10.592 21.032 10.591L21.042 10.6L21.032 10.622L17.362 14.181C16.997 14.523 16.834 15.029 16.931 15.52L17.812 20.501L17.792 20.52H17.771C17.767 20.522 17.763 20.522 17.759 20.52C17.749 20.519 17.739 20.515 17.73 20.51H17.721L13.221 18.16C13.005 18.048 12.765 17.988 12.521 17.989C12.27 17.989 12.022 18.052 11.8 18.17L7.271 20.545C7.266 20.546 7.26 20.546 7.255 20.545C7.234 20.545 7.216 20.531 7.211 20.511V20.491L8.091 15.511C8.173 15.024 8.013 14.527 7.661 14.181L3.961 10.631C3.96 10.616 3.962 10.603 3.97 10.59L4.031 10.57L9.061 9.849C9.551 9.773 9.972 9.464 10.19 9.019L12.451 4.489C12.456 4.48 12.462 4.472 12.471 4.467Z" fill="#5E7C8D"/>
</svg>
