<svg width="24" height="25" viewBox="0 0 24 25" fill="none" xmlns="http://www.w3.org/2000/svg">
<path fill-rule="evenodd" clip-rule="evenodd" d="M15.9391 3.64039C15.6523 2.79628 14.9075 2.25 14.0639 2.25H9.93592L9.779 2.25633C8.9492 2.32349 8.24111 2.91897 8.02304 3.75533L7.77543 5.01813L7.74642 5.12929C7.62785 5.48928 7.29636 5.73913 6.91772 5.73913H3.73139L3.63214 5.74598C3.27515 5.79564 3 6.10945 3 6.48916C3 6.90338 3.32745 7.23918 3.73139 7.23918L6.91772 7.23918H17.0821L20.2686 7.23918L20.3679 7.23234C20.7248 7.18267 21 6.86887 21 6.48916C21 6.07493 20.6725 5.73913 20.2686 5.73913H17.0821L16.9701 5.73177C16.6025 5.6832 16.2987 5.39872 16.2243 5.01783L15.9874 3.80209L15.9391 3.64039ZM14.9143 5.73913C14.881 5.65445 14.8522 5.56721 14.8282 5.47768L14.79 5.31208L14.5636 4.1428C14.5107 3.93991 14.3473 3.79138 14.1502 3.75742L14.0639 3.75006H9.93592C9.73071 3.75006 9.54829 3.87322 9.47252 4.02803L9.44682 4.09604L9.20979 5.31238C9.18087 5.46048 9.13899 5.60311 9.08551 5.73913H14.9143ZM18.9784 8.97017C19.3475 9.00069 19.6304 9.30716 19.65 9.67605L19.6405 9.88174L19.326 13.733L18.9961 17.4914C18.9263 18.2417 18.8638 18.8745 18.8099 19.3727C18.6225 21.1088 17.4955 22.1823 15.7966 22.2141C13.1494 22.263 10.6048 22.2625 8.13373 22.2091C6.48398 22.1744 5.37366 21.0893 5.18955 19.3797L5.0623 18.1202L4.83994 15.677L4.61216 12.9961L4.35172 9.77788C4.31935 9.36498 4.61951 9.00335 5.02215 8.97016C5.39123 8.93973 5.7183 9.19584 5.79519 9.55677L5.82511 9.85173L6.06966 12.8687L6.33669 15.9959C6.45646 17.3496 6.56034 18.4452 6.64346 19.2148C6.74838 20.189 7.26138 20.6904 8.16411 20.7093C10.6159 20.7624 13.1415 20.7629 15.7701 20.7143C16.7277 20.6964 17.2489 20.1999 17.356 19.2074L17.4827 17.9546C17.5198 17.5685 17.5594 17.1423 17.6014 16.6793L17.8686 13.6038L18.1906 9.6575C18.2204 9.27902 18.5192 8.9889 18.879 8.96882L18.9784 8.97017Z" fill="#5E7C8D"/>
</svg>
