<svg width="400" height="400" viewBox="0 0 400 400" fill="none" xmlns="http://www.w3.org/2000/svg">
<rect width="400" height="400" rx="200" fill="#3340B4"/>
<path d="M212.5 62.5V87.5C212.5 90.8152 211.183 93.9946 208.839 96.3388C206.495 98.683 203.315 100 200 100C196.685 100 193.505 98.683 191.161 96.3388C188.817 93.9946 187.5 90.8152 187.5 87.5V62.5C187.5 59.1848 188.817 56.0054 191.161 53.6612C193.505 51.317 196.685 50 200 50C203.315 50 206.495 51.317 208.839 53.6612C211.183 56.0054 212.5 59.1848 212.5 62.5ZM200 300C196.685 300 193.505 301.317 191.161 303.661C188.817 306.005 187.5 309.185 187.5 312.5V337.5C187.5 340.815 188.817 343.995 191.161 346.339C193.505 348.683 196.685 350 200 350C203.315 350 206.495 348.683 208.839 346.339C211.183 343.995 212.5 340.815 212.5 337.5V312.5C212.5 309.185 211.183 306.005 208.839 303.661C206.495 301.317 203.315 300 200 300ZM100 200C100 196.685 98.683 193.505 96.3388 191.161C93.9946 188.817 90.8152 187.5 87.5 187.5H62.5C59.1848 187.5 56.0054 188.817 53.6612 191.161C51.317 193.505 50 196.685 50 200C50 203.315 51.317 206.495 53.6612 208.839C56.0054 211.183 59.1848 212.5 62.5 212.5H87.5C90.8152 212.5 93.9946 211.183 96.3388 208.839C98.683 206.495 100 203.315 100 200ZM337.5 187.5H312.5C309.185 187.5 306.005 188.817 303.661 191.161C301.317 193.505 300 196.685 300 200C300 203.315 301.317 206.495 303.661 208.839C306.005 211.183 309.185 212.5 312.5 212.5H337.5C340.815 212.5 343.995 211.183 346.339 208.839C348.683 206.495 350 203.315 350 200C350 196.685 348.683 193.505 346.339 191.161C343.995 188.817 340.815 187.5 337.5 187.5ZM275.225 70.225C273.804 69.4013 272.235 68.8656 270.608 68.6484C268.98 68.4313 267.325 68.537 265.739 68.9596C264.152 69.3821 262.664 70.1132 261.359 71.111C260.055 72.1089 258.96 73.3539 258.137 74.775L245.637 96.4125C243.979 99.282 243.528 102.693 244.383 105.895C245.239 109.097 247.331 111.828 250.2 113.487C252.096 114.596 254.254 115.179 256.45 115.175C258.644 115.175 260.8 114.597 262.7 113.5C264.6 112.403 266.178 110.825 267.275 108.925L279.775 87.2875C281.431 84.4207 281.881 81.0141 281.028 77.8153C280.175 74.6165 278.088 71.8868 275.225 70.225ZM149.838 286.512C146.97 284.853 143.56 284.4 140.358 285.253C137.156 286.106 134.424 288.196 132.762 291.062L120.262 312.7C118.603 315.568 118.15 318.978 119.003 322.179C119.856 325.381 121.946 328.113 124.812 329.775C126.709 330.883 128.866 331.465 131.062 331.462C133.259 331.465 135.417 330.888 137.319 329.791C139.222 328.694 140.802 327.115 141.9 325.212L154.4 303.575C156.055 300.707 156.503 297.299 155.648 294.1C154.793 290.901 152.703 288.172 149.838 286.512ZM108.938 132.762L87.3 120.262C84.4382 118.722 81.089 118.357 77.9626 119.245C74.8363 120.133 72.1785 122.203 70.5528 125.017C68.9271 127.831 68.4613 131.168 69.2542 134.319C70.047 137.471 72.0362 140.19 74.8 141.9L96.4375 154.4C99.2993 155.94 102.648 156.305 105.775 155.417C108.901 154.53 111.559 152.46 113.185 149.645C114.81 146.831 115.276 143.495 114.483 140.343C113.69 137.191 111.701 134.472 108.938 132.762ZM325.188 258.137L303.55 245.637C300.688 244.097 297.339 243.732 294.213 244.62C291.086 245.508 288.428 247.578 286.803 250.392C285.177 253.206 284.711 256.543 285.504 259.694C286.297 262.846 288.286 265.565 291.05 267.275L312.688 279.775C314.583 280.884 316.741 281.466 318.938 281.463C321.689 281.462 324.364 280.554 326.547 278.879C328.73 277.204 330.299 274.856 331.011 272.198C331.723 269.54 331.538 266.721 330.486 264.179C329.433 261.637 327.57 259.513 325.188 258.137ZM141.863 74.775C140.153 72.0112 137.434 70.022 134.282 69.2292C131.13 68.4363 127.794 68.9021 124.979 70.5278C122.165 72.1535 120.095 74.8113 119.208 77.9376C118.32 81.064 118.685 84.4132 120.225 87.275L132.725 108.912C133.822 110.813 135.4 112.391 137.3 113.488C139.2 114.585 141.356 115.162 143.55 115.162C145.746 115.166 147.904 114.584 149.8 113.475C152.669 111.815 154.761 109.084 155.617 105.882C156.472 102.68 156.021 99.2695 154.363 96.4L141.863 74.775ZM267.238 291.025C265.528 288.261 262.809 286.272 259.657 285.479C256.505 284.686 253.169 285.152 250.355 286.778C247.54 288.403 245.47 291.061 244.583 294.188C243.695 297.314 244.06 300.663 245.6 303.525L258.1 325.163C259.81 327.926 262.529 329.915 265.681 330.708C268.832 331.501 272.169 331.035 274.983 329.41C277.797 327.784 279.867 325.126 280.755 322C281.643 318.873 281.278 315.524 279.738 312.663L267.238 291.025ZM297.338 156.025C299.532 156.025 301.687 155.447 303.588 154.35L325.225 141.85C327.989 140.14 329.978 137.421 330.771 134.269C331.564 131.118 331.098 127.781 329.472 124.967C327.846 122.153 325.189 120.083 322.062 119.195C318.936 118.307 315.587 118.672 312.725 120.213L291.088 132.713C288.711 134.091 286.855 136.214 285.806 138.754C284.757 141.294 284.575 144.108 285.286 146.762C285.997 149.416 287.564 151.761 289.742 153.436C291.92 155.11 294.59 156.02 297.338 156.025ZM96.4125 245.6L74.775 258.1C72.3921 259.476 70.5298 261.6 69.4769 264.142C68.424 266.684 68.2393 269.502 68.9515 272.16C69.6637 274.818 71.2329 277.167 73.4158 278.842C75.5988 280.517 78.2734 281.425 81.025 281.425C83.2214 281.429 85.379 280.846 87.275 279.738L108.912 267.238C111.676 265.528 113.665 262.809 114.458 259.657C115.251 256.505 114.785 253.169 113.16 250.355C111.534 247.54 108.876 245.47 105.75 244.583C102.623 243.695 99.2743 244.06 96.4125 245.6Z" fill="white"/>
<path d="M236 236H216.395L183.605 191.59V236H164V164H183.605L216.395 208.615V164H236V236Z" fill="white"/>
</svg>
