<svg width="14" height="14" viewBox="0 0 14 14" fill="none" xmlns="http://www.w3.org/2000/svg">
<path d="M9.76229 5.29632C9.82342 5.23932 9.87273 5.17085 9.90739 5.0948C9.94206 5.01875 9.96141 4.93662 9.96433 4.85309C9.96726 4.76956 9.9537 4.68628 9.92444 4.60799C9.89518 4.5297 9.85078 4.45795 9.79379 4.39682C9.7368 4.33569 9.66832 4.28638 9.59227 4.25171C9.51622 4.21705 9.43409 4.1977 9.35056 4.19477C9.26704 4.19185 9.18375 4.2054 9.10547 4.23467C9.02718 4.26393 8.95542 4.30832 8.89429 4.36532L7.03229 6.10132L5.29629 4.23868C5.18013 4.11971 5.02202 4.05092 4.8558 4.04705C4.68957 4.04317 4.52843 4.10451 4.40685 4.21794C4.28527 4.33136 4.21292 4.48787 4.20527 4.65397C4.19762 4.82007 4.25529 4.98256 4.36593 5.10668L6.10193 6.96868L4.23929 8.70468C4.176 8.76109 4.12462 8.82959 4.08817 8.90614C4.05173 8.98269 4.03094 9.06575 4.02704 9.15044C4.02314 9.23514 4.0362 9.31976 4.06546 9.39933C4.09473 9.47891 4.13959 9.55183 4.19743 9.61382C4.25527 9.67582 4.32491 9.72563 4.40227 9.76033C4.47962 9.79503 4.56313 9.81393 4.64789 9.8159C4.73266 9.81788 4.81696 9.8029 4.89585 9.77184C4.97474 9.74078 5.04663 9.69427 5.10729 9.63504L6.96929 7.89968L8.70529 9.76168C8.76134 9.82614 8.8298 9.87865 8.90658 9.91609C8.98336 9.95353 9.06689 9.97512 9.1522 9.97959C9.2375 9.98406 9.32283 9.97131 9.40311 9.9421C9.48338 9.91288 9.55694 9.86781 9.61943 9.80956C9.68191 9.75131 9.73202 9.68108 9.76678 9.60305C9.80154 9.52502 9.82023 9.44079 9.82175 9.35538C9.82326 9.26997 9.80757 9.18513 9.7756 9.10592C9.74362 9.02671 9.69603 8.95474 9.63565 8.89431L7.90029 7.03232L9.76229 5.29632Z" fill="#3340B4"/>
<path fill-rule="evenodd" clip-rule="evenodd" d="M0 7C0 3.13409 3.13409 0 7 0C10.8659 0 14 3.13409 14 7C14 10.8659 10.8659 14 7 14C3.13409 14 0 10.8659 0 7ZM7 12.7273C6.24788 12.7273 5.50313 12.5791 4.80827 12.2913C4.1134 12.0035 3.48203 11.5816 2.95021 11.0498C2.41838 10.518 1.99651 9.8866 1.70869 9.19173C1.42087 8.49687 1.27273 7.75212 1.27273 7C1.27273 6.24788 1.42087 5.50313 1.70869 4.80827C1.99651 4.1134 2.41838 3.48203 2.95021 2.95021C3.48203 2.41838 4.1134 1.99651 4.80827 1.70869C5.50313 1.42087 6.24788 1.27273 7 1.27273C8.51897 1.27273 9.97572 1.87613 11.0498 2.95021C12.1239 4.02428 12.7273 5.48103 12.7273 7C12.7273 8.51897 12.1239 9.97572 11.0498 11.0498C9.97572 12.1239 8.51897 12.7273 7 12.7273Z" fill="#3340B4"/>
</svg>
