<svg width="16" height="17" viewBox="0 0 16 17" fill="none" xmlns="http://www.w3.org/2000/svg">
<path fill-rule="evenodd" clip-rule="evenodd" d="M2 8.50065C2 8.13246 2.29848 7.83398 2.66667 7.83398H13.3333C13.7015 7.83398 14 8.13246 14 8.50065C14 8.86884 13.7015 9.16732 13.3333 9.16732H2.66667C2.29848 9.16732 2 8.86884 2 8.50065Z" fill="white"/>
<path fill-rule="evenodd" clip-rule="evenodd" d="M8.19526 3.36225C8.45561 3.1019 8.87772 3.1019 9.13807 3.36225L13.8047 8.02892C14.0651 8.28927 14.0651 8.71138 13.8047 8.97173L9.13807 13.6384C8.87772 13.8987 8.45561 13.8987 8.19526 13.6384C7.93491 13.378 7.93491 12.9559 8.19526 12.6956L12.3905 8.50032L8.19526 4.30506C7.93491 4.04471 7.93491 3.6226 8.19526 3.36225Z" fill="white"/>
</svg>
