<svg width="4" height="9" viewBox="0 0 4 9" fill="none" xmlns="http://www.w3.org/2000/svg">
<path d="M1.834 8.098C1.47933 8.098 1.18533 7.99067 0.952 7.776C0.728 7.552 0.616 7.27667 0.616 6.95C0.616 6.62333 0.728 6.35267 0.952 6.138C1.18533 5.914 1.47933 5.802 1.834 5.802C2.17933 5.802 2.464 5.914 2.688 6.138C2.912 6.35267 3.024 6.62333 3.024 6.95C3.024 7.27667 2.912 7.552 2.688 7.776C2.464 7.99067 2.17933 8.098 1.834 8.098ZM1.834 2.302C1.47933 2.302 1.18533 2.19467 0.952 1.98C0.728 1.756 0.616 1.48067 0.616 1.154C0.616 0.827333 0.728 0.556666 0.952 0.341999C1.18533 0.117999 1.47933 0.00599945 1.834 0.00599945C2.17933 0.00599945 2.464 0.117999 2.688 0.341999C2.912 0.556666 3.024 0.827333 3.024 1.154C3.024 1.48067 2.912 1.756 2.688 1.98C2.464 2.19467 2.17933 2.302 1.834 2.302Z" fill="#E0592E"/>
</svg>
