<svg width="20" height="20" viewBox="0 0 20 20" fill="none" xmlns="http://www.w3.org/2000/svg">
<path fill-rule="evenodd" clip-rule="evenodd" d="M3.12524 9.99881C3.12524 10.4207 3.46725 10.7627 3.88913 10.7627L16.1114 10.7627C16.5332 10.7627 16.8752 10.4207 16.8752 9.99881C16.8752 9.57693 16.5332 9.23492 16.1114 9.23492L3.88913 9.23492C3.46725 9.23492 3.12524 9.57692 3.12524 9.99881Z" fill="#3340B4"/>
<path fill-rule="evenodd" clip-rule="evenodd" d="M10.224 15.8866C10.5223 16.1849 11.006 16.1849 11.3043 15.8866L16.6515 10.5394C16.9498 10.2411 16.9498 9.75741 16.6515 9.45909L11.3043 4.11187C11.006 3.81355 10.5223 3.81355 10.224 4.11187C9.92567 4.41018 9.92567 4.89385 10.224 5.19217L15.0311 9.99924L10.224 14.8063C9.92566 15.1046 9.92566 15.5883 10.224 15.8866Z" fill="#3340B4"/>
</svg>
