<svg width="36" height="36" viewBox="0 0 36 36" fill="none" xmlns="http://www.w3.org/2000/svg">
<path fill-rule="evenodd" clip-rule="evenodd" d="M5.25 16.5C5.25 10.2868 10.2868 5.25 16.5 5.25C22.7132 5.25 27.75 10.2868 27.75 16.5C27.75 22.7132 22.7132 27.75 16.5 27.75C10.2868 27.75 5.25 22.7132 5.25 16.5ZM16.5 3.75C9.45837 3.75 3.75 9.45837 3.75 16.5C3.75 23.5416 9.45837 29.25 16.5 29.25C19.7509 29.25 22.7177 28.0333 24.9698 26.0304L29.4697 30.5303C29.7626 30.8232 30.2374 30.8232 30.5303 30.5303C30.8232 30.2374 30.8232 29.7626 30.5303 29.4697L26.0304 24.9698C28.0333 22.7177 29.25 19.7509 29.25 16.5C29.25 9.45837 23.5416 3.75 16.5 3.75Z" fill="white"/>
</svg>
