<svg width="15" height="11" viewBox="0 0 15 11" fill="none" xmlns="http://www.w3.org/2000/svg">
<path d="M1.04722 5.12217C2.49651 4.38508 4.11431 3.76986 5.6259 3.15152C8.22643 2.13872 10.8373 1.14348 13.4745 0.216917C13.9876 0.0590495 14.9095 -0.0953169 14.9999 0.606754C14.9504 1.60057 14.7468 2.58856 14.6071 3.57656C14.2526 5.74925 13.8428 7.9145 13.4433 10.08C13.3056 10.8014 12.327 11.1748 11.7008 10.7132C10.1959 9.77462 8.67945 8.84516 7.19379 7.88483C6.70713 7.42824 7.15841 6.77253 7.59305 6.44648C8.83251 5.31863 10.147 4.3604 11.3217 3.17427C11.6385 2.46778 10.7023 3.06319 10.3935 3.24564C8.69663 4.32531 7.04133 5.4709 5.25234 6.41978C4.33852 6.88424 3.27345 6.48733 2.36005 6.22816C1.54109 5.91507 0.340982 5.59963 1.04714 5.12226L1.04722 5.12217Z" fill="#BAC1FE"/>
</svg>
