<svg width="15" height="16" viewBox="0 0 15 16" fill="none" xmlns="http://www.w3.org/2000/svg">
<path fill-rule="evenodd" clip-rule="evenodd" d="M3.33333 3.33333C2.22876 3.33333 1.33333 4.22876 1.33333 5.33333V12C1.33333 13.1046 2.22876 14 3.33333 14H11.3333C12.4379 14 13.3333 13.1046 13.3333 12V5.33333C13.3333 4.22876 12.4379 3.33333 11.3333 3.33333H3.33333ZM0 5.33333C0 3.49238 1.49238 2 3.33333 2H11.3333C13.1743 2 14.6667 3.49238 14.6667 5.33333V12C14.6667 13.8409 13.1743 15.3333 11.3333 15.3333H3.33333C1.49238 15.3333 0 13.8409 0 12V5.33333Z" fill="#8EA5B2"/>
<path fill-rule="evenodd" clip-rule="evenodd" d="M4.66667 0.666992C5.03486 0.666992 5.33333 0.965469 5.33333 1.33366V4.00033C5.33333 4.36852 5.03486 4.66699 4.66667 4.66699C4.29848 4.66699 4 4.36852 4 4.00033V1.33366C4 0.965469 4.29848 0.666992 4.66667 0.666992Z" fill="#8EA5B2"/>
<path fill-rule="evenodd" clip-rule="evenodd" d="M9.99992 0.666992C10.3681 0.666992 10.6666 0.965469 10.6666 1.33366V4.00033C10.6666 4.36852 10.3681 4.66699 9.99992 4.66699C9.63173 4.66699 9.33325 4.36852 9.33325 4.00033V1.33366C9.33325 0.965469 9.63173 0.666992 9.99992 0.666992Z" fill="#8EA5B2"/>
<path fill-rule="evenodd" clip-rule="evenodd" d="M0 6.66667C0 6.29848 0.298477 6 0.666667 6H14C14.3682 6 14.6667 6.29848 14.6667 6.66667C14.6667 7.03486 14.3682 7.33333 14 7.33333H0.666667C0.298477 7.33333 0 7.03486 0 6.66667Z" fill="#8EA5B2"/>
</svg>
