<svg width="12" height="12" viewBox="0 0 12 12" fill="none" xmlns="http://www.w3.org/2000/svg">
<g clip-path="url(#clip0)">
<path d="M12 10.5251C12 10.8052 11.9012 11.0189 11.7035 11.1661C11.5058 11.3134 11.2633 11.387 10.9757 11.387H1.02426C0.736748 11.387 0.49416 11.3116 0.296496 11.1608C0.098832 11.0099 0 10.798 0 10.5251C0 10.3096 0.06469 10.0906 0.19407 9.86791L5.16442 1.20584C5.40162 0.810799 5.68194 0.613281 6.00539 0.613281C6.32884 0.613281 6.60198 0.810799 6.8248 1.20584L11.8059 9.87868C11.9353 10.1085 12 10.324 12 10.5251ZM6.74933 5.01973V3.44677H5.25067V5.01973C5.25067 5.12029 5.25786 5.21546 5.27224 5.30524C5.28661 5.39502 5.30638 5.49557 5.33154 5.6069C5.35669 5.71823 5.37646 5.8134 5.39084 5.89241L5.67116 7.63775H6.30728L6.59838 5.89241C6.61276 5.82058 6.63432 5.72721 6.66307 5.61229C6.69182 5.49737 6.71339 5.39502 6.72776 5.30524C6.74214 5.21546 6.74933 5.12029 6.74933 5.01973ZM6.74933 9.18917C6.74933 8.98087 6.67565 8.8049 6.5283 8.66125C6.38095 8.5176 6.20305 8.44578 5.99461 8.44578C5.79335 8.44578 5.61905 8.5176 5.4717 8.66125C5.32435 8.8049 5.25067 8.98087 5.25067 9.18917C5.25067 9.39746 5.32435 9.57522 5.4717 9.72246C5.61905 9.86971 5.79335 9.94333 5.99461 9.94333C6.20305 9.94333 6.38095 9.86971 6.5283 9.72246C6.67565 9.57522 6.74933 9.39746 6.74933 9.18917Z" fill="#E0592E"/>
</g>
<defs>
<clipPath id="clip0">
<rect width="12" height="10.7737" fill="white" transform="translate(0 0.613281)"/>
</clipPath>
</defs>
</svg>
