<svg width="16" height="16" viewBox="0 0 16 16" fill="none" xmlns="http://www.w3.org/2000/svg">
<path fill-rule="evenodd" clip-rule="evenodd" d="M2.33388 9.19206V9.04607C2.3553 8.61415 2.49373 8.19564 2.7349 7.83372C3.13633 7.39896 3.41113 6.86619 3.53047 6.2913C3.53047 5.84698 3.53047 5.39632 3.56928 4.952C3.76979 2.81293 5.88485 1.33398 7.97403 1.33398H8.02578C10.115 1.33398 12.23 2.81293 12.437 4.952C12.4758 5.39632 12.437 5.84698 12.4693 6.2913C12.5903 6.86752 12.8648 7.40195 13.2649 7.84007C13.5079 8.19879 13.6465 8.61576 13.6659 9.04607V9.18572C13.6804 9.76601 13.4805 10.3319 13.1032 10.7789C12.6046 11.3016 11.9281 11.6268 11.2016 11.6929C9.07132 11.9215 6.92202 11.9215 4.79174 11.6929C4.06609 11.624 3.3905 11.2993 2.89013 10.7789C2.51866 10.3315 2.32149 9.76904 2.33388 9.19206Z" stroke="white" stroke-width="1.5" stroke-linecap="round" stroke-linejoin="round"/>
<path d="M6.36995 13.9023C6.7028 14.3201 7.19159 14.5905 7.72814 14.6536C8.2647 14.7168 8.80477 14.5675 9.22884 14.2388C9.35926 14.1415 9.47662 14.0285 9.57811 13.9023" stroke="white" stroke-width="1.5" stroke-linecap="round" stroke-linejoin="round"/>
</svg>
