<svg width="16" height="16" viewBox="0 0 16 16" fill="none" xmlns="http://www.w3.org/2000/svg">
<g clip-path="url(#clip0)">
<path d="M11.7696 7.99569C11.7695 7.81891 11.6993 7.64938 11.5743 7.52438C11.4493 7.39938 11.2798 7.32915 11.103 7.32912L8.6649 7.32912L8.6649 4.89102C8.66186 4.71624 8.5903 4.54965 8.46563 4.42712C8.34095 4.30459 8.17314 4.23594 7.99834 4.23594C7.82353 4.23594 7.65572 4.30459 7.53105 4.42712C7.40637 4.54965 7.33481 4.71624 7.33177 4.89102L7.33177 7.32912L4.89367 7.32912C4.71889 7.33216 4.55229 7.40372 4.42977 7.5284C4.30724 7.65307 4.23858 7.82088 4.23858 7.99569C4.23858 8.17049 4.30724 8.3383 4.42977 8.46298C4.55229 8.58765 4.71889 8.65922 4.89367 8.66225L7.33177 8.66225V11.1004C7.33481 11.2751 7.40637 11.4417 7.53105 11.5643C7.65572 11.6868 7.82353 11.7554 7.99834 11.7554C8.17314 11.7554 8.34095 11.6868 8.46563 11.5643C8.5903 11.4417 8.66186 11.2751 8.6649 11.1004L8.6649 8.66225L11.103 8.66225C11.2798 8.66223 11.4493 8.59199 11.5743 8.46699C11.6993 8.34199 11.7695 8.17246 11.7696 7.99569Z" fill="#5E7C8D"/>
<path d="M8 0C6.41775 0 4.87104 0.469192 3.55544 1.34824C2.23985 2.22729 1.21447 3.47672 0.608967 4.93853C0.00346629 6.40034 -0.15496 8.00887 0.153721 9.56072C0.462403 11.1126 1.22433 12.538 2.34315 13.6569C3.46197 14.7757 4.88743 15.5376 6.43928 15.8463C7.99113 16.155 9.59966 15.9965 11.0615 15.391C12.5233 14.7855 13.7727 13.7602 14.6518 12.4446C15.5308 11.129 16 9.58225 16 8C15.9977 5.87897 15.1541 3.84547 13.6543 2.34568C12.1545 0.845885 10.121 0.00229405 8 0V0ZM8 14.6667C6.68146 14.6667 5.39253 14.2757 4.2962 13.5431C3.19987 12.8106 2.34539 11.7694 1.84081 10.5512C1.33622 9.33305 1.2042 7.9926 1.46144 6.6994C1.71867 5.40619 2.35361 4.2183 3.28596 3.28595C4.21831 2.3536 5.4062 1.71867 6.6994 1.46143C7.99261 1.2042 9.33305 1.33622 10.5512 1.8408C11.7694 2.34539 12.8106 3.19987 13.5431 4.2962C14.2757 5.39253 14.6667 6.68146 14.6667 8C14.6647 9.76751 13.9617 11.4621 12.7119 12.7119C11.4621 13.9617 9.76752 14.6647 8 14.6667Z" fill="#5E7C8D"/>
</g>
<defs>
<clipPath id="clip0">
<rect width="16" height="16" fill="white"/>
</clipPath>
</defs>
</svg>
