<svg width="15" height="13" viewBox="0 0 15 13" fill="none" xmlns="http://www.w3.org/2000/svg">
<path d="M7.63105 3.79251L7.6614 4.29292L7.15561 4.23165C5.31454 3.99676 3.70613 3.20018 2.3405 1.86234L1.67286 1.19853L1.50089 1.68873C1.13673 2.78147 1.36939 3.93548 2.12807 4.71163C2.5327 5.14056 2.44166 5.20184 1.74367 4.94652C1.50089 4.86482 1.28846 4.80355 1.26823 4.83419C1.19742 4.90567 1.4402 5.83501 1.6324 6.20266C1.89541 6.71329 2.43154 7.2137 3.01826 7.50986L3.51393 7.74475L2.92722 7.75496C2.36073 7.75496 2.3405 7.76518 2.4012 7.97964C2.60351 8.64345 3.40266 9.34811 4.29285 9.65449L4.92002 9.86895L4.37377 10.1958C3.56451 10.6655 2.61363 10.9311 1.66275 10.9515C1.20754 10.9617 0.833252 11.0025 0.833252 11.0332C0.833252 11.1353 2.06738 11.7072 2.7856 11.9319C4.94026 12.5957 7.49955 12.3097 9.42154 11.1762C10.7872 10.3694 12.1528 8.766 12.7901 7.2137C13.134 6.38649 13.478 4.87504 13.478 4.14995C13.478 3.68017 13.5083 3.6189 14.0748 3.05721C14.4086 2.73041 14.7222 2.37297 14.7829 2.27084C14.8841 2.07681 14.8739 2.07681 14.358 2.25042C13.4982 2.5568 13.3768 2.51595 13.8017 2.05638C14.1153 1.72958 14.4895 1.13726 14.4895 0.963644C14.4895 0.933006 14.3378 0.984069 14.1658 1.07598C13.9838 1.17811 13.5791 1.33129 13.2757 1.42321L12.7294 1.59682L12.2337 1.25981C11.9606 1.07598 11.5762 0.871731 11.3739 0.810456C10.858 0.667481 10.069 0.687906 9.60363 0.851306C8.33915 1.31087 7.54001 2.49552 7.63105 3.79251Z" fill="#BAC1FE"/>
</svg>
