<svg width="24" height="24" viewBox="0 0 24 24" fill="none" xmlns="http://www.w3.org/2000/svg">
<circle cx="12" cy="12" r="12" fill="#E0592E"/>
<path d="M12.9686 14.3967C12.9451 14.3734 12.9133 14.3604 12.8803 14.3604C12.8472 14.3604 12.8155 14.3734 12.792 14.3967L10.9764 16.2123C10.1357 17.0529 8.71699 17.142 7.78887 16.2123C6.85918 15.2826 6.94824 13.8654 7.78887 13.0248L9.60449 11.2092C9.65293 11.1607 9.65293 11.0811 9.60449 11.0326L8.98262 10.4107C8.95912 10.3875 8.9274 10.3744 8.89434 10.3744C8.86127 10.3744 8.82955 10.3875 8.80605 10.4107L6.99043 12.2264C5.66855 13.5482 5.66855 15.6873 6.99043 17.0076C8.3123 18.3279 10.4514 18.3295 11.7717 17.0076L13.5873 15.192C13.6357 15.1436 13.6357 15.0639 13.5873 15.0154L12.9686 14.3967ZM17.0092 6.99043C15.6873 5.66855 13.5482 5.66855 12.2279 6.99043L10.4107 8.80606C10.3875 8.82955 10.3744 8.86127 10.3744 8.89434C10.3744 8.9274 10.3875 8.95912 10.4107 8.98262L11.0311 9.60293C11.0795 9.65137 11.1592 9.65137 11.2076 9.60293L13.0232 7.7873C13.8639 6.94668 15.2826 6.85762 16.2107 7.7873C17.1404 8.71699 17.0514 10.1342 16.2107 10.9748L14.3951 12.7904C14.3719 12.8139 14.3588 12.8457 14.3588 12.8787C14.3588 12.9118 14.3719 12.9435 14.3951 12.967L15.017 13.5889C15.0654 13.6373 15.1451 13.6373 15.1936 13.5889L17.0092 11.7732C18.3295 10.4514 18.3295 8.3123 17.0092 6.99043ZM13.5326 9.81699C13.5091 9.79373 13.4774 9.78068 13.4443 9.78068C13.4113 9.78068 13.3795 9.79373 13.3561 9.81699L9.81699 13.3545C9.79373 13.378 9.78068 13.4097 9.78068 13.4428C9.78068 13.4758 9.79373 13.5076 9.81699 13.5311L10.4357 14.1498C10.4842 14.1982 10.5639 14.1982 10.6123 14.1498L14.1498 10.6123C14.1982 10.5639 14.1982 10.4842 14.1498 10.4357L13.5326 9.81699Z" fill="white"/>
</svg>
