<svg width="24" height="24" viewBox="0 0 24 24" fill="none" xmlns="http://www.w3.org/2000/svg">
<path fill-rule="evenodd" clip-rule="evenodd" d="M12 24C5.37225 24 0 18.6278 0 12C0 5.37225 5.37225 0 12 0C18.6278 0 24 5.37225 24 12C24 18.6278 18.6278 24 12 24ZM17.9955 12.1642L12.3735 3L6.75 12.165L12.3735 15.4298L17.9955 12.1642ZM18 13.212L12.3735 16.4753L6.75 13.2128L12.3735 20.9963L18 13.212Z" fill="black"/>
<path d="M12.3735 3V9.6525L17.9962 12.165L12.3735 3ZM12.3735 16.476V20.9963L18 13.212L12.3735 16.476Z" fill="black" fill-opacity="0.298"/>
<path d="M12.3735 15.43L17.9962 12.1653L12.3735 9.6543V15.43Z" fill="black" fill-opacity="0.801"/>
<path d="M6.75 12.1653L12.3735 15.43V9.6543L6.75 12.1653Z" fill="black" fill-opacity="0.298"/>
</svg>
