<svg width="17" height="17" viewBox="0 0 17 17" fill="none" xmlns="http://www.w3.org/2000/svg">
<path d="M15.4476 8.06068L14.2076 6.64068L14.3809 4.76068C14.4142 4.42735 14.1876 4.12068 13.8676 4.04735L12.0276 3.63402L11.0676 2.00735C10.8942 1.72068 10.5409 1.60068 10.2276 1.73402L8.5009 2.47402L6.77423 1.73402C6.46757 1.60068 6.10757 1.72068 5.9409 2.00735L4.97423 3.62735L3.1409 4.04068C2.81423 4.11402 2.58757 4.41402 2.6209 4.74735L2.79423 6.63402L1.54757 8.06068C1.32757 8.31402 1.32757 8.68735 1.54757 8.94068L2.79423 10.3607L2.6209 12.2473C2.58757 12.5807 2.81423 12.8873 3.13423 12.9607L4.97423 13.3807L5.93423 15.0007C6.10757 15.2873 6.46757 15.4073 6.77423 15.274L8.5009 14.5207L10.2276 15.2607C10.5342 15.394 10.8942 15.274 11.0609 14.9873L12.0209 13.3673L13.8609 12.9473C14.1876 12.874 14.4076 12.5673 14.3742 12.234L14.2009 10.354L15.4409 8.93402C15.5496 8.81492 15.6104 8.65985 15.6116 8.49863C15.6128 8.33741 15.5544 8.18142 15.4476 8.06068ZM7.3209 10.3873L5.90757 8.97402C5.84585 8.91229 5.79689 8.83902 5.76348 8.75838C5.73008 8.67774 5.71289 8.5913 5.71289 8.50402C5.71289 8.41673 5.73008 8.3303 5.76348 8.24965C5.79689 8.16901 5.84585 8.09574 5.90757 8.03402C5.96929 7.97229 6.04256 7.92333 6.12321 7.88993C6.20385 7.85653 6.29028 7.83934 6.37757 7.83934C6.46485 7.83934 6.55129 7.85653 6.63193 7.88993C6.71257 7.92333 6.78585 7.97229 6.84757 8.03402L7.78757 8.97402L10.1476 6.61402C10.2093 6.55229 10.2826 6.50333 10.3632 6.46993C10.4438 6.43653 10.5303 6.41933 10.6176 6.41933C10.7049 6.41933 10.7913 6.43653 10.8719 6.46993C10.9526 6.50333 11.0258 6.55229 11.0876 6.61402C11.1493 6.67574 11.1982 6.74901 11.2317 6.82965C11.2651 6.9103 11.2822 6.99673 11.2822 7.08402C11.2822 7.1713 11.2651 7.25774 11.2317 7.33838C11.1982 7.41902 11.1493 7.49229 11.0876 7.55402L8.2609 10.3807C8.00757 10.6473 7.5809 10.6473 7.3209 10.3873Z" fill="#F3F6F7"/>
</svg>
