<svg width="13" height="16" viewBox="0 0 13 16" fill="none" xmlns="http://www.w3.org/2000/svg">
<path fill-rule="evenodd" clip-rule="evenodd" d="M0.833886 9.19109V9.0451C0.855303 8.61317 0.993735 8.19467 1.23491 7.83274C1.63634 7.39798 1.91114 6.86521 2.03048 6.29033C2.03048 5.84601 2.03048 5.39534 2.06929 4.95103C2.2698 2.81195 4.38485 1.33301 6.47404 1.33301H6.52578C8.61497 1.33301 10.73 2.81195 10.937 4.95103C10.9758 5.39534 10.937 5.84601 10.9693 6.29033C11.0903 6.86654 11.3648 7.40097 11.7649 7.83909C12.0079 8.19781 12.1465 8.61478 12.1659 9.0451V9.18474C12.1804 9.76504 11.9805 10.3309 11.6032 10.7779C11.1046 11.3007 10.4281 11.6259 9.70161 11.692C7.57133 11.9205 5.42202 11.9205 3.29175 11.692C2.5661 11.623 1.89051 11.2983 1.39014 10.7779C1.01867 10.3305 0.821496 9.76806 0.833886 9.19109Z" stroke="#3340B4" stroke-width="1.5" stroke-linecap="round" stroke-linejoin="round"/>
<path d="M4.86996 13.9014C5.20281 14.3191 5.6916 14.5895 6.22815 14.6527C6.76471 14.7158 7.30478 14.5665 7.72884 14.2378C7.85927 14.1406 7.97663 14.0275 8.07812 13.9014" stroke="#3340B4" stroke-width="1.5" stroke-linecap="round" stroke-linejoin="round"/>
</svg>
