<svg width="152" height="32" viewBox="0 0 152 32" fill="none" xmlns="http://www.w3.org/2000/svg">
<rect width="32" height="32" rx="2" fill="#E0592E"/>
<path d="M7.742 15.764C7.742 14.1493 8.03133 12.8847 8.61 11.97C9.198 11.0553 10.1687 10.598 11.522 10.598C12.8753 10.598 13.8413 11.0553 14.42 11.97C15.008 12.8847 15.302 14.1493 15.302 15.764C15.302 17.388 15.008 18.662 14.42 19.586C13.8413 20.51 12.8753 20.972 11.522 20.972C10.1687 20.972 9.198 20.51 8.61 19.586C8.03133 18.662 7.742 17.388 7.742 15.764ZM13.37 15.764C13.37 15.0733 13.3233 14.4947 13.23 14.028C13.146 13.552 12.9687 13.1647 12.698 12.866C12.4367 12.5673 12.0447 12.418 11.522 12.418C10.9993 12.418 10.6027 12.5673 10.332 12.866C10.0707 13.1647 9.89333 13.552 9.8 14.028C9.716 14.4947 9.674 15.0733 9.674 15.764C9.674 16.4733 9.716 17.0707 9.8 17.556C9.884 18.032 10.0613 18.4193 10.332 18.718C10.6027 19.0073 10.9993 19.152 11.522 19.152C12.0447 19.152 12.4413 19.0073 12.712 18.718C12.9827 18.4193 13.16 18.032 13.244 17.556C13.328 17.0707 13.37 16.4733 13.37 15.764ZM17.4088 18.788C18.3048 18.0413 19.0188 17.4207 19.5508 16.926C20.0828 16.422 20.5261 15.8993 20.8808 15.358C21.2354 14.8167 21.4128 14.2847 21.4128 13.762C21.4128 13.286 21.3008 12.9127 21.0768 12.642C20.8528 12.3713 20.5074 12.236 20.0408 12.236C19.5741 12.236 19.2148 12.3947 18.9628 12.712C18.7108 13.02 18.5801 13.4447 18.5708 13.986H16.6668C16.7041 12.866 17.0354 12.0167 17.6608 11.438C18.2954 10.8593 19.0981 10.57 20.0688 10.57C21.1328 10.57 21.9494 10.8547 22.5188 11.424C23.0881 11.984 23.3728 12.726 23.3728 13.65C23.3728 14.378 23.1768 15.0733 22.7848 15.736C22.3928 16.3987 21.9448 16.9773 21.4408 17.472C20.9368 17.9573 20.2788 18.5453 19.4668 19.236H23.5968V20.86H16.6808V19.404L17.4088 18.788Z" fill="white"/>
<path d="M35.834 21.098C35.4793 21.098 35.1853 20.9907 34.952 20.776C34.728 20.552 34.616 20.2767 34.616 19.95C34.616 19.6233 34.728 19.3527 34.952 19.138C35.1853 18.914 35.4793 18.802 35.834 18.802C36.1793 18.802 36.464 18.914 36.688 19.138C36.912 19.3527 37.024 19.6233 37.024 19.95C37.024 20.2767 36.912 20.552 36.688 20.776C36.464 20.9907 36.1793 21.098 35.834 21.098ZM35.834 15.302C35.4793 15.302 35.1853 15.1947 34.952 14.98C34.728 14.756 34.616 14.4807 34.616 14.154C34.616 13.8273 34.728 13.5567 34.952 13.342C35.1853 13.118 35.4793 13.006 35.834 13.006C36.1793 13.006 36.464 13.118 36.688 13.342C36.912 13.5567 37.024 13.8273 37.024 14.154C37.024 14.4807 36.912 14.756 36.688 14.98C36.464 15.1947 36.1793 15.302 35.834 15.302Z" fill="#E0592E"/>
<rect x="40" width="32" height="32" rx="2" fill="#E0592E"/>
<path d="M49.242 15.764C49.242 14.1493 49.5313 12.8847 50.11 11.97C50.698 11.0553 51.6687 10.598 53.022 10.598C54.3753 10.598 55.3413 11.0553 55.92 11.97C56.508 12.8847 56.802 14.1493 56.802 15.764C56.802 17.388 56.508 18.662 55.92 19.586C55.3413 20.51 54.3753 20.972 53.022 20.972C51.6687 20.972 50.698 20.51 50.11 19.586C49.5313 18.662 49.242 17.388 49.242 15.764ZM54.87 15.764C54.87 15.0733 54.8233 14.4947 54.73 14.028C54.646 13.552 54.4687 13.1647 54.198 12.866C53.9367 12.5673 53.5447 12.418 53.022 12.418C52.4993 12.418 52.1027 12.5673 51.832 12.866C51.5707 13.1647 51.3933 13.552 51.3 14.028C51.216 14.4947 51.174 15.0733 51.174 15.764C51.174 16.4733 51.216 17.0707 51.3 17.556C51.384 18.032 51.5613 18.4193 51.832 18.718C52.1027 19.0073 52.4993 19.152 53.022 19.152C53.5447 19.152 53.9413 19.0073 54.212 18.718C54.4827 18.4193 54.66 18.032 54.744 17.556C54.828 17.0707 54.87 16.4733 54.87 15.764ZM58.0548 12.6V10.794H61.4288V21H59.4128V12.6H58.0548Z" fill="white"/>
<path d="M75.834 21.098C75.4793 21.098 75.1853 20.9907 74.952 20.776C74.728 20.552 74.616 20.2767 74.616 19.95C74.616 19.6233 74.728 19.3527 74.952 19.138C75.1853 18.914 75.4793 18.802 75.834 18.802C76.1793 18.802 76.464 18.914 76.688 19.138C76.912 19.3527 77.024 19.6233 77.024 19.95C77.024 20.2767 76.912 20.552 76.688 20.776C76.464 20.9907 76.1793 21.098 75.834 21.098ZM75.834 15.302C75.4793 15.302 75.1853 15.1947 74.952 14.98C74.728 14.756 74.616 14.4807 74.616 14.154C74.616 13.8273 74.728 13.5567 74.952 13.342C75.1853 13.118 75.4793 13.006 75.834 13.006C76.1793 13.006 76.464 13.118 76.688 13.342C76.912 13.5567 77.024 13.8273 77.024 14.154C77.024 14.4807 76.912 14.756 76.688 14.98C76.464 15.1947 76.1793 15.302 75.834 15.302Z" fill="#E0592E"/>
<rect x="80" width="32" height="32" rx="2" fill="#E0592E"/>
<path d="M89.004 12.6V10.794H92.378V21H90.362V12.6H89.004ZM94.3143 15.764C94.3143 14.1493 94.6036 12.8847 95.1823 11.97C95.7703 11.0553 96.7409 10.598 98.0943 10.598C99.4476 10.598 100.414 11.0553 100.992 11.97C101.58 12.8847 101.874 14.1493 101.874 15.764C101.874 17.388 101.58 18.662 100.992 19.586C100.414 20.51 99.4476 20.972 98.0943 20.972C96.7409 20.972 95.7703 20.51 95.1823 19.586C94.6036 18.662 94.3143 17.388 94.3143 15.764ZM99.9423 15.764C99.9423 15.0733 99.8956 14.4947 99.8023 14.028C99.7183 13.552 99.5409 13.1647 99.2703 12.866C99.0089 12.5673 98.6169 12.418 98.0943 12.418C97.5716 12.418 97.1749 12.5673 96.9043 12.866C96.6429 13.1647 96.4656 13.552 96.3723 14.028C96.2883 14.4947 96.2463 15.0733 96.2463 15.764C96.2463 16.4733 96.2883 17.0707 96.3723 17.556C96.4563 18.032 96.6336 18.4193 96.9043 18.718C97.1749 19.0073 97.5716 19.152 98.0943 19.152C98.6169 19.152 99.0136 19.0073 99.2843 18.718C99.5549 18.4193 99.7323 18.032 99.8163 17.556C99.9003 17.0707 99.9423 16.4733 99.9423 15.764Z" fill="white"/>
<path d="M115.834 21.098C115.479 21.098 115.185 20.9907 114.952 20.776C114.728 20.552 114.616 20.2767 114.616 19.95C114.616 19.6233 114.728 19.3527 114.952 19.138C115.185 18.914 115.479 18.802 115.834 18.802C116.179 18.802 116.464 18.914 116.688 19.138C116.912 19.3527 117.024 19.6233 117.024 19.95C117.024 20.2767 116.912 20.552 116.688 20.776C116.464 20.9907 116.179 21.098 115.834 21.098ZM115.834 15.302C115.479 15.302 115.185 15.1947 114.952 14.98C114.728 14.756 114.616 14.4807 114.616 14.154C114.616 13.8273 114.728 13.5567 114.952 13.342C115.185 13.118 115.479 13.006 115.834 13.006C116.179 13.006 116.464 13.118 116.688 13.342C116.912 13.5567 117.024 13.8273 117.024 14.154C117.024 14.4807 116.912 14.756 116.688 14.98C116.464 15.1947 116.179 15.302 115.834 15.302Z" fill="#E0592E"/>
<rect x="120" width="32" height="32" rx="2" fill="#E0592E"/>
<path d="M134.102 12.488H129.566V14.882C129.762 14.6393 130.042 14.4433 130.406 14.294C130.77 14.1353 131.157 14.056 131.568 14.056C132.315 14.056 132.926 14.2193 133.402 14.546C133.878 14.8727 134.223 15.2927 134.438 15.806C134.653 16.31 134.76 16.8513 134.76 17.43C134.76 18.5033 134.452 19.3667 133.836 20.02C133.229 20.6733 132.361 21 131.232 21C130.168 21 129.319 20.734 128.684 20.202C128.049 19.67 127.69 18.9747 127.606 18.116H129.51C129.594 18.4893 129.781 18.788 130.07 19.012C130.369 19.236 130.747 19.348 131.204 19.348C131.755 19.348 132.17 19.1753 132.45 18.83C132.73 18.4847 132.87 18.0273 132.87 17.458C132.87 16.8793 132.725 16.4407 132.436 16.142C132.156 15.834 131.741 15.68 131.19 15.68C130.798 15.68 130.471 15.778 130.21 15.974C129.949 16.17 129.762 16.4313 129.65 16.758H127.774V10.766H134.102V12.488ZM143.112 12.488H138.576V14.882C138.772 14.6393 139.052 14.4433 139.416 14.294C139.78 14.1353 140.167 14.056 140.578 14.056C141.324 14.056 141.936 14.2193 142.412 14.546C142.888 14.8727 143.233 15.2927 143.448 15.806C143.662 16.31 143.77 16.8513 143.77 17.43C143.77 18.5033 143.462 19.3667 142.846 20.02C142.239 20.6733 141.371 21 140.242 21C139.178 21 138.328 20.734 137.694 20.202C137.059 19.67 136.7 18.9747 136.616 18.116H138.52C138.604 18.4893 138.79 18.788 139.08 19.012C139.378 19.236 139.756 19.348 140.214 19.348C140.764 19.348 141.18 19.1753 141.46 18.83C141.74 18.4847 141.88 18.0273 141.88 17.458C141.88 16.8793 141.735 16.4407 141.446 16.142C141.166 15.834 140.75 15.68 140.2 15.68C139.808 15.68 139.481 15.778 139.22 15.974C138.958 16.17 138.772 16.4313 138.66 16.758H136.784V10.766H143.112V12.488Z" fill="white"/>
</svg>
