<svg width="15" height="11" viewBox="0 0 15 11" fill="none" xmlns="http://www.w3.org/2000/svg">
<path d="M0.213966 5.12217C1.66326 4.38508 3.28106 3.76986 4.79265 3.15152C7.39317 2.13872 10.004 1.14348 12.6412 0.216917C13.1543 0.0590495 14.0763 -0.0953169 14.1667 0.606754C14.1171 1.60057 13.9135 2.58856 13.7739 3.57656C13.4194 5.74925 13.0096 7.9145 12.61 10.08C12.4723 10.8014 11.4937 11.1748 10.8675 10.7132C9.36264 9.77462 7.8462 8.84516 6.36054 7.88483C5.87387 7.42824 6.32516 6.77253 6.75979 6.44648C7.99926 5.31863 9.31372 4.3604 10.4884 3.17427C10.8053 2.46778 9.86903 3.06319 9.56021 3.24564C7.86338 4.32531 6.20808 5.4709 4.41909 6.41978C3.50527 6.88424 2.4402 6.48733 1.5268 6.22816C0.707839 5.91507 -0.49227 5.59963 0.213883 5.12226L0.213966 5.12217Z" fill="#20C4F3"/>
</svg>
