<svg width="17" height="16" viewBox="0 0 17 16" fill="none" xmlns="http://www.w3.org/2000/svg">
<path fill-rule="evenodd" clip-rule="evenodd" d="M2.94434 8.00065C2.94434 7.63246 3.24281 7.33398 3.611 7.33398H14.2777C14.6459 7.33398 14.9443 7.63246 14.9443 8.00065C14.9443 8.36884 14.6459 8.66732 14.2777 8.66732H3.611C3.24281 8.66732 2.94434 8.36884 2.94434 8.00065Z" fill="white"/>
<path fill-rule="evenodd" clip-rule="evenodd" d="M9.1396 2.86225C9.39995 2.6019 9.82206 2.6019 10.0824 2.86225L14.7491 7.52892C15.0094 7.78927 15.0094 8.21138 14.7491 8.47173L10.0824 13.1384C9.82206 13.3987 9.39995 13.3987 9.1396 13.1384C8.87925 12.878 8.87925 12.4559 9.1396 12.1956L13.3349 8.00032L9.1396 3.80506C8.87925 3.54471 8.87925 3.1226 9.1396 2.86225Z" fill="white"/>
</svg>
