<svg width="20" height="20" viewBox="0 0 20 20" fill="none" xmlns="http://www.w3.org/2000/svg">
<path fill-rule="evenodd" clip-rule="evenodd" d="M16.875 10.0002C16.875 9.57833 16.533 9.23633 16.1111 9.23633H3.88889C3.467 9.23633 3.125 9.57833 3.125 10.0002C3.125 10.4221 3.467 10.7641 3.88889 10.7641H16.1111C16.533 10.7641 16.875 10.4221 16.875 10.0002Z" fill="#3340B4"/>
<path fill-rule="evenodd" clip-rule="evenodd" d="M9.77626 4.11241C9.47794 3.81409 8.99428 3.81409 8.69596 4.11241L3.34874 9.45963C3.05042 9.75795 3.05042 10.2416 3.34874 10.5399L8.69596 15.8872C8.99428 16.1855 9.47794 16.1855 9.77626 15.8872C10.0746 15.5888 10.0746 15.1052 9.77626 14.8069L4.96919 9.99978L9.77626 5.19271C10.0746 4.89439 10.0746 4.41073 9.77626 4.11241Z" fill="#3340B4"/>
</svg>
