<svg width="20" height="20" viewBox="0 0 20 20" fill="none" xmlns="http://www.w3.org/2000/svg">
<path d="M13.9457 7.56616C14.033 7.48475 14.1035 7.38692 14.153 7.27828C14.2025 7.16964 14.2302 7.05231 14.2343 6.93298C14.2385 6.81366 14.2191 6.69468 14.1773 6.58284C14.1355 6.471 14.0721 6.36849 13.9907 6.28117C13.9093 6.19384 13.8115 6.1234 13.7028 6.07388C13.5942 6.02435 13.4768 5.99671 13.3575 5.99253C13.2382 5.98835 13.1192 6.00772 13.0074 6.04952C12.8955 6.09132 12.793 6.15475 12.7057 6.23617L10.0457 8.71616L7.5657 6.05526C7.39976 5.8853 7.17389 5.78704 6.93642 5.7815C6.69896 5.77596 6.46875 5.86359 6.29507 6.02562C6.12139 6.18766 6.01803 6.41124 6.0071 6.64853C5.99618 6.88581 6.07855 7.11794 6.23661 7.29526L8.71661 9.95526L6.0557 12.4353C5.96529 12.5158 5.89189 12.6137 5.83982 12.7231C5.78775 12.8324 5.75806 12.9511 5.75249 13.0721C5.74692 13.1931 5.76558 13.3139 5.80738 13.4276C5.84918 13.5413 5.91328 13.6455 5.9959 13.734C6.07853 13.8226 6.17801 13.8938 6.28852 13.9433C6.39903 13.9929 6.51834 14.0199 6.63942 14.0227C6.76051 14.0255 6.88094 14.0041 6.99364 13.9598C7.10634 13.9154 7.20904 13.849 7.2957 13.7643L9.9557 11.2853L12.4357 13.9453C12.5158 14.0373 12.6136 14.1124 12.7233 14.1658C12.8329 14.2193 12.9523 14.2502 13.0741 14.2566C13.196 14.2629 13.3179 14.2447 13.4326 14.203C13.5473 14.1613 13.6524 14.0969 13.7416 14.0137C13.8309 13.9304 13.9025 13.8301 13.9521 13.7186C14.0018 13.6072 14.0285 13.4868 14.0306 13.3648C14.0328 13.2428 14.0104 13.1216 13.9647 13.0085C13.919 12.8953 13.851 12.7925 13.7648 12.7062L11.2857 10.0462L13.9457 7.56616Z" fill="#BAC1FE"/>
<path fill-rule="evenodd" clip-rule="evenodd" d="M0 10C0 4.47727 4.47727 0 10 0C15.5227 0 20 4.47727 20 10C20 15.5227 15.5227 20 10 20C4.47727 20 0 15.5227 0 10ZM10 18.1818C8.92555 18.1818 7.86162 17.9702 6.86895 17.559C5.87629 17.1478 4.97433 16.5452 4.21458 15.7854C3.45483 15.0257 2.85216 14.1237 2.44099 13.131C2.02981 12.1384 1.81818 11.0745 1.81818 10C1.81818 8.92555 2.02981 7.86162 2.44099 6.86895C2.85216 5.87629 3.45483 4.97433 4.21458 4.21458C4.97433 3.45483 5.87629 2.85216 6.86895 2.44099C7.86162 2.02981 8.92555 1.81818 10 1.81818C12.17 1.81818 14.251 2.68019 15.7854 4.21458C17.3198 5.74897 18.1818 7.83005 18.1818 10C18.1818 12.17 17.3198 14.251 15.7854 15.7854C14.251 17.3198 12.17 18.1818 10 18.1818Z" fill="#BAC1FE"/>
</svg>
