<svg width="92" height="87" viewBox="0 0 92 87" fill="none" xmlns="http://www.w3.org/2000/svg">
<path fill-rule="evenodd" clip-rule="evenodd" d="M61.6366 71.4195C61.6366 71.4195 68.5252 77.2276 70.7658 80.3819C73.0064 83.5362 74.5823 86.1079 75.496 86.3568C76.4097 86.6058 79.5615 84.532 80.144 83.9494C80.7241 83.3694 79.8951 82.0399 79.8951 82.0399C79.8951 82.0399 76.4918 77.8898 75.9118 76.065C75.3317 74.2401 75.5807 72.8285 75.5807 72.8285C75.5807 72.8285 68.8588 69.6743 65.7046 70.7547C62.5503 71.8327 62.5503 71.8327 62.5503 71.8327L61.6366 71.417V71.4195Z" fill="#E08695"/>
<path fill-rule="evenodd" clip-rule="evenodd" d="M55.5797 65.7749C55.5797 65.7749 54.9149 67.8487 59.065 70.0072C63.2152 72.1656 66.9495 70.8362 66.9495 70.8362C66.9495 70.8362 69.5212 73.7415 72.8423 73.6569C76.1609 73.5747 76.6588 73.0768 76.6588 73.0768C76.6588 73.0768 87.0328 73.4079 92.012 71.0851C96.9911 68.7624 98.2359 65.5259 98.4848 64.1965C98.7338 62.8696 99.7296 61.458 99.7296 61.458C99.7296 61.458 92.9256 52.4134 74.7518 56.9768C56.578 61.5402 55.8311 64.4455 55.8311 64.4455L55.5821 65.7724L55.5797 65.7749Z" fill="#E08695"/>
<path fill-rule="evenodd" clip-rule="evenodd" d="M25.2068 47.8508C25.2068 47.8508 11.93 51.1694 4.54344 40.2999C-2.84311 29.428 4.79239 14.5753 4.79239 14.5753C4.79239 14.5753 9.02466 3.53902 22.4683 -2.6849C35.912 -8.90881 47.5308 -9.57353 47.5308 -9.57353C47.5308 -9.57353 66.2847 -13.1411 80.9731 -5.25911C95.6616 2.62535 98.649 8.51566 98.649 8.51566C98.649 8.51566 107.529 15.4864 112.093 29.5102C116.656 43.5339 113.586 54.4058 107.445 59.4671C101.303 64.5284 94.1678 58.8024 90.5156 58.0555C86.8634 57.3087 78.5657 59.4671 78.5657 59.4671L65.9511 61.1277C65.9511 61.1277 57.0708 66.7715 45.9524 66.5226C34.8315 66.2736 29.5213 62.1235 29.5213 62.1235C29.5213 62.1235 26.2027 56.3153 25.8691 52.1652C25.538 48.0151 25.2043 47.8508 25.2043 47.8508H25.2068Z" fill="url(#paint0_linear)"/>
<path fill-rule="evenodd" clip-rule="evenodd" d="M32.2598 59.2205C32.2598 59.2205 32.0109 60.3831 35.4141 62.208C38.8173 64.0328 45.2902 65.2776 52.9232 63.4528C60.5587 61.6279 60.8077 60.1342 60.8898 59.3873C60.972 58.6404 60.6409 57.9757 60.6409 57.9757L61.3056 56.1509C61.3056 56.1509 62.0524 59.0562 67.2805 58.9715C72.5086 58.8894 75.165 58.8047 75.7451 57.2288C76.3251 55.6529 75.8272 55.3193 75.8272 55.3193C75.8272 55.3193 80.5574 57.3931 79.1458 58.4736C77.7342 59.5516 66.7801 61.13 65.7022 61.4611C64.6242 61.7922 56.7397 67.0203 44.9566 66.856C33.1735 66.6892 29.1902 61.7947 29.1902 61.7947L28.6923 58.6404L32.2598 59.2205Z" fill="#E08695"/>
<path fill-rule="evenodd" clip-rule="evenodd" d="M32.8425 50.8377C32.8425 50.8377 30.1862 51.2535 30.104 50.5888C30.0218 49.9241 31.9289 48.9282 33.5894 48.7639C35.2499 48.5971 35.4142 47.437 35.9122 45.7764C36.4101 44.1159 36.079 44.6985 38.5685 43.2047C41.0581 41.711 42.634 38.8057 42.634 38.8057C42.634 38.8057 42.0539 43.0379 39.9776 44.3649C37.9038 45.6918 37.1569 47.5191 37.1569 47.5191L35.9122 52.0004L34.0027 50.8377H32.84H32.8425Z" fill="#E08695"/>
<path fill-rule="evenodd" clip-rule="evenodd" d="M57.3225 50.838C57.3225 50.838 57.7383 54.7391 56.1599 55.6503C54.584 56.564 51.014 57.4751 51.014 57.4751L46.366 58.471C46.366 58.471 48.3576 56.5615 51.014 55.4835C53.6704 54.4055 55.1641 54.9856 55.662 52.8271C56.1599 50.6687 57.9026 49.0928 57.9026 49.0928L57.3225 50.8355V50.838Z" fill="#E08695"/>
<path fill-rule="evenodd" clip-rule="evenodd" d="M47.6951 40.7969C47.6951 40.7969 46.6993 45.0291 48.8577 45.0291C51.0162 45.0291 52.1763 42.0417 52.1763 42.0417C52.1763 42.0417 51.0983 48.1834 48.8577 47.9345C46.6171 47.6855 46.3682 45.1138 46.3682 45.1138L46.6993 43.2043L47.6951 40.7969Z" fill="#E08695"/>
<path fill-rule="evenodd" clip-rule="evenodd" d="M63.3796 40.051C63.3796 40.051 61.139 41.4625 64.1265 42.9563C67.114 44.45 68.8567 45.777 69.5214 46.6085C70.1861 47.4375 70.4351 48.0201 70.4351 48.0201C70.4351 48.0201 66.4518 46.4442 64.2933 45.5305C62.1349 44.6168 59.1474 42.8741 60.3922 41.3804C61.6369 39.8867 62.3838 39.6377 62.3838 39.6377L63.3796 40.0535V40.051Z" fill="#E08695"/>
<path fill-rule="evenodd" clip-rule="evenodd" d="M85.7034 48.8462C85.7034 48.8462 82.7159 49.4263 80.1442 50.1732C77.5724 50.9201 72.5087 48.6794 72.5087 48.6794C72.5087 48.6794 75.8273 49.6753 79.4795 47.9326C83.1316 46.1899 86.3681 47.7658 86.3681 47.7658L85.7034 48.8438V48.8462Z" fill="#E08695"/>
<path fill-rule="evenodd" clip-rule="evenodd" d="M57.9024 49.5106C57.9024 49.5106 57.7356 51.4201 59.8119 52.4981C61.8857 53.576 63.2973 52.4159 64.211 51.669C65.1247 50.9222 66.6184 49.9263 66.6184 49.9263C66.6184 49.9263 65.0425 52.3337 66.9495 53.4117C68.859 54.4897 73.0913 51.2533 75.3319 52.3337C77.5725 53.4117 80.56 55.9013 86.3681 54.9055C92.1763 53.9096 93.4211 51.7512 93.3389 50.0085C93.2568 48.2658 92.7589 45.8584 92.2609 45.2783C91.763 44.6982 91.763 44.6982 91.763 44.6982L93.7547 45.1962C93.7547 45.1962 95.4152 51.5869 94.0858 54.2408C92.7588 56.8971 85.7034 59.1377 82.0537 57.9751C78.4015 56.8125 74.834 53.9096 72.4266 54.4897C70.0192 55.0698 68.6922 56.2324 66.7006 55.6523C64.7089 55.0723 63.6309 54.4897 63.6309 54.4897C63.6309 54.4897 61.7214 55.2366 59.1497 54.6565C56.578 54.0764 57.0759 52.0001 57.0759 52.0001L57.9049 49.5106H57.9024Z" fill="#E08695"/>
<path fill-rule="evenodd" clip-rule="evenodd" d="M9.02465 40.5479C9.02465 40.5479 9.2736 42.6217 12.2611 43.5353C15.2486 44.449 16.4933 44.2822 16.4933 44.2822C16.4933 44.2822 15.3307 45.1112 18.734 46.4407C22.1372 47.7676 25.9537 46.2739 25.9537 46.2739C25.9537 46.2739 19.4808 49.7592 16.1622 48.0165C12.8436 46.2739 12.9258 46.2739 12.9258 46.2739C12.9258 46.2739 8.19562 44.7801 6.95084 43.0374C5.70605 41.2947 5.70605 40.879 5.70605 40.879L9.02465 40.5479Z" fill="#E08695"/>
<path fill-rule="evenodd" clip-rule="evenodd" d="M4.4612 29.3457C4.4612 29.3457 3.88113 35.4028 6.86861 36.9812C9.85609 38.5571 12.5946 36.5654 12.5946 36.5654C12.5946 36.5654 13.4236 40.8799 20.3944 41.2956C27.3652 41.7114 32.8423 35.7364 32.8423 35.7364L34.8339 36.2343L28.361 43.5362C28.361 43.5362 20.4766 45.2789 16.7422 42.8715C13.0079 40.4641 12.3432 39.1372 12.3432 39.1372C12.3432 39.1372 7.53084 41.8757 4.95663 39.4683C2.38491 37.0609 3.54504 31.6685 3.54504 31.6685L4.45871 29.3457H4.4612Z" fill="#E08695"/>
<path fill-rule="evenodd" clip-rule="evenodd" d="M28.4434 31.3367C28.4434 31.3367 32.5088 36.5648 35.332 33.2462C38.1527 29.9276 38.0705 23.3701 38.0705 23.3701C38.0705 23.3701 35.4142 30.8388 33.5893 31.5035C31.7645 32.1682 26.7007 29.6787 26.7007 29.6787L28.4434 31.3392V31.3367Z" fill="#E08695"/>
<path fill-rule="evenodd" clip-rule="evenodd" d="M38.8172 29.4273C38.8172 29.4273 37.9036 32.7459 38.984 32.4148C40.062 32.0837 42.4694 31.2522 44.6279 32.0837C46.7863 32.9127 49.027 29.263 49.607 28.2672C50.1871 27.2713 46.8685 22.9569 48.1954 16.6484C49.5224 10.3423 53.2567 8.51495 56.162 7.51912C59.0674 6.52329 60.8101 5.77642 60.8101 4.20053C60.8101 2.62463 60.8101 2.70679 60.8101 2.70679C60.8101 2.70679 62.6349 6.93905 60.9769 7.76807C59.3163 8.5971 51.9323 12.3314 51.1008 17.9753C50.2717 23.6191 51.9298 26.8556 51.9298 26.8556L52.2609 28.5983L48.1108 35.3201C48.1108 35.3201 42.3848 34.5732 40.8089 34.9043C39.233 35.2355 37.3235 35.4023 36.4945 34.5732C35.6655 33.7442 35.5808 33.1616 35.5808 33.1616L36.7434 31.2522L38.8172 29.4273Z" fill="#E08695"/>
<path fill-rule="evenodd" clip-rule="evenodd" d="M63.2972 16.731C63.2972 16.731 61.3877 19.1384 61.6367 22.0413C61.8856 24.9466 56.1596 28.183 55.4949 27.4361C54.8302 26.6893 54.5813 25.8602 54.5813 25.8602C54.5813 25.8602 52.6718 25.4445 51.6759 23.1217C50.6801 20.799 50.9291 20.2164 50.9291 20.2164C50.9291 20.2164 50.598 24.6976 51.427 26.2735C52.256 27.8494 52.3406 27.8494 52.3406 27.8494C52.3406 27.8494 51.0137 31.9149 52.1738 32.4974C53.3365 33.0775 57.4841 29.5099 60.8052 28.3473C64.1238 27.1847 64.7063 25.5266 64.3727 23.7839C64.0416 22.0413 63.3769 20.1318 63.3769 20.1318L63.2947 16.7285L63.2972 16.731Z" fill="#E08695"/>
<path fill-rule="evenodd" clip-rule="evenodd" d="M79.3972 14.4902C79.3972 14.4902 78.3192 18.3067 76.6587 21.6278C74.9981 24.9464 68.361 26.109 66.3693 24.8643C64.3777 23.6195 63.6308 21.1299 63.6308 21.1299L63.3818 16.8976C63.3818 16.8976 64.7934 22.0436 69.19 22.1257C73.5891 22.2079 74.7492 21.2967 75.5807 18.8893C76.4097 16.4819 78.486 14.5749 78.486 14.5749L79.3997 14.4927L79.3972 14.4902Z" fill="#E08695"/>
<path fill-rule="evenodd" clip-rule="evenodd" d="M88.6087 9.18022C88.6087 9.18022 89.8535 15.4863 84.7922 26.0271C79.7309 36.5655 79.0662 37.397 70.6838 37.2302C62.3015 37.0634 61.7214 38.3081 59.8119 38.0592C57.9024 37.8102 52.0942 37.977 52.0942 37.977L59.9787 40.2176C59.9787 40.2176 64.211 39.1397 69.8548 38.9729C75.4987 38.8061 78.2372 39.6376 81.2247 36.9812C84.2121 34.3248 87.3664 26.4429 88.6934 22.3749C90.0203 18.3095 90.0203 11.254 90.0203 11.254L89.4402 9.59349L88.6112 9.17773L88.6087 9.18022Z" fill="#E08695"/>
<path fill-rule="evenodd" clip-rule="evenodd" d="M82.6338 38.3902C82.6338 38.3902 84.7922 41.9577 91.2651 42.2067C97.738 42.4556 98.9828 40.7951 98.9828 40.7951C98.9828 40.7951 98.4027 44.1983 91.0161 44.6116C83.6296 45.0274 81.4736 41.542 81.4736 41.542L82.6363 38.3877L82.6338 38.3902Z" fill="#E08695"/>
<path fill-rule="evenodd" clip-rule="evenodd" d="M88.9398 25.6934C88.9398 25.6934 90.8493 31.8351 95.7437 31.6683C100.641 31.5015 102.383 25.6934 102.383 25.6934C102.383 25.6934 103.628 32.9131 96.7396 33.9911C89.8509 35.0691 88.6908 27.934 88.6908 27.934L88.9398 25.6934Z" fill="#E08695"/>
<path fill-rule="evenodd" clip-rule="evenodd" d="M58.2362 15.8169C58.2362 15.8169 58.9831 13.1605 62.8842 11.4179C66.7854 9.67515 67.4476 11.0867 69.1081 9.34404C70.7687 7.60135 71.4309 6.35656 70.8508 5.11178C70.2708 3.867 70.1861 3.7002 70.1861 3.7002C70.1861 3.7002 73.7537 5.94081 72.0956 8.59717C70.4351 11.2535 68.1123 13.6585 68.1123 13.6585C68.1123 13.6585 66.2875 12.2469 62.7174 13.1605C59.1499 14.0742 58.2362 15.8169 58.2362 15.8169Z" fill="#E08695"/>
<path fill-rule="evenodd" clip-rule="evenodd" d="M15.4977 28.2652C15.4977 28.2652 14.9997 29.4278 11.3475 29.8411C7.69535 30.2568 6.94849 28.9274 6.94849 28.9274C6.94849 28.9274 8.44222 31.6659 12.0098 31.4991C15.5773 31.3323 17.7358 29.5075 17.7358 29.5075L16.4088 28.2627H15.4952L15.4977 28.2652Z" fill="#E08695"/>
<path fill-rule="evenodd" clip-rule="evenodd" d="M39.8131 10.1758C39.8131 10.1758 42.8827 13.4944 41.9716 15.9018C41.0579 18.3092 37.6571 18.8893 36.8256 19.8029C35.9966 20.7166 34.6672 22.7083 30.4349 23.4551C26.2026 24.202 24.2932 23.7862 22.8841 26.1936C21.4725 28.6011 16.329 29.0143 14.9996 27.6874C13.6727 26.3605 13.5059 25.7779 13.5059 25.7779C13.5059 25.7779 17.3224 27.5206 19.8119 25.5289C22.3015 23.5373 22.7173 20.9656 26.8649 21.4635C31.015 21.9614 32.7577 20.6344 35.1626 18.1449C37.57 15.6553 39.477 16.7333 39.8106 14.7416C40.1417 12.75 39.8928 11.3384 39.8928 11.3384L39.8106 10.1758H39.8131Z" fill="#E08695"/>
<path fill-rule="evenodd" clip-rule="evenodd" d="M37.239 6.2748C37.239 6.2748 39.5618 8.76436 41.4713 7.68638C43.3808 6.6084 41.0555 6.27479 42.5493 3.28732C44.043 0.299836 44.7077 -0.031276 44.7899 -1.52502C44.872 -3.01876 44.872 -3.76562 44.872 -3.76562C44.872 -3.76562 45.8679 -1.10926 45.0388 1.62926C44.2098 4.36779 44.9567 6.19264 44.7899 7.68638C44.6231 9.18012 42.5493 11.2539 40.4754 10.1759C38.4016 9.09796 37.9037 7.43742 37.9037 7.43742L37.239 6.2748Z" fill="#E08695"/>
<path fill-rule="evenodd" clip-rule="evenodd" d="M21.5547 9.34395C21.5547 9.34395 23.8775 7.93237 27.5296 9.42611C31.1818 10.9198 30.8482 11.7489 33.0067 11.8335C35.1651 11.9157 36.3253 11.0045 36.3253 11.0045C36.3253 11.0045 34.9137 12.9961 32.093 13.9098C29.2723 14.8235 30.2682 12.3339 26.5338 12.1671C22.7995 12.0003 22.1348 12.914 22.1348 12.914L21.5547 9.34644V9.34395Z" fill="#E08695"/>
<path fill-rule="evenodd" clip-rule="evenodd" d="M95.1638 5.85894C95.1638 5.85894 94.997 7.93274 91.7605 7.60163C88.5241 7.27052 86.0345 6.19005 86.0345 6.19005L89.7689 10.0066C89.7689 10.0066 92.5074 9.7576 94.4169 9.7576C96.3264 9.7576 96.9065 9.42648 96.2418 7.8481C95.5771 6.2722 95.1638 5.85645 95.1638 5.85645V5.85894Z" fill="#E08695"/>
<path fill-rule="evenodd" clip-rule="evenodd" d="M81.1399 -4.59766C81.1399 -4.59766 82.3026 -2.52385 79.9773 -2.68816C77.6546 -2.85496 75.994 -3.01927 75.994 -3.01927C75.994 -3.01927 79.7284 0.050364 82.2179 -1.10977C84.7075 -2.2724 82.1358 -4.17941 82.1358 -4.17941L81.1399 -4.59517V-4.59766Z" fill="#E08695"/>
<path fill-rule="evenodd" clip-rule="evenodd" d="M61.3878 3.28685L57.1555 0.797283C57.1555 0.797283 58.8982 1.462 61.7189 -0.365344C64.5396 -2.1902 64.0417 -2.5238 67.8607 -3.27067C71.6772 -4.01754 70.517 -6.00919 70.517 -6.00919C70.517 -6.00919 73.5867 -5.76023 73.4223 -6.58926C73.2556 -7.41828 73.1734 -7.50293 73.1734 -7.50293C73.1734 -7.50293 76.243 -6.92286 74.9161 -5.59343C73.5891 -4.26649 72.5933 -4.43081 72.5933 -4.43081C72.5933 -4.43081 73.4223 -2.77026 69.0258 -1.36117C64.6267 0.0504136 63.6309 0.299371 62.5529 1.87527C61.4749 3.45116 61.3903 3.28685 61.3903 3.28685H61.3878Z" fill="#E08695"/>
<path fill-rule="evenodd" clip-rule="evenodd" d="M74.0025 5.77653L71.5129 4.03384C71.5129 4.03384 72.093 3.20481 75.663 3.20481C79.2306 3.20481 80.1443 3.95168 81.389 3.20481C82.6338 2.45794 83.2139 2.20898 83.2139 2.20898C83.2139 2.20898 83.0471 3.86952 79.4796 4.44959C75.912 5.02966 73.9204 6.44125 74.0025 5.77653Z" fill="#E08695"/>
<path fill-rule="evenodd" clip-rule="evenodd" d="M45.2904 7.27008C45.2904 7.27008 45.9551 8.43271 48.7758 6.93897C51.5965 5.44523 53.0902 2.04199 53.0902 2.04199C53.0902 2.04199 48.609 5.27843 46.6174 5.52738C44.6257 5.77634 44.8747 4.03365 44.8747 4.03365C44.8747 4.03365 44.3768 4.86267 44.7079 6.1921C45.039 7.51904 45.2879 7.27008 45.2879 7.27008H45.2904Z" fill="#E08695"/>
<path fill-rule="evenodd" clip-rule="evenodd" d="M13.6727 19.3874C13.6727 19.3874 11.8478 18.6405 9.68939 21.9591C7.53094 25.2777 8.44461 26.6071 8.44461 26.6071C8.44461 26.6071 11.101 23.3707 13.2569 22.3749C15.4154 21.379 15.7465 21.379 15.7465 21.379L13.6727 19.3874Z" fill="#E08695"/>
<path fill-rule="evenodd" clip-rule="evenodd" d="M24.8758 49.7598C24.8758 49.7598 12.6769 51.5025 6.20406 44.0338C-0.268808 36.5651 0.395906 25.7778 2.30291 19.2203C4.21241 12.6653 5.87047 8.34836 15.9134 0.381752C25.9538 -7.58486 41.9717 -11.2371 58.6518 -10.9881C75.3318 -10.7391 87.8618 -4.43307 98.7338 6.93678C109.606 18.3066 115.332 31.0856 115.165 42.5376C114.998 53.9896 110.766 58.7198 106.12 61.2093C101.472 63.6989 99.2317 62.3719 99.2317 62.3719C99.2317 62.3719 90.685 58.3065 85.8702 59.2177C81.0578 60.1313 81.7201 60.2956 77.3235 60.6292C72.9244 60.9604 71.0996 60.1313 59.1497 65.2773C47.1997 70.4232 31.7644 66.1909 29.1927 63.2035C26.621 60.216 26.372 57.5596 26.621 55.7348C26.8699 53.9099 27.2857 53.7431 27.2857 53.7431C27.2857 53.7431 28.6126 56.8128 31.0201 58.2243C33.4275 59.6359 34.7544 59.5513 34.7544 59.5513C34.7544 59.5513 33.6764 59.7181 31.7669 59.4691C29.8574 59.2202 29.8574 59.6359 30.5221 61.2118C31.1869 62.7877 37.6597 66.5221 47.5333 66.1088C57.4095 65.693 63.5487 60.9629 67.2009 60.3828C70.8531 59.8027 77.8239 59.4691 78.3218 58.2243C78.8197 56.9796 76.7459 55.319 76.7459 55.319C76.7459 55.319 79.3176 57.3928 85.5415 57.1439C91.7655 56.8949 92.5123 55.0701 93.5082 53.9074C94.504 52.7448 94.4218 50.8378 94.4218 50.8378L95.1687 50.9199C95.1687 50.9199 95.4177 53.4095 94.1729 55.2344C92.9281 57.0592 93.7571 58.6376 96.9114 59.7977C100.066 60.9604 107.368 60.1289 108.861 57.3082C110.355 54.4875 107.866 54.1539 107.866 54.1539C107.866 54.1539 111.518 53.407 111.767 50.7507C112.016 48.0943 110.024 46.5184 110.024 46.5184C110.024 46.5184 112.596 48.6768 113.26 47.2653C113.925 45.8537 113.591 42.204 111.684 40.9592C109.775 39.7144 107.701 39.6323 107.701 39.6323L107.121 38.5543L107.868 37.8074C107.868 37.8074 112.349 40.1302 112.765 39.0522C113.181 37.9742 112.018 29.5918 110.691 29.0939C109.364 28.596 107.786 31.0856 107.786 31.0856L106.623 31.4167C106.623 31.4167 110.191 28.4292 109.031 24.1969C107.868 19.9647 104.383 19.7157 102.227 23.119C100.068 26.5222 98.3255 28.0981 95.8359 25.2774C93.3464 22.4567 95.0069 20.4651 93.8443 18.5556C92.6816 16.6461 92.6816 16.6461 92.6816 16.6461C92.6816 16.6461 94.4243 17.393 95.089 18.6377C95.7538 19.8825 95.7538 20.3804 95.7538 20.3804C95.7538 20.3804 98.0765 19.9647 98.3255 18.222C98.5744 16.4793 98.0765 14.7366 98.0765 14.7366C98.0765 14.7366 100.068 17.6419 98.6566 19.6336C97.245 21.6252 96.2492 21.8742 96.0849 22.87C95.9181 23.8658 97.6608 26.7712 99.8192 24.4459C101.978 22.1231 101.313 20.0468 102.309 19.6336C103.305 19.2178 106.125 19.4668 105.545 18.0577C104.965 16.6461 102.807 12.3317 99.4035 11.5026C96.0002 10.6736 95.5023 11.5026 94.1754 10.5068C92.8484 9.51099 90.8568 10.2579 90.441 10.9226C90.0253 11.5873 90.0253 11.5873 90.0253 11.5873L89.4452 9.34668C89.4452 9.34668 94.7554 9.67779 95.338 8.93092C95.9181 8.18405 95.4202 6.69031 94.1754 5.27873C92.9306 3.86714 89.861 0.466397 88.2004 0.630709C86.5399 0.797509 86.2909 4.19826 86.2909 4.19826C86.2909 4.19826 85.6262 3.53354 85.793 1.04398C85.9598 -1.44559 86.2909 -2.27462 85.2129 -2.19246C84.135 -2.1103 82.3076 -0.118651 80.5649 -0.282963C78.8222 -0.449763 77.3285 -2.35677 77.3285 -2.35677C77.3285 -2.35677 80.2338 -0.614075 82.1408 -1.52775C84.0503 -2.44142 82.3898 -4.34842 79.4844 -4.76418C76.5791 -5.17994 73.6763 -4.09947 73.6763 -4.09947C73.6763 -4.09947 76.6638 -5.76001 73.5941 -7.08695C70.5245 -8.41389 66.9545 -6.50688 65.7097 -6.50688C64.4649 -6.50688 62.9711 -6.58903 62.9711 -6.58903C62.9711 -6.58903 65.4607 -7.00479 65.5429 -8.16493C65.625 -9.32756 61.5596 -10.0744 56.7472 -9.74083C51.9349 -9.40971 51.1034 -8.32924 50.5233 -6.92015C49.9433 -5.50856 50.5233 -4.84634 50.5233 -4.84634C50.5233 -4.84634 49.5275 -6.00897 49.2785 -7.25375C49.0296 -8.49853 47.1201 -8.91429 45.6263 -7.25375C44.1326 -5.59321 43.7168 -4.43307 43.7168 -4.43307C43.7168 -4.43307 42.97 -5.09778 40.4804 -4.84883C37.9908 -4.59987 37.4108 -3.93516 37.4108 -3.93516C37.4108 -3.93516 39.6514 -5.67785 41.4762 -6.09361C43.3011 -6.50937 43.3011 -6.50937 43.3011 -6.50937C43.3011 -6.50937 44.4637 -7.75415 43.8812 -8.41887C43.3011 -9.08358 37.9884 -7.58984 34.0897 -6.42721C30.1885 -5.26459 30.0242 -3.85549 30.0242 -3.85549L29.9421 -2.61071L27.6193 -0.950167C27.6193 -0.950167 29.5288 -4.0198 28.7819 -4.68452C28.0351 -5.34923 23.636 -2.27711 22.8891 -1.44808C22.1423 -0.619055 16.0852 1.45724 13.4288 3.94681C10.7724 6.43638 11.2703 8.09692 12.5151 7.2654C13.7599 6.43637 14.9225 4.94264 17.0785 4.11112C19.2369 3.2821 19.8992 3.61321 19.8992 3.61321C19.8992 3.61321 15.9159 4.85799 14.92 6.51853C13.9242 8.17907 13.9242 8.17907 13.9242 8.17907C13.9242 8.17907 10.1077 8.75914 7.12023 13.076C4.13275 17.3905 7.45133 17.8884 7.45133 17.8884L6.1244 19.5489C6.1244 19.5489 5.45968 17.3083 4.3817 18.6353C3.30372 19.9622 2.55685 23.8633 2.30789 27.6798C2.05894 31.4963 2.63901 31.332 2.63901 31.332L3.55268 31.8299C3.55268 31.8299 3.13692 36.3112 5.62649 40.2945C8.11605 44.2778 9.11187 44.3599 12.2662 44.6935C15.4204 45.0247 16.0005 44.6114 16.0005 44.6114C16.0005 44.6114 13.6777 45.2761 15.0047 46.5209C16.3316 47.7657 21.7265 47.8478 23.8003 47.101C25.8741 46.3541 26.9546 43.9467 26.9546 43.9467C26.9546 43.9467 34.0922 35.9801 38.7377 34.5685C43.3857 33.1569 45.9575 35.1485 47.7002 34.1527C49.4428 33.1569 48.447 33.9859 50.1897 31.2474C51.9324 28.5089 51.6835 27.762 51.1034 26.2683C50.5233 24.7745 53.344 27.4309 53.344 27.4309C53.344 27.4309 51.6013 30.5852 52.266 31.6631C52.9307 32.7411 56.0004 29.3404 59.4858 27.5977C62.9711 25.855 63.8848 24.2791 63.3023 22.7854C62.7222 21.2916 62.4732 20.129 62.6376 18.3041C62.8044 16.4793 63.8002 15.3167 63.8002 15.3167C63.8002 15.3167 62.9711 19.1332 64.547 21.7074C66.1229 24.2791 69.8573 25.7728 73.6763 23.3679C77.4928 20.9605 76.248 19.3846 77.1617 16.9772C78.0753 14.5698 80.3981 13.4918 80.3981 13.4918C80.3981 13.4918 78.3243 15.4013 78.2397 18.8021C78.1575 22.2053 74.0074 25.7728 74.0074 25.7728C74.0074 25.7728 75.3343 26.5197 76.0812 28.6782C76.8281 30.8366 76.248 31.2499 76.248 31.2499C76.248 31.2499 74.7543 27.0998 71.1867 27.0998C67.6192 27.0998 64.3827 27.0998 62.3911 28.0956C60.3994 29.0914 54.8402 33.3237 53.0975 34.5685C51.3548 35.8133 49.1964 37.2248 49.1964 37.2248C49.1964 37.2248 43.7193 33.7394 38.4091 36.6448C33.0988 39.5501 27.7861 45.4404 27.2882 48.1789C26.7903 50.9175 24.8808 49.7548 24.8808 49.7548L24.8758 49.7598Z" fill="#78161D"/>
<path fill-rule="evenodd" clip-rule="evenodd" d="M30.7659 51.0871C30.7659 51.0871 34.5824 50.1735 35.5782 52.9966C36.574 55.8173 36.3251 57.1467 38.0678 59.3874C39.8105 61.628 39.3947 63.7864 39.3947 63.7864C39.3947 63.7864 40.4727 61.8769 42.0511 61.8769C43.627 61.8769 46.0344 61.8769 46.0344 61.8769C46.0344 61.8769 41.471 62.208 38.8146 57.4779C36.1583 52.7477 37.652 46.4416 39.0636 45.4458C40.4752 44.45 41.9689 43.7852 42.4668 41.6293C42.9647 39.4708 42.7979 39.3887 42.7979 39.3887C42.7979 39.3887 42.1332 42.6251 39.8105 43.7877C37.4877 44.9504 37.5699 45.2815 36.6562 48.1868C35.7425 51.0921 35.8272 51.3411 34.8313 50.6764C33.8355 50.0117 30.7659 51.0921 30.7659 51.0921V51.0871Z" fill="#78161D"/>
<path fill-rule="evenodd" clip-rule="evenodd" d="M42.716 53.4945C42.716 53.4945 43.794 51.6697 45.6213 51.1718C47.4462 50.6738 47.613 49.0133 47.0329 48.1843C46.4528 47.3553 44.2944 46.5237 46.1192 41.5446C47.9441 36.5655 45.7881 35.8186 43.8786 35.4029C41.9691 34.9871 41.9691 34.9871 41.9691 34.9871L53.2543 33.6602C53.2543 33.6602 51.0137 34.5738 47.9441 41.0467C44.8744 47.5196 49.1067 48.1843 50.2668 46.1926C51.4295 44.201 51.4295 43.372 51.4295 43.372C51.4295 43.372 51.7606 45.1146 50.6826 47.1885C49.6046 49.2623 48.7731 49.5959 48.8577 51.005C48.9399 52.4165 51.6784 53.5767 51.6784 53.5767C51.6784 53.5767 49.6046 53.4099 48.5241 52.5809C47.4462 51.7518 45.8678 51.585 44.623 52.3319C43.3782 53.0788 42.7135 53.4945 42.7135 53.4945H42.716Z" fill="#78161D"/>
<path fill-rule="evenodd" clip-rule="evenodd" d="M53.0082 38.1407C53.0082 38.1407 58.7342 40.0502 60.0611 44.1157C61.3881 48.1811 60.3101 51.5022 60.3101 51.5022C60.3101 51.5022 61.2237 45.6094 64.3755 46.4409C67.5298 47.2699 69.2725 47.6857 69.2725 47.6857C69.2725 47.6857 67.9456 46.2741 64.5423 45.0293C61.1391 43.7846 60.6412 42.2087 62.2196 40.7971C63.7955 39.3855 72.1778 38.8054 72.1778 38.8054C72.1778 38.8054 66.6186 38.1407 63.2154 38.8876C59.8122 39.6344 61.0569 39.8012 57.6562 38.8054C54.253 37.8096 53.0082 38.1407 53.0082 38.1407Z" fill="#78161D"/>
<path fill-rule="evenodd" clip-rule="evenodd" d="M58.2359 48.8457C58.2359 48.8457 56.4932 50.8374 56.4932 52.7469C56.4932 54.6564 56.909 55.6522 53.09 56.399C49.2735 57.1459 46.3682 58.6397 46.3682 58.6397C46.3682 58.6397 51.4294 57.8928 51.9274 60.0512C52.4253 62.2097 51.3473 63.3698 51.3473 63.3698C51.3473 63.3698 52.5921 62.2072 52.9232 60.0512C53.2543 57.8928 54.4169 57.5617 55.3306 56.897C56.2443 56.2322 59.3139 56.0679 59.3139 56.0679C59.3139 56.0679 59.8118 57.4795 62.0524 59.3865C64.293 61.296 69.19 61.1292 69.19 61.1292L71.7617 60.3824C71.7617 60.3824 65.2889 61.545 62.6325 58.3907C59.9761 55.2364 64.0441 55.57 65.62 56.3169C67.1959 57.0638 68.6896 57.2306 71.5949 55.57C74.5003 53.9095 78.6479 57.5617 78.6479 57.5617L83.2113 57.3949C83.2113 57.3949 79.1458 56.8148 76.3226 54.7385C73.5019 52.6647 71.6746 53.9916 69.6008 54.9875C67.527 55.9833 65.2017 54.4895 64.9528 53.4937C64.7038 52.4979 65.8664 50.7552 65.8664 50.7552C65.8664 50.7552 64.4549 52 63.6258 53.4937C62.7968 54.9875 58.3156 54.6564 57.733 53.3269C57.153 52 58.2309 48.8457 58.2309 48.8457H58.2359Z" fill="#78161D"/>
<path fill-rule="evenodd" clip-rule="evenodd" d="M73.9202 49.5111C73.9202 49.5111 76.4919 51.4206 79.3151 51.1716C82.1358 50.9227 81.9715 51.4206 83.3806 52.1675C84.7921 52.9143 86.0369 52.9143 86.0369 52.9143C86.0369 52.9143 83.2984 51.5027 83.6295 50.5069C83.9606 49.5111 87.3639 48.6821 87.3639 48.6821C87.3639 48.6821 85.539 47.9352 82.4669 48.8489C79.3973 49.7625 79.8105 50.1758 77.072 49.8447C74.3335 49.5136 73.9177 49.5136 73.9177 49.5136L73.9202 49.5111Z" fill="#78161D"/>
<path fill-rule="evenodd" clip-rule="evenodd" d="M72.9245 45.2781C72.9245 45.2781 74.7494 46.1071 78.7327 44.8623C82.716 43.6175 83.794 43.3686 85.8703 44.7802C87.9441 46.1917 91.9274 44.5312 93.0079 45.6092C94.0859 46.6872 94.5838 52.58 94.0037 53.658C93.4236 54.7359 93.4236 54.7359 93.4236 54.7359L95.0842 51.4173C95.0842 51.4173 99.0675 53.0779 102.471 50.9194C105.874 48.761 106.123 46.854 106.123 46.854C106.123 46.854 103.302 50.2572 99.9811 50.4215C96.6625 50.5883 94.8352 49.4257 94.5863 47.6008C94.3373 45.776 94.753 44.7802 95.7489 44.3644C96.7447 43.9486 98.2384 42.2906 98.2384 42.2906C98.2384 42.2906 95.5821 44.2001 90.7697 44.2001C85.9574 44.2001 82.3052 41.2126 82.3052 41.2126L82.8853 38.0583L86.2039 33.1614C86.2039 33.1614 87.7798 29.5938 88.4445 30.256C89.1092 30.9207 90.105 33.4103 93.5058 34.2393C96.909 35.0684 96.9912 34.9862 96.9912 34.9862C96.9912 34.9862 96.8244 37.9737 95.5796 39.5496C94.3348 41.1255 94.3348 41.1255 94.3348 41.1255C94.3348 41.1255 96.8244 40.4608 97.8202 37.4733C98.816 34.4858 98.816 34.4858 98.816 34.4858C98.816 34.4858 101.886 32.5763 101.97 35.2327C102.052 37.889 99.9787 44.1951 99.9787 44.1951C99.9787 44.1951 103.297 39.7139 103.546 34.4036C103.795 29.0934 102.384 27.5997 102.384 27.5997C102.384 27.5997 101.719 32.163 97.6534 33.3257C93.5879 34.4883 89.7689 30.4203 89.271 26.9349C88.7731 23.4496 91.2627 15.234 90.349 11.4175C89.4353 7.60098 86.6147 6.52051 86.6147 6.52051C86.6147 6.52051 90.7648 10.586 88.9374 18.3883C87.1126 26.1881 84.2894 33.0767 81.8845 35.6484C79.4771 38.2202 76.1585 38.967 76.1585 38.967C76.1585 38.967 80.3907 37.9712 80.7219 38.967C81.053 39.9629 80.8887 42.3703 77.8165 43.864C74.7469 45.3577 72.9196 45.2756 72.9196 45.2756L72.9245 45.2781Z" fill="#78161D"/>
<path fill-rule="evenodd" clip-rule="evenodd" d="M68.6923 19.4689C68.6923 19.4689 67.6143 14.9056 70.1039 12.4982C72.5935 10.0907 73.0914 9.01277 74.1694 7.60118C75.2473 6.1896 75.8299 5.27842 78.7327 4.94482C81.6381 4.6137 82.716 3.45108 82.716 3.45108C82.716 3.45108 82.6339 3.86683 78.8149 4.03115C74.9984 4.19795 73.5046 5.10913 73.5046 5.10913C73.5046 5.10913 72.8399 4.19546 70.7661 3.36643C68.6923 2.53741 67.8608 2.70172 67.8608 2.70172C67.8608 2.70172 72.0931 4.52657 72.0931 6.76718C72.0931 9.00779 69.1877 12.411 67.7786 12.4932C66.3671 12.5753 65.8691 11.2484 61.8037 12.8243C57.7382 14.4002 57.9025 16.5586 57.9025 16.5586C57.9025 16.5586 59.1473 14.7338 62.6327 13.5712C66.1181 12.4085 67.694 13.6533 67.3629 15.0649C67.0318 16.4765 68.6898 19.464 68.6898 19.464L68.6923 19.4689Z" fill="#78161D"/>
<path fill-rule="evenodd" clip-rule="evenodd" d="M73.6711 -3.85048C73.6711 -3.85048 72.3441 -2.85465 71.9284 -1.85883C71.5126 -0.862999 71.5126 -0.862999 71.5126 -0.862999C71.5126 -0.862999 67.5293 -1.36091 63.7128 1.62657C59.8963 4.61405 66.2024 6.7725 65.2887 8.09944C64.375 9.42638 59.8117 7.60153 55.0815 12.9964C50.3513 18.3913 51.016 23.4526 51.5961 25.1953C52.1762 26.938 52.4251 27.0201 52.4251 27.0201C52.4251 27.0201 49.0219 26.0243 49.8534 18.6378C50.6824 11.2512 57.6532 8.26375 58.7337 8.01479C59.8117 7.76584 61.3054 7.01897 61.1411 4.77836C60.9743 2.53775 58.2358 1.54192 58.2358 1.54192L61.5544 2.20664C61.5544 2.20664 62.3012 0.214983 65.7866 -1.0298C69.272 -2.27458 71.4305 -2.6057 71.9284 -3.85048C72.4263 -5.09526 71.5973 -5.59317 71.5973 -5.59317C71.5973 -5.59317 74.0868 -4.76415 74.8337 -5.92429C75.5806 -7.08691 75.5806 -7.08691 75.5806 -7.08691L76.3274 -5.75998L73.6711 -3.85048Z" fill="#78161D"/>
<path fill-rule="evenodd" clip-rule="evenodd" d="M48.6909 -0.447327C48.6909 -0.447327 50.6004 -1.27635 53.5032 -0.529482C56.4086 0.217387 56.5729 1.04641 56.5729 1.04641C56.5729 1.04641 57.2376 -2.77009 59.5603 -4.51279C61.8831 -6.25548 61.8831 -6.25548 61.8831 -6.25548C61.8831 -6.25548 59.3114 -6.17333 57.5687 -4.43063C55.826 -2.68794 55.4949 -1.69211 55.4949 -1.69211C55.4949 -1.69211 53.5854 -3.35265 53.7522 -5.67542C53.919 -7.99818 54.9148 -8.49609 54.9148 -8.49609C54.9148 -8.49609 51.6784 -6.50444 52.0095 -4.34599C52.3406 -2.18753 52.9232 -2.43649 52.9232 -2.43649C52.9232 -2.43649 49.7689 -2.02073 48.6909 -0.444837C47.6129 1.13106 48.6909 -0.444837 48.6909 -0.444837V-0.447327Z" fill="#78161D"/>
<path fill-rule="evenodd" clip-rule="evenodd" d="M45.2057 -2.76983C45.2057 -2.76983 45.6214 -1.10929 44.043 2.54042C42.4671 6.19261 44.6231 7.85066 43.3783 8.93113C42.1335 10.0091 40.5576 10.4249 38.9793 8.35106C37.4034 6.27726 37.2366 5.77934 36.0739 5.03247C34.9113 4.2856 35.576 1.13132 36.8208 0.0533407C38.0656 -1.02464 39.0614 -1.6072 39.0614 -1.6072L35.825 -0.280261C35.825 -0.280261 34.498 -3.18558 31.0126 -2.93663C27.5272 -2.68767 25.8667 -0.28026 25.2045 0.133008C24.5398 0.548765 23.5439 0.464119 23.5439 0.464119C23.5439 0.464119 25.6177 1.29315 25.0377 2.78688C24.4576 4.28062 22.6303 4.94534 21.3855 6.52123C20.1407 8.09713 19.1449 8.59504 17.2354 9.0108C15.3259 9.42656 13.2521 10.0066 13.2521 10.0066C13.2521 10.0066 18.8113 9.0108 20.305 10.7535C21.7988 12.4962 21.7988 13.4099 21.7988 13.4099L22.8767 12.8298C22.8767 12.8298 20.3872 9.42656 23.0435 6.60588C25.6999 3.7852 29.9322 3.94951 29.9322 3.94951C29.9322 3.94951 25.2841 2.45577 27.1115 0.464119C28.9363 -1.52753 34.9113 -2.85447 34.747 0.215163C34.5802 3.2848 33.3354 5.19429 33.3354 5.19429C33.3354 5.19429 38.5635 6.43908 38.8946 9.75767C39.2257 13.0763 42.5468 14.0721 41.2174 16.3973C39.8904 18.7201 36.7362 18.7201 35.5735 19.8827C34.4109 21.0454 34.7445 21.7922 30.2633 22.8702C25.7821 23.9482 24.3705 22.8702 22.2145 25.5266C20.0561 28.1829 18.7291 28.0161 17.1532 28.0161C15.5773 28.0161 14.0836 26.8535 14.0836 26.8535C14.0836 26.8535 15.3284 30.2568 19.3938 29.592C23.4593 28.9273 22.7971 25.5266 26.2825 24.5308C29.7679 23.5349 31.7595 23.7017 35.9918 22.208C40.224 20.7142 41.1377 21.13 42.8804 22.7059C44.6231 24.2818 44.5409 25.7755 44.5409 25.7755C44.5409 25.7755 44.7899 24.0328 43.2962 21.1275C41.8024 18.2222 41.9692 17.8911 42.8804 16.2305C43.7941 14.57 41.9667 12.0804 43.0472 10.8357C44.1252 9.59087 47.6952 9.17511 49.8512 7.1013C52.0096 5.02749 52.4229 3.69807 52.4229 3.69807C52.4229 3.69807 48.1906 8.26144 45.8679 7.18346C43.5451 6.10548 46.0347 1.0417 46.0347 -0.700997C46.0347 -2.44369 44.8721 -3.68848 44.8721 -3.68848L45.2032 -2.77481L45.2057 -2.76983Z" fill="#78161D"/>
<path fill-rule="evenodd" clip-rule="evenodd" d="M34.4183 12.747C34.4183 12.747 33.3403 14.2407 29.0234 12.3312C24.709 10.4217 21.7215 12.0822 20.4767 13.2449C19.2319 14.4075 19.2319 14.9876 17.5714 13.8249C15.9108 12.6623 13.0902 11.5022 9.27367 15.0697C5.45716 18.6373 3.21655 22.7052 3.21655 29.5914C3.21655 36.48 3.21655 36.48 3.21655 36.48L4.79245 39.7164C4.79245 39.7164 3.29871 32.6635 4.21238 30.5872C5.12605 28.5134 6.20403 28.9267 6.20403 28.9267C6.20403 28.9267 3.79662 24.4454 7.44881 19.7974C11.101 15.1494 14.0038 13.0756 16.6602 14.9004C19.3166 16.7253 19.1498 17.5568 20.3946 16.9742C21.6393 16.3942 23.7132 12.493 27.6965 13.322C31.6798 14.1511 30.1039 15.6448 32.5934 14.4847C35.083 13.3221 34.4183 12.742 34.4183 12.742V12.747Z" fill="#78161D"/>
<path fill-rule="evenodd" clip-rule="evenodd" d="M13.5058 16.9797C13.5058 16.9797 13.09 18.4735 15.5796 20.2983C18.0692 22.1232 18.0692 22.1232 18.0692 22.1232C18.0692 22.1232 14.5016 21.2095 11.6784 23.8659C8.85777 26.5223 8.52417 27.3513 8.52417 27.3513C8.52417 27.3513 8.52417 25.3596 10.7648 23.119C13.0054 20.8784 14.2502 20.8784 14.2502 20.8784C14.2502 20.8784 13.0875 20.1315 13.0054 18.3888C12.9232 16.6461 13.5033 16.9773 13.5033 16.9773L13.5058 16.9797Z" fill="#78161D"/>
<path fill-rule="evenodd" clip-rule="evenodd" d="M8.19548 30.0076C8.19548 30.0076 10.934 31.9992 14.9173 30.8366C18.9006 29.674 15.4152 28.0981 15.4152 28.0981C15.4152 28.0981 17.9048 28.596 19.7296 28.2649C21.5545 27.9338 23.5461 25.5264 23.5461 25.5264C23.5461 25.5264 22.4682 27.8491 19.5628 30.6723C16.6575 33.493 19.4807 37.063 21.2234 37.8099C22.9661 38.5568 24.4598 38.39 24.4598 38.39C24.4598 38.39 19.8118 39.8837 17.5712 37.1452C15.3306 34.4066 14.9995 33.244 13.3389 32.8308C11.6784 32.415 11.3473 32.8308 9.93569 31.586C8.52411 30.3412 8.19299 30.0101 8.19299 30.0101L8.19548 30.0076Z" fill="#78161D"/>
<path fill-rule="evenodd" clip-rule="evenodd" d="M27.3656 30.4234C27.3656 30.4234 28.3614 34.0756 31.5979 35.6515C34.8343 37.2274 35.9969 36.8141 35.9969 36.8141L40.8939 34.8224C40.8939 34.8224 35.2501 34.7403 36.9106 32.5818C38.5711 30.4234 39.4823 29.4276 38.9022 26.8558C38.3222 24.2841 38.2375 24.0352 38.2375 24.0352C38.2375 24.0352 36.9106 33.3287 34.5853 33.5777C32.2626 33.8266 27.3656 30.4234 27.3656 30.4234Z" fill="#78161D"/>
<path fill-rule="evenodd" clip-rule="evenodd" d="M27.6965 42.6227C27.6965 42.6227 22.1373 44.7811 17.4893 42.8716C12.8412 40.9621 12.2612 36.8967 12.2612 36.8967C12.2612 36.8967 11.8454 39.8841 9.10688 40.0509C6.36836 40.2177 4.37671 37.8925 3.712 35.9008C3.04728 33.9092 3.04728 33.9092 3.04728 33.9092L2.38257 34.8228L4.78998 41.0468C4.78998 41.0468 5.78581 42.7073 9.1044 41.6268C12.423 40.5489 11.9251 40.4642 12.7566 41.3779C13.5856 42.2915 15.4951 44.9454 19.5606 45.4433C23.626 45.9413 24.9555 44.8633 24.8708 46.0234C24.7887 47.186 24.704 47.2682 24.704 47.2682L27.2757 45.5255L28.7695 42.7048L27.6915 42.6227H27.6965Z" fill="#78161D"/>
<path fill-rule="evenodd" clip-rule="evenodd" d="M54.9993 67.0198C54.9993 67.0198 56.162 71.501 61.639 72.081C67.116 72.6611 68.3608 71.4163 68.3608 71.4163C68.3608 71.4163 64.7086 67.1841 64.7086 64.8613C64.7086 62.5385 66.0356 61.707 66.0356 61.707L62.2191 63.034C62.2191 63.034 62.3859 65.1078 64.1286 67.682C65.8713 70.2537 66.0381 70.2537 66.0381 70.2537C66.0381 70.2537 61.4747 68.2621 59.981 66.2704C58.4872 64.2787 58.4872 64.112 58.4872 64.112L57.4092 64.7767C57.4092 64.7767 57.4914 66.1036 59.483 67.5973C61.4747 69.0911 64.629 70.667 64.629 70.667C64.629 70.667 60.1478 70.667 57.9071 68.5932C55.6665 66.5194 56.0823 65.4389 56.0823 65.4389L54.4218 65.77L55.0018 67.0148L54.9993 67.0198Z" fill="#78161D"/>
<path fill-rule="evenodd" clip-rule="evenodd" d="M65.2267 66.4603C65.2267 66.4603 67.4673 65.34 68.4631 63.5973C69.4589 61.8546 69.3967 60.9833 69.3967 60.9833L72.3842 60.4854C72.3842 60.4854 69.8946 64.5931 67.4673 66.1491C65.0399 67.7051 64.791 67.2694 64.791 67.2694L64.6665 66.5225L65.2267 66.4603Z" fill="#78161D"/>
<path fill-rule="evenodd" clip-rule="evenodd" d="M65.9737 67.5805C65.9737 67.5805 70.2682 66.4602 72.0109 63.7839C73.7536 61.1076 74.127 59.9873 74.127 59.9873H75.1851C75.1851 59.9873 74.3137 63.9084 70.8283 66.3979C67.3429 68.8875 65.787 68.8253 65.787 68.8253L65.2268 68.0162L65.9737 67.5805Z" fill="#78161D"/>
<path fill-rule="evenodd" clip-rule="evenodd" d="M66.8449 69.012C66.8449 69.012 71.3261 67.8917 74.687 64.842C78.0479 61.7922 78.0479 59.6139 78.0479 59.6139L80.7242 59.0537C80.7242 59.0537 78.1101 65.9 72.8821 67.9539C67.654 70.0078 66.5337 69.9456 66.5337 69.9456L65.9735 69.1987L66.8449 69.012Z" fill="#78161D"/>
<path fill-rule="evenodd" clip-rule="evenodd" d="M67.6541 72.31C67.6541 72.31 70.766 74.7996 74.0025 74.3017C77.2389 73.8038 83.4006 73.5548 87.944 72.9946C92.4875 72.4345 96.1596 70.6296 97.9646 66.9574C99.7695 63.2853 100.018 62.2895 100.018 62.2895L98.2757 61.2314C98.2757 61.2314 99.1471 67.0819 92.6742 70.1939C86.2014 73.3058 76.8655 72.6212 74.1892 73.2436C71.5129 73.866 67.903 71.1897 67.903 71.1897L67.0317 69.7582L66.4093 71.2519L67.6541 72.31Z" fill="#78161D"/>
<path fill-rule="evenodd" clip-rule="evenodd" d="M71.1395 68.7624C71.1395 68.7624 72.1975 71.5009 74.2514 72.4967C76.3053 73.4925 76.5543 73.5548 76.5543 73.5548L79.355 73.0569C79.355 73.0569 75.0605 72.8079 73.629 70.754C72.1975 68.7001 72.0731 67.5176 72.0731 67.5176L70.4548 68.3267L71.1395 68.7624Z" fill="#78161D"/>
<path fill-rule="evenodd" clip-rule="evenodd" d="M73.629 67.7047C73.629 67.7047 74.6248 69.9454 77.1144 71.4391C79.6039 72.9328 81.0977 73.0573 81.0977 73.0573H83.7117C83.7117 73.0573 78.1102 71.6258 76.4297 69.3852C74.7493 67.1446 74.4381 66.46 74.4381 66.46L73.4423 66.8334L73.629 67.7047Z" fill="#78161D"/>
<path fill-rule="evenodd" clip-rule="evenodd" d="M75.3717 66.6469C75.3717 66.6469 78.8571 69.6343 82.7782 70.7547C86.6993 71.875 88.6287 71.9994 88.6287 71.9994L90.7448 71.0658C90.7448 71.0658 83.7118 70.5679 80.5376 68.6385C77.3634 66.7091 75.9941 65.3398 75.9941 65.3398L74.127 66.0867L75.3717 66.6469Z" fill="#78161D"/>
<path fill-rule="evenodd" clip-rule="evenodd" d="M79.9774 63.8452C79.9774 63.8452 81.2844 67.2683 85.4545 69.26C89.6245 71.2516 91.3049 71.3761 91.3049 71.3761L93.1721 70.6292C93.1721 70.6292 85.9524 69.011 83.774 66.9571C81.5956 64.9032 80.8488 63.7207 80.8488 63.7207L79.9774 63.8452Z" fill="#78161D"/>
<path fill-rule="evenodd" clip-rule="evenodd" d="M85.9525 64.5299C85.9525 64.5299 86.3882 66.7083 89.3757 68.2021C92.3631 69.6958 94.1058 69.6336 94.1058 69.6336L95.1639 68.8867C95.1639 68.8867 91.9275 68.451 89.3134 66.9573C86.6994 65.4635 86.5749 64.2188 86.5749 64.2188L85.9525 64.5299Z" fill="#78161D"/>
<path fill-rule="evenodd" clip-rule="evenodd" d="M78.1725 64.1574C78.1725 64.1574 87.4461 64.2819 90.3714 65.4644C93.2966 66.647 95.475 68.8253 95.475 68.8253L96.7198 68.0162C96.7198 68.0162 93.7945 65.091 88.0063 63.6595C82.218 62.228 77.4879 63.2238 77.4879 63.2238L76.3676 64.5308L78.1725 64.1574Z" fill="#78161D"/>
<path fill-rule="evenodd" clip-rule="evenodd" d="M79.604 61.6054C79.604 61.6054 89.9357 61.2942 93.5456 63.2859C97.1555 65.2775 97.5912 66.2733 97.5912 66.2733L98.2135 65.0285C98.2135 65.0285 94.2925 61.7299 89.8735 61.1075C85.4545 60.4851 79.2928 60.4229 79.2928 60.4229L78.3593 62.1655L79.604 61.6054Z" fill="#78161D"/>
<path fill-rule="evenodd" clip-rule="evenodd" d="M61.4302 72.3725C61.4302 72.3725 67.6541 77.2893 70.5171 81.2727C73.3801 85.256 73.8158 86.4385 75.1228 86.9364C76.4298 87.4343 80.6621 84.8825 80.7865 83.5755C80.911 82.2685 76.8032 77.974 76.8655 75.8578C76.9277 73.7417 77.2389 73.555 77.2389 73.555L74.4381 73.804C74.4381 73.804 74.9361 76.2935 77.4256 79.5922C79.9152 82.8909 79.7285 83.6377 78.7949 84.5091C77.8613 85.3804 75.8696 86.6875 74.7493 84.758C73.629 82.8286 69.6457 77.9117 67.0939 75.2977C64.5421 72.6836 63.2351 71.7501 63.2351 71.7501L59.9987 71.0654L61.4302 72.3725Z" fill="#78161D"/>
<path fill-rule="evenodd" clip-rule="evenodd" d="M29.1903 56.9372C29.1903 56.9372 26.5141 54.0742 27.2609 49.7797C28.0078 45.4852 28.1945 44.7383 28.1945 44.7383L24.7714 49.344C24.7714 49.344 24.7714 54.3231 26.0784 57.3728C27.3854 60.4225 27.3854 60.4225 27.3854 60.4225L28.9414 58.4309L29.1903 56.9372Z" fill="#78161D"/>
<path fill-rule="evenodd" clip-rule="evenodd" d="M62.7994 72.1661L66.118 74.9046C66.118 74.9046 67.196 73.5776 69.5213 74.8224C71.844 76.0672 70.5992 76.0672 72.5909 76.7319C74.5826 77.3966 76.1584 77.7278 76.1584 77.7278L74.8315 73.8266C74.8315 73.8266 72.3419 73.7444 69.7702 72.7486C67.1985 71.7528 66.8649 71.2549 66.8649 71.2549L62.7994 72.1685V72.1661Z" fill="#78161D" fill-opacity="0.5"/>
<path fill-rule="evenodd" clip-rule="evenodd" d="M59.4809 64.2812C59.4809 64.2812 57.8204 66.3551 60.3946 68.2646C62.9663 70.1741 64.5447 67.1866 64.5447 67.1866L66.8675 70.7541C66.8675 70.7541 61.7215 72.4968 58.983 70.423C56.2445 68.3492 55.2487 66.1086 55.2487 66.1086L59.4809 64.2837V64.2812Z" fill="#78161D" fill-opacity="0.59"/>
<path fill-rule="evenodd" clip-rule="evenodd" d="M66.1177 61.4607C66.1177 61.4607 65.0398 65.0282 68.7741 65.6929C72.5085 66.3576 75.9117 60.2159 75.9117 60.2159L78.8992 59.8848C78.8992 59.8848 76.4096 65.5286 71.4305 67.9335C66.4513 70.3409 66.0356 69.843 66.0356 69.843C66.0356 69.843 64.624 67.6024 64.1261 65.195C63.6282 62.7876 63.6282 62.6233 63.6282 62.6233L66.1177 61.4607Z" fill="#78161D" fill-opacity="0.6"/>
<path fill-rule="evenodd" clip-rule="evenodd" d="M66.2848 69.6766C66.7827 70.1745 68.6076 72.9952 71.2639 73.411C73.9203 73.8267 76.2431 73.3288 76.2431 73.3288C76.2431 73.3288 89.9357 73.7446 94.1679 70.2592C98.4002 66.7738 98.9803 63.2062 98.9803 63.2062L99.2292 61.8793L93.8343 59.6387C93.8343 59.6387 94.997 66.2783 88.0262 69.4301C81.0554 72.5844 73.8356 69.7612 71.7618 67.6874L66.2848 69.6791V69.6766Z" fill="#78161D" fill-opacity="0.52"/>
<path fill-rule="evenodd" clip-rule="evenodd" d="M79.1483 81.791C79.1483 81.791 76.9077 84.8606 75.8298 84.0316C74.7518 83.2026 73.0091 79.2193 69.9369 76.065C66.8673 72.9107 65.7047 71.417 65.7047 71.417L61.9703 71.8327C61.9703 71.8327 68.1942 76.9787 71.2639 80.962C74.3335 84.9453 75.165 86.8548 76.0762 86.688C76.9899 86.5212 80.3906 84.2806 80.2263 83.4516C80.0595 82.6225 79.1483 81.791 79.1483 81.791Z" fill="#78161D" fill-opacity="0.56"/>
<path fill-rule="evenodd" clip-rule="evenodd" d="M42.0539 36.316C42.0539 36.316 38.1527 36.9807 33.3404 41.6262C28.528 46.2742 30.1861 47.1854 32.2624 46.6053C34.3362 46.0253 34.254 43.7847 36.1635 42.9531C38.073 42.1241 41.7227 39.1366 42.2207 37.8072C42.7186 36.4803 42.0539 36.3135 42.0539 36.3135V36.316Z" fill="white" fill-opacity="0.49"/>
<path fill-rule="evenodd" clip-rule="evenodd" d="M74.0847 30.5057C74.0847 30.5057 73.3378 28.4318 68.6898 28.265C64.0418 28.0982 57.1556 32.8284 55.4951 34.4068C53.8345 35.9827 55.744 36.0673 60.2253 34.0757C64.7065 32.084 67.3628 30.8393 69.8524 31.255C72.342 31.6708 74.0025 31.9197 74.0847 31.3372C74.1668 30.7571 74.0847 30.5081 74.0847 30.5081V30.5057Z" fill="white" fill-opacity="0.49"/>
<path fill-rule="evenodd" clip-rule="evenodd" d="M77.0721 40.0508C77.0721 40.0508 71.7619 38.8881 67.0317 40.2997C62.3015 41.7113 69.0233 42.4582 73.8357 41.7934C78.648 41.1287 77.0721 40.0508 77.0721 40.0508Z" fill="white" fill-opacity="0.49"/>
<path fill-rule="evenodd" clip-rule="evenodd" d="M68.1945 48.0176C68.1945 48.0176 64.2112 46.855 63.2154 47.5197C62.2195 48.1844 61.8038 49.9271 62.7175 49.9271C63.6311 49.9271 64.4602 49.0981 65.9539 48.8491C67.4476 48.6002 68.1945 48.0201 68.1945 48.0201V48.0176Z" fill="white" fill-opacity="0.49"/>
<path fill-rule="evenodd" clip-rule="evenodd" d="M59.7299 11.1719C59.7299 11.1719 55.9955 12.0855 53.5881 16.2332C51.1807 20.3833 52.5923 22.706 53.6703 22.706C54.7483 22.706 54.9972 19.7186 55.8287 17.6447C56.6578 15.5709 56.6578 14.9062 58.1515 13.4946C59.6452 12.0831 59.3963 12.8299 59.7274 12.0009C60.0585 11.1719 59.7274 11.1719 59.7274 11.1719H59.7299Z" fill="white" fill-opacity="0.49"/>
<path fill-rule="evenodd" clip-rule="evenodd" d="M79.9774 6.02513C79.9774 6.02513 77.072 5.19611 75.4961 7.93463C73.9202 10.6732 70.2681 14.0764 69.8523 15.7344C69.4365 17.395 71.0971 19.1377 72.7576 16.3992C74.4182 13.6606 74.3335 12.747 75.9119 11.0889C77.4878 9.42837 80.9732 9.51301 81.0578 7.85247C81.14 6.19193 79.9799 6.02762 79.9799 6.02762L79.9774 6.02513Z" fill="white" fill-opacity="0.49"/>
<path fill-rule="evenodd" clip-rule="evenodd" d="M36.659 23.0361C36.659 23.0361 32.8424 24.612 29.3571 25.2767C25.8717 25.9415 25.7049 27.2684 23.7978 29.26C21.8884 31.2517 19.9813 30.587 19.8967 32.9944C19.8145 35.4018 22.2195 36.1487 23.7978 34.9039C25.3737 33.6591 25.7073 28.8468 27.5322 27.7663C29.3571 26.6883 31.5155 28.1821 33.176 27.0194C34.8366 25.8568 34.5876 26.2726 36.1635 24.6967C37.7394 23.1208 36.6614 23.0361 36.6614 23.0361H36.659Z" fill="white" fill-opacity="0.49"/>
<path fill-rule="evenodd" clip-rule="evenodd" d="M90.1847 33.9903C90.1847 33.9903 89.1889 33.3256 88.6088 32.7455C88.0287 32.1655 87.6951 35.0683 86.3682 36.4799C85.0412 37.8915 84.5433 38.8873 85.7881 38.8873C87.0329 38.8873 89.7714 37.6425 90.4361 36.3156C91.1008 34.9886 90.1872 33.9928 90.1872 33.9928L90.1847 33.9903Z" fill="white" fill-opacity="0.49"/>
<path fill-rule="evenodd" clip-rule="evenodd" d="M52.1764 6.27451C52.1764 6.27451 49.769 9.01303 46.7815 10.1757C43.794 11.3383 44.043 11.5026 44.2919 14.159C44.5409 16.8153 42.716 17.9755 44.043 18.2244C45.3699 18.4734 45.8678 17.3954 46.1168 15.6527C46.3657 13.91 47.6105 11.9184 49.271 10.5068C50.9316 9.09519 53.6701 7.76825 53.5033 6.69027C53.3365 5.61229 52.1764 6.27451 52.1764 6.27451Z" fill="white" fill-opacity="0.49"/>
<path fill-rule="evenodd" clip-rule="evenodd" d="M29.4391 5.52793C29.4391 5.52793 27.6142 4.94786 25.4557 6.02584C23.2973 7.10382 25.6226 7.02167 27.8632 7.8507C30.1038 8.67972 31.9286 11.2539 32.3444 8.76437C32.7601 6.2748 29.4391 5.52793 29.4391 5.52793Z" fill="white" fill-opacity="0.49"/>
<path fill-rule="evenodd" clip-rule="evenodd" d="M33.5048 -0.61435C33.5048 -0.61435 27.7788 -0.863307 28.6078 1.04619C29.4368 2.95569 33.338 1.5441 33.7537 0.715077C34.1695 -0.113948 33.5048 -0.611861 33.5048 -0.611861V-0.61435Z" fill="white" fill-opacity="0.49"/>
<path fill-rule="evenodd" clip-rule="evenodd" d="M40.7242 -1.52481C40.7242 -1.52481 36.1608 0.797958 36.823 2.87426C37.4877 4.94806 38.0678 2.4585 40.0594 1.13156C42.0511 -0.195379 43.5448 -1.44016 42.4669 -1.68912C41.3889 -1.93808 40.7242 -1.52232 40.7242 -1.52232V-1.52481Z" fill="white" fill-opacity="0.49"/>
<path fill-rule="evenodd" clip-rule="evenodd" d="M29.439 14.9059C29.439 14.9059 26.8672 13.8279 24.542 14.9059C22.2192 15.9838 22.5503 17.3133 23.5462 17.2286C24.542 17.1465 25.7046 16.5639 28.0274 16.3996C30.3502 16.2328 30.5991 16.2328 30.1858 15.6527C29.7701 15.0727 29.439 14.9059 29.439 14.9059Z" fill="white" fill-opacity="0.49"/>
<path fill-rule="evenodd" clip-rule="evenodd" d="M74.0025 -2.60552C74.0025 -2.60552 72.5909 0.879878 71.595 0.46412C70.5992 0.0483623 67.7785 -0.364906 65.7023 1.45995C63.6284 3.2848 65.869 3.86736 65.869 3.86736C65.869 3.86736 66.118 2.0425 69.4366 1.95786C72.7552 1.8757 73.5867 1.79106 74.9958 0.546276C76.4074 -0.698507 77.6522 -0.449551 76.8207 -1.36322C75.9916 -2.27689 75.3269 -3.60383 74.7468 -3.18807C74.1668 -2.77232 74 -2.608 74 -2.608L74.0025 -2.60552Z" fill="white" fill-opacity="0.49"/>
<path fill-rule="evenodd" clip-rule="evenodd" d="M97.9843 12.332C97.9843 12.332 96.9885 12.1652 95.8259 12.1652C94.6632 12.1652 92.4226 10.8383 92.0094 11.9162C91.5936 12.9942 92.0094 13.9901 92.7562 14.488C93.5031 14.9859 94.5811 16.7286 95.4948 16.1485C96.4084 15.5684 95.6616 14.7369 97.1553 13.8257C98.649 12.9121 98.649 13.4946 98.649 12.9121C98.649 12.332 97.9843 12.332 97.9843 12.332Z" fill="white" fill-opacity="0.49"/>
<path fill-rule="evenodd" clip-rule="evenodd" d="M47.7797 53.1603C47.7797 53.1603 46.037 51.5844 44.7101 52.9114C43.3831 54.2383 44.4611 54.3229 45.4569 54.074C46.4528 53.825 47.7797 53.1603 47.7797 53.1603Z" fill="white" fill-opacity="0.49"/>
<path fill-rule="evenodd" clip-rule="evenodd" d="M20.8927 4.1162C20.8927 4.1162 17.9873 4.53196 16.6604 6.10785C15.3335 7.68375 15.2488 8.43062 16.4114 8.01735C17.5741 7.60159 19.73 6.10785 20.5615 5.27883C21.3906 4.4498 20.3947 3.95189 20.8927 4.1162C21.3906 4.283 20.8927 4.1162 20.8927 4.1162Z" fill="white" fill-opacity="0.49"/>
<path fill-rule="evenodd" clip-rule="evenodd" d="M10.8496 10.9229C10.8496 10.9229 7.77992 12.3344 7.53097 14.1593C7.28201 15.9841 10.6852 12.9145 10.6852 12.9145C10.6852 12.9145 13.257 12.4166 12.7591 11.8365C12.2611 11.2565 11.5964 10.9229 11.5964 10.9229H10.8496Z" fill="white" fill-opacity="0.49"/>
<defs>
<linearGradient id="paint0_linear" x1="56.5754" y1="-14.6373" x2="56.5754" y2="68.0163" gradientUnits="userSpaceOnUse">
<stop stop-color="#FD857B"/>
<stop offset="1" stop-color="#FF5B78"/>
</linearGradient>
</defs>
</svg>
