<svg width="16" height="16" viewBox="0 0 16 16" fill="none" xmlns="http://www.w3.org/2000/svg">
<path fill-rule="evenodd" clip-rule="evenodd" d="M6.6129 7.5998C6.6129 7.16017 6.94455 6.7998 7.36465 6.7998C7.78474 6.7998 8.12376 7.16017 8.11639 7.5998C8.11639 8.03944 7.78474 8.3998 7.36465 8.3998C6.95192 8.3998 6.6129 8.03944 6.6129 7.5998ZM9.30297 7.5998C9.30297 7.16017 9.63462 6.7998 10.0547 6.7998C10.4748 6.7998 10.8065 7.16017 10.8065 7.5998C10.8065 8.03944 10.4748 8.3998 10.0547 8.3998C9.64199 8.3998 9.30297 8.03944 9.30297 7.5998Z" fill="#728E9D"/>
<path fill-rule="evenodd" clip-rule="evenodd" d="M3.52286 0.799805H13.4771C14.3166 0.799805 15 1.4438 15 2.2418V14.7998L13.4029 13.4698L12.504 12.6858L11.5531 11.8528L11.9469 13.1478H3.52286C2.68343 13.1478 2 12.5038 2 11.7058V2.2418C2 1.4438 2.68343 0.799805 3.52286 0.799805ZM10.1194 9.37481C10.3423 9.64081 10.6097 9.9418 10.6097 9.9418C12.2514 9.89281 12.8829 8.8778 12.8829 8.8778C12.8829 6.62381 11.8131 4.7968 11.8131 4.7968C10.7434 4.0408 9.72571 4.0618 9.72571 4.0618L9.62172 4.1738C10.8846 4.5378 11.4714 5.0628 11.4714 5.0628C10.6989 4.6638 9.94114 4.4678 9.23543 4.3908C8.70057 4.3348 8.188 4.3488 7.73486 4.4048C7.69595 4.4048 7.6627 4.41014 7.62523 4.41615C7.61977 4.41703 7.61423 4.41792 7.60857 4.4188C7.34857 4.4398 6.71714 4.5308 5.92229 4.8598C5.64743 4.9788 5.484 5.0628 5.484 5.0628C5.484 5.0628 6.10057 4.5098 7.43771 4.1458L7.36343 4.0618C7.36343 4.0618 6.34571 4.0408 5.276 4.7968C5.276 4.7968 4.20629 6.62381 4.20629 8.8778C4.20629 8.8778 4.83029 9.89281 6.472 9.9418C6.472 9.9418 6.74686 9.6268 6.96972 9.3608C6.02629 9.0948 5.66971 8.5348 5.66971 8.5348C5.66971 8.5348 5.744 8.5838 5.87771 8.6538C5.88514 8.6608 5.89257 8.6678 5.90743 8.6748C5.91857 8.6818 5.92971 8.68705 5.94086 8.6923C5.952 8.69755 5.96314 8.7028 5.97429 8.7098C6.16 8.8078 6.34571 8.8848 6.51657 8.94781C6.82114 9.0598 7.18514 9.1718 7.60857 9.2488C8.16571 9.3468 8.81943 9.3818 9.53257 9.2558C9.88171 9.1998 10.2383 9.1018 10.6097 8.95481C10.8697 8.8638 11.1594 8.7308 11.464 8.5418C11.464 8.5418 11.0926 9.1158 10.1194 9.37481Z" fill="#728E9D"/>
</svg>
