<svg width="24" height="25" viewBox="0 0 24 25" fill="none" xmlns="http://www.w3.org/2000/svg">
<path fill-rule="evenodd" clip-rule="evenodd" d="M3.96867 14.1657L13.6592 4.66662C14.906 3.44446 16.9283 3.44446 18.175 4.66662L19.4694 5.9354C20.7162 7.15755 20.7162 9.13985 19.4694 10.362L9.74061 19.8986C9.1843 20.4439 8.43007 20.7499 7.64282 20.7499H3.65854C3.28841 20.7499 2.99098 20.451 3.00021 20.0883L3.10043 16.1475C3.12036 15.4026 3.43127 14.6925 3.96867 14.1657ZM18.5381 6.84831L17.2437 5.57953C16.5113 4.86156 15.323 4.86156 14.5905 5.57953L13.8382 6.31697L17.7862 10.1861L18.5381 9.44909C19.2705 8.73112 19.2705 7.56628 18.5381 6.84831ZM4.89998 15.0787L12.9069 7.22989L16.8549 11.099L8.8093 18.9857L8.70228 19.0817C8.4067 19.3245 8.03222 19.4588 7.64282 19.4588L4.33345 19.4584L4.41707 16.1805C4.42814 15.7669 4.60126 15.3715 4.89998 15.0787ZM21 20.1045C21 19.748 20.7052 19.4589 20.3415 19.4589H13.471L13.3816 19.4648C13.0602 19.5076 12.8125 19.7777 12.8125 20.1045C12.8125 20.461 13.1073 20.75 13.471 20.75H20.3415L20.4308 20.7441C20.7523 20.7014 21 20.4313 21 20.1045Z" fill="#5E7C8D"/>
</svg>
