<svg width="24" height="25" viewBox="0 0 24 25" fill="none" xmlns="http://www.w3.org/2000/svg">
<path fill-rule="evenodd" clip-rule="evenodd" d="M12.2882 4.25482L12.002 4.25C7.86108 4.25 4.12926 7.17308 2.06091 11.9558C1.9797 12.1436 1.9797 12.3564 2.06091 12.5442L2.20424 12.8668C4.24638 17.3431 7.77544 20.1144 11.7118 20.2452L11.998 20.25C16.1389 20.25 19.8707 17.3269 21.9391 12.5442C22.0213 12.354 22.0202 12.1384 21.9361 11.949L21.7968 11.6356C19.7497 7.15091 16.2192 4.38547 12.2882 4.25482ZM12.009 5.73942L12.2479 5.74456L12.5149 5.75845C15.7122 5.98484 18.6525 8.35553 20.429 12.2491L20.4197 12.2731C18.5987 16.2505 15.5569 18.6353 12.2589 18.755L12.004 18.7588L11.7469 18.7554L11.4806 18.7415C8.38271 18.5221 5.52637 16.2844 3.73914 12.6097L3.57 12.2491L3.72658 11.9162C5.61117 8.02315 8.69148 5.74027 12.009 5.73942ZM11.9995 8.36346C9.8391 8.36346 8.0885 10.1031 8.0885 12.2502C8.0885 14.3965 9.83929 16.1359 11.9995 16.1359C14.1598 16.1359 15.9115 14.3963 15.9115 12.2502C15.9115 10.1032 14.16 8.36346 11.9995 8.36346ZM11.9995 9.85378C13.3317 9.85378 14.4115 10.9264 14.4115 12.2502C14.4115 13.5731 13.3316 14.6456 11.9995 14.6456C10.6677 14.6456 9.5885 13.5734 9.5885 12.2502C9.5885 10.9261 10.6676 9.85378 11.9995 9.85378Z" fill="#5E7C8D"/>
</svg>
