<svg width="16" height="16" viewBox="0 0 16 16" fill="none" xmlns="http://www.w3.org/2000/svg">
<path fill-rule="evenodd" clip-rule="evenodd" d="M8.00066 0.799805C6.09955 0.799805 5.86097 0.808117 5.11429 0.842096C4.36908 0.876221 3.8604 0.994201 3.41532 1.1673C2.95492 1.3461 2.56437 1.58526 2.17528 1.97449C1.7859 2.36358 1.54673 2.75412 1.36736 3.21437C1.19381 3.6596 1.07569 4.16841 1.04215 4.91333C1.00875 5.65999 1 5.89872 1 7.7998C1 9.70089 1.00846 9.93874 1.04229 10.6854C1.07656 11.4306 1.19454 11.9393 1.3675 12.3844C1.54644 12.8448 1.78561 13.2353 2.17485 13.6244C2.56379 14.0138 2.95433 14.2535 3.41444 14.4323C3.85982 14.6054 4.36864 14.7234 5.11371 14.7575C5.86038 14.7915 6.09882 14.7998 7.99978 14.7998C9.90103 14.7998 10.1389 14.7915 10.8856 14.7575C11.6308 14.7234 12.14 14.6054 12.5854 14.4323C13.0457 14.2535 13.4356 14.0138 13.8246 13.6244C14.214 13.2353 14.4531 12.8448 14.6325 12.3845C14.8046 11.9393 14.9227 11.4305 14.9577 10.6856C14.9913 9.93889 15 9.70089 15 7.7998C15 5.89872 14.9913 5.66014 14.9577 4.91347C14.9227 4.16826 14.8046 3.6596 14.6325 3.21451C14.4531 2.75412 14.214 2.36358 13.8246 1.97449C13.4352 1.58512 13.0458 1.34595 12.585 1.1673C12.1387 0.994201 11.6298 0.876221 10.8845 0.842096C10.1379 0.808117 9.90016 0.799805 7.99847 0.799805H8.00066ZM7.76735 2.06119L8.00066 2.06126C9.86968 2.06126 10.0912 2.06797 10.8293 2.10151C11.5118 2.13272 11.8822 2.24676 12.1289 2.34258C12.4556 2.46945 12.6885 2.62112 12.9334 2.86612C13.1784 3.11112 13.33 3.34445 13.4572 3.67112C13.553 3.91758 13.6672 4.28799 13.6983 4.97049C13.7318 5.70841 13.7391 5.93008 13.7391 7.7982C13.7391 9.66633 13.7318 9.88799 13.6983 10.6259C13.6671 11.3084 13.553 11.6788 13.4572 11.9253C13.3303 12.2519 13.1784 12.4846 12.9334 12.7294C12.6884 12.9744 12.4558 13.1261 12.1289 13.253C11.8825 13.3492 11.5118 13.4629 10.8293 13.4942C10.0913 13.5277 9.86968 13.535 8.00066 13.535C6.13149 13.535 5.90997 13.5277 5.17204 13.4942C4.48954 13.4627 4.11912 13.3486 3.87222 13.2528C3.54555 13.1259 3.31221 12.9743 3.06721 12.7293C2.82221 12.4843 2.67054 12.2515 2.54337 11.9247C2.44756 11.6782 2.33337 11.3078 2.30231 10.6253C2.26876 9.88741 2.26205 9.66574 2.26205 7.79645C2.26205 5.92716 2.26876 5.70666 2.30231 4.96874C2.33351 4.28624 2.44756 3.91583 2.54337 3.66908C2.67025 3.34241 2.82221 3.10908 3.06721 2.86408C3.31221 2.61908 3.54555 2.46741 3.87222 2.34024C4.11897 2.24399 4.48954 2.13024 5.17204 2.09889C5.8178 2.06972 6.06805 2.06097 7.37269 2.05951V2.06126C7.49458 2.06107 7.62586 2.06113 7.76735 2.06119ZM10.8972 4.06326C10.8972 3.59937 11.2735 3.22355 11.7372 3.22355C12.201 3.22355 12.5772 3.59951 12.5772 4.06326C12.5772 4.52701 12.201 4.90326 11.7372 4.90326C11.2735 4.90326 10.8972 4.52701 10.8972 4.06326ZM8.00051 4.20501C6.01533 4.20509 4.40583 5.81462 4.40583 7.7998C4.40583 9.78503 6.01541 11.3939 8.00066 11.3939C9.98591 11.3939 11.5949 9.78503 11.5949 7.7998C11.5949 5.81458 9.98576 4.20501 8.00051 4.20501ZM10.334 7.7998C10.334 6.51108 9.28925 5.46647 8.00066 5.46647C6.71191 5.46647 5.6673 6.51108 5.6673 7.7998C5.6673 9.08839 6.71191 10.1331 8.00066 10.1331C9.28925 10.1331 10.334 9.08839 10.334 7.7998Z" fill="#728E9D"/>
</svg>
