<svg width="177" height="116" viewBox="0 0 177 116" fill="none" xmlns="http://www.w3.org/2000/svg">
<path fill-rule="evenodd" clip-rule="evenodd" d="M97.8746 86.2971L62.0625 17.6812L63.1406 17.1279L98.9527 85.7438L97.8746 86.2971Z" fill="white"/>
<path fill-rule="evenodd" clip-rule="evenodd" d="M46.885 17.4085C36.8296 14.2314 25.3053 15.056 14.049 23.6201L13.3147 22.6571C24.9058 13.8383 36.8453 12.9667 47.2505 16.2544C57.6273 19.5331 66.4582 26.9384 71.9381 34.6575C90.3977 60.6526 107.993 74.9957 126.061 77.4567C144.098 79.9135 162.851 70.556 183.71 48.5128L184.591 49.3443C163.639 71.4847 144.52 81.1927 125.897 78.6561C107.306 76.1239 89.453 61.4147 70.9497 35.3578L70.9496 35.3578C65.5952 27.8154 56.9688 20.5947 46.885 17.4085Z" fill="white"/>
<path fill-rule="evenodd" clip-rule="evenodd" d="M99.6113 87.6143H200.401V66.5342L113.794 75.2674L99.6113 87.6143Z" fill="#512F4D" fill-opacity="0.18"/>
<path fill-rule="evenodd" clip-rule="evenodd" d="M111.786 48.748L98.4635 86.0097C98.0578 87.4244 98.3354 87.9273 99.7846 87.4244L137.819 74.195L134.259 52.0804L111.783 48.748H111.786Z" fill="url(#paint0_linear)"/>
<path fill-rule="evenodd" clip-rule="evenodd" d="M113.281 52.8825L101.178 82.6598L100.27 85.6376L131.89 66.729L121.754 50.7236L113.281 52.8825Z" fill="white" fill-opacity="0.22"/>
<path fill-rule="evenodd" clip-rule="evenodd" d="M118.046 54.4709L103.564 78.701L105.105 79.7095L122.668 61.3341L119.895 53.3594L118.046 54.4709Z" fill="white" fill-opacity="0.35"/>
<path fill-rule="evenodd" clip-rule="evenodd" d="M159.533 0.65918H172.074L118.102 54.4354C118.102 54.4354 113.789 55.5379 112.182 53.0324C110.578 50.5298 112.182 48.1264 112.182 48.1264L159.533 0.65918Z" fill="#096AB1"/>
<path fill-rule="evenodd" clip-rule="evenodd" d="M118.058 55.2515C118.058 55.2515 117.856 62.024 121.781 65.4633C125.706 68.8996 131.947 68.4962 131.947 68.4962L197.766 2.37884V0.65918H172.003L118.058 55.2515Z" fill="#40B4EE"/>
<path fill-rule="evenodd" clip-rule="evenodd" d="M131.457 68.159C131.457 68.159 130.339 72.5992 133.081 73.8099C135.822 75.0206 137.55 74.1126 137.55 74.1126L197.766 14.3861V1.97656L131.457 68.162V68.159Z" fill="#096AB1"/>
<path fill-rule="evenodd" clip-rule="evenodd" d="M109.766 83.1099C109.178 82.0724 106.576 78.8788 102.52 75.9687L102.024 75.7568L98.4641 85.9639C98.057 87.4189 98.3355 87.9361 99.7896 87.4189L110.152 83.7237L109.763 83.1068L109.766 83.1099Z" fill="#512F4D"/>
<path fill-rule="evenodd" clip-rule="evenodd" d="M131.457 68.159C131.457 68.159 130.339 72.5992 133.081 73.8099C135.822 75.0206 137.55 74.1126 137.55 74.1126L197.766 14.3861V1.97656L131.457 68.162V68.159Z" fill="url(#paint1_linear)" fill-opacity="0.56"/>
<path fill-rule="evenodd" clip-rule="evenodd" d="M159.533 0.65918H172.074L118.102 54.4354C118.102 54.4354 113.789 55.5379 112.182 53.0324C110.578 50.5298 112.182 48.1264 112.182 48.1264L159.533 0.65918Z" fill="url(#paint2_linear)" fill-opacity="0.58"/>
<path fill-rule="evenodd" clip-rule="evenodd" d="M118.058 55.2515C118.058 55.2515 117.856 62.024 121.781 65.4633C125.706 68.8996 131.947 68.4962 131.947 68.4962L197.766 2.37884V0.65918H172.003L118.058 55.2515Z" fill="#0B6CB3" fill-opacity="0.65"/>
<path fill-rule="evenodd" clip-rule="evenodd" d="M171.678 0L117.398 54.9806L118.152 55.3353L172.733 0H171.678Z" fill="white" fill-opacity="0.55"/>
<path fill-rule="evenodd" clip-rule="evenodd" d="M131.231 68.2539L197.766 1.31738L197.563 2.23294L131.685 68.5103L131.231 68.257V68.2539Z" fill="white" fill-opacity="0.55"/>
<path fill-rule="evenodd" clip-rule="evenodd" d="M109.493 82.5328L132.123 73.1221C132.123 73.1221 132.424 73.7996 134.303 74.1008C136.183 74.4019 137.16 74.3266 137.16 74.3266L110.169 83.6621L109.493 82.5328Z" fill="#512F4D" fill-opacity="0.17"/>
<path fill-rule="evenodd" clip-rule="evenodd" d="M178.433 0L118.715 59.8042C118.715 59.8042 118.918 62.9614 121.539 65.1009C124.163 67.2404 127.389 67.8516 127.389 67.8516L194.472 0H178.433Z" fill="#0A6CB3" fill-opacity="0.19"/>
<path fill-rule="evenodd" clip-rule="evenodd" d="M15.9496 23.0565L12.6558 26.3502L9.36206 23.0565L12.6558 19.7627L15.9496 23.0565Z" fill="white"/>
<path fill-rule="evenodd" clip-rule="evenodd" d="M-16.988 52.5046L26.2954 8.56348L27.1485 9.41764L-16.1349 53.3587L-16.988 52.5046Z" fill="white"/>
<path fill-rule="evenodd" clip-rule="evenodd" d="M146.383 86.0931L204.159 28.3262L205.012 29.1884L147.236 86.9553L146.383 86.0931Z" fill="white"/>
<path fill-rule="evenodd" clip-rule="evenodd" d="M177.344 58.9581L173.721 62.5813L170.098 58.9581L173.721 55.335L177.344 58.9581Z" fill="white"/>
<path fill-rule="evenodd" clip-rule="evenodd" d="M76.5551 39.407L72.0622 41.5016L69.9675 37.0087L74.4604 34.9141L76.5551 39.407Z" fill="white"/>
<path fill-rule="evenodd" clip-rule="evenodd" d="M27.1484 11.1986C26.0582 11.1986 25.1721 10.3125 25.1721 9.22235C25.1721 8.13221 26.0582 7.24609 27.1484 7.24609C28.2385 7.24609 29.1246 8.13221 29.1246 9.22235C29.1246 10.3125 28.2385 11.1986 27.1484 11.1986Z" fill="white"/>
<path fill-rule="evenodd" clip-rule="evenodd" d="M62.7211 18.4447C61.631 18.4447 60.7449 17.5586 60.7449 16.4684C60.7449 15.3783 61.631 14.4922 62.7211 14.4922C63.8113 14.4922 64.6974 15.3783 64.6974 16.4684C64.6974 17.5586 63.8113 18.4447 62.7211 18.4447Z" fill="white"/>
<path fill-rule="evenodd" clip-rule="evenodd" d="M146.383 88.2728C145.293 88.2728 144.407 87.3867 144.407 86.2966C144.407 85.2064 145.293 84.3203 146.383 84.3203C147.473 84.3203 148.359 85.2064 148.359 86.2966C148.359 87.3867 147.473 88.2728 146.383 88.2728Z" fill="white"/>
<path fill-rule="evenodd" clip-rule="evenodd" d="M163.181 115.282C162.998 115.282 162.852 115.135 162.852 114.952C162.852 114.769 162.998 114.623 163.181 114.623C163.364 114.623 163.511 114.769 163.511 114.952C163.511 115.135 163.364 115.282 163.181 115.282Z" fill="white"/>
<defs>
<linearGradient id="paint0_linear" x1="117.684" y1="46.9304" x2="117.684" y2="89.3421" gradientUnits="userSpaceOnUse">
<stop stop-color="#F1B479"/>
<stop offset="1" stop-color="#EEA156"/>
</linearGradient>
<linearGradient id="paint1_linear" x1="128.615" y1="38.3972" x2="199.289" y2="38.3972" gradientUnits="userSpaceOnUse">
<stop stop-color="#40B4EE"/>
<stop offset="1" stop-color="#096AB1"/>
</linearGradient>
<linearGradient id="paint2_linear" x1="141.174" y1="-1.04423" x2="141.174" y2="56.9379" gradientUnits="userSpaceOnUse">
<stop stop-color="#096AB1"/>
<stop offset="1" stop-color="#40B4EE"/>
</linearGradient>
</defs>
</svg>
