<svg width="76" height="84" viewBox="0 0 76 84" fill="none" xmlns="http://www.w3.org/2000/svg">
<path fill-rule="evenodd" clip-rule="evenodd" d="M13.3802 83.4743C13.3802 83.4743 20.3681 85.2867 23.3459 82.1804C26.3214 79.0742 26.9706 72.8617 31.6277 66.5206C36.2871 60.1796 38.8749 59.9204 38.8749 59.9204C38.8749 59.9204 44.3098 60.8266 47.416 60.1796C50.5223 59.5327 50.6508 59.145 50.6508 59.145H84.5581V47.7568H28.7785L12.3433 78.6887L13.3779 83.4765L13.3802 83.4743Z" fill="#314B2E" fill-opacity="0.52"/>
<path fill-rule="evenodd" clip-rule="evenodd" d="M15.8391 7.59318L15.5798 4.22771C15.5798 4.22771 16.2711 2.06972 23.0862 0.689412C29.9014 -0.690899 32.0594 1.12145 32.0594 1.12145L32.7506 4.48693L15.8391 7.59318Z" fill="url(#paint0_linear)"/>
<path fill-rule="evenodd" clip-rule="evenodd" d="M17.2881 2.7432C17.2881 2.7432 19.0473 1.81043 20.2902 1.44929C21.5332 1.08594 21.6351 1.08594 21.6351 1.08594L22.4105 6.83317L18.0104 8.23121L17.2859 2.7432H17.2881Z" fill="white" fill-opacity="0.47"/>
<path fill-rule="evenodd" clip-rule="evenodd" d="M8.2021 80.8043C8.2021 80.8043 11.993 84.7702 15.6996 82.8293C19.4063 80.8885 20.8708 70.6812 26.2126 63.1748C31.5566 55.6662 35.9501 53.6434 35.9501 53.6434L49.3079 54.5717C56.3756 54.4033 82.2293 54.5717 82.2293 54.5717V24.7942V2.77792C82.2293 2.77792 67.8368 1.42862 50.3426 2.44115C32.8483 3.45367 26.1262 5.47872 26.1262 5.47872L7.94287 59.1292L8.2021 80.8087V80.8043Z" fill="url(#paint1_linear)"/>
<path fill-rule="evenodd" clip-rule="evenodd" d="M8.41919 80.8423C8.41919 80.8423 12.2145 84.8968 15.9256 82.9139C19.6345 80.9287 21.1034 70.4888 26.4519 62.8118C31.8003 55.1326 36.2004 53.0632 36.2004 53.0632L35.2522 48.6631C33.9206 49.3278 26.6247 51.1645 16.444 78.7751C15.323 81.5358 11.5254 84.1236 9.11046 80.7603L8.41919 80.8467V80.8423Z" fill="#556A8A" fill-opacity="0.53"/>
<path fill-rule="evenodd" clip-rule="evenodd" d="M39.6523 19.0676L36.9781 6.5562C36.9781 6.5562 36.2027 2.58808 32.3187 3.01791C28.437 3.44995 21.1899 4.57104 21.1899 4.57104C21.1899 4.57104 13.9427 5.4329 11.0092 12.5095C8.07579 19.5839 4.36468 29.0754 1.86328 42.7943C-0.638117 56.5133 0.828601 68.7633 4.10545 75.4078C7.38452 82.0523 11.1798 81.8795 12.3873 80.1536C13.5948 78.4276 20.0665 59.3603 25.5014 48.834C30.9362 38.3078 33.7832 34.1669 36.6303 29.4211C39.4773 24.6753 39.9958 23.8134 39.9958 22.1739C39.9958 20.5343 39.6501 19.0676 39.6501 19.0676H39.6523Z" fill="#D0D7E2"/>
<path fill-rule="evenodd" clip-rule="evenodd" d="M33.9914 23.9818C33.9914 23.9818 26.516 34.6144 21.6927 45.8098C18.2696 53.2962 16.8007 57.6321 16.3819 58.8219C16.3819 58.8219 15.4735 63.7184 13.238 61.5493C11.0025 59.3802 6.38961 52.7357 7.92723 37.4149C8.9752 25.6612 14.636 13.8388 14.8443 13.1387C14.8443 13.1387 16.5902 8.7319 21.8323 7.47124C25.745 6.56284 30.4974 6.14188 30.4974 6.14188C30.4974 6.14188 32.5247 5.65224 33.2226 8.17136L35.3894 17.756C36.1582 20.6252 33.9914 23.9818 33.9914 23.9818Z" fill="white" fill-opacity="0.58"/>
<path fill-rule="evenodd" clip-rule="evenodd" d="M36.0279 26.0551C36.0279 26.0551 26.7955 39.1692 20.8422 52.9745C16.6149 62.2069 14.8025 67.5553 14.2841 69.022C14.2841 69.022 13.163 75.0617 10.4024 72.3875C7.64177 69.7133 1.94771 61.5156 3.84425 42.6211C5.13815 28.1267 12.1261 13.5459 12.3853 12.6819C12.3853 12.6819 14.5433 7.24702 21.0128 5.69389C25.845 4.5728 31.7119 4.05435 31.7119 4.05435C31.7119 4.05435 34.2133 3.4495 35.0774 6.55575L37.7516 18.3759C38.6999 21.9142 36.0257 26.0551 36.0257 26.0551H36.0279Z" fill="white" fill-opacity="0.58"/>
<path fill-rule="evenodd" clip-rule="evenodd" d="M22.4061 18.4178C21.9851 17.8905 21.5132 17.4186 21.5132 16.8359V13.5878C21.5132 13.0051 21.9851 12.5332 22.5678 12.5332H26.7885C27.3712 12.5332 27.8431 13.0051 27.8431 13.5878V16.8359C27.8431 17.4186 27.3712 17.8905 26.8683 18.4998L25.4481 19.7582C24.7058 20.0684 24.6217 20.1127 23.9858 19.8402L22.4039 18.42L22.4061 18.4178Z" fill="#5A7192" fill-opacity="0.36"/>
<path fill-rule="evenodd" clip-rule="evenodd" d="M22.4061 24.3447C21.9851 24.872 21.5132 25.3439 21.5132 25.9266V29.1747C21.5132 29.7574 21.9851 30.2293 22.5678 30.2293H26.7885C27.3712 30.2293 27.8431 29.7574 27.8431 29.1747V25.9266C27.8431 25.3439 27.3712 24.872 26.8683 24.2627L25.4481 23.0042C24.7058 22.6941 24.6217 22.6498 23.9858 22.9223L22.4039 24.3425L22.4061 24.3447Z" fill="#5A7192" fill-opacity="0.36"/>
<path fill-rule="evenodd" clip-rule="evenodd" d="M21.6749 19.1497C21.1476 18.7288 20.6756 18.2568 20.0929 18.2568H16.8449C16.2622 18.2568 15.7903 18.7288 15.7903 19.3115V23.5321C15.7903 24.1148 16.2622 24.5868 16.8449 24.5868H20.0929C20.6756 24.5868 21.1476 24.1148 21.7569 23.6119L23.0153 22.1917C23.3255 21.4495 23.3698 21.3653 23.0973 20.7294L21.6771 19.1475L21.6749 19.1497Z" fill="#5A7192" fill-opacity="0.36"/>
<path fill-rule="evenodd" clip-rule="evenodd" d="M27.3979 19.1497C27.9252 18.7288 28.3971 18.2568 28.9798 18.2568H32.2279C32.8106 18.2568 33.2825 18.7288 33.2825 19.3115V23.5321C33.2825 24.1148 32.8106 24.5868 32.2279 24.5868H28.9798C28.3971 24.5868 27.9252 24.1148 27.3159 23.6119L26.0575 22.1917C25.7473 21.4495 25.703 21.3653 25.9755 20.7294L27.3957 19.1475L27.3979 19.1497Z" fill="#5A7192" fill-opacity="0.36"/>
<path fill-rule="evenodd" clip-rule="evenodd" d="M83.1354 24.418H49.1417C49.1417 24.418 46.0354 24.6772 44.8279 22.26C43.6204 19.845 40.8598 6.1261 40.8598 6.1261C40.8598 6.1261 39.7387 1.98517 43.102 1.2075C46.4674 0.432039 61.0482 0 68.209 0C75.3698 0 82.8762 0.775455 82.8762 0.775455L83.1354 24.4158V24.418Z" fill="url(#paint2_linear)"/>
<path fill-rule="evenodd" clip-rule="evenodd" d="M44.4402 55.9922C37.4123 55.9922 31.7161 50.2959 31.7161 43.2681C31.7161 36.2402 37.4123 30.5439 44.4402 30.5439C51.468 30.5439 57.1643 36.2402 57.1643 43.2681C57.1643 50.2959 51.468 55.9922 44.4402 55.9922Z" fill="url(#paint3_linear)"/>
<path fill-rule="evenodd" clip-rule="evenodd" d="M21.6307 17.6424C21.2097 17.1151 20.7378 16.6432 20.7378 16.0605V12.8124C20.7378 12.2297 21.2097 11.7578 21.7924 11.7578H26.0131C26.5958 11.7578 27.0677 12.2297 27.0677 12.8124V16.0605C27.0677 16.6432 26.5958 17.1151 26.0929 17.7244L24.6727 18.9828C23.9305 19.293 23.8463 19.3373 23.2104 19.0648L21.6285 17.6446L21.6307 17.6424Z" fill="url(#paint4_linear)"/>
<path fill-rule="evenodd" clip-rule="evenodd" d="M21.6641 16.7963C21.314 16.3576 20.9197 15.9655 20.9197 15.4803V12.7817C20.9197 12.2965 21.3141 11.9043 21.7993 11.9043H25.3176C25.8028 11.9043 26.1972 12.2965 26.1972 12.7817V15.4803C26.1972 15.9655 25.8028 16.3576 25.3863 16.8628L24.2032 17.9085C23.585 18.1655 23.5141 18.2032 22.9846 17.975L21.6663 16.7941L21.6641 16.7963Z" fill="white" fill-opacity="0.63"/>
<path fill-rule="evenodd" clip-rule="evenodd" d="M21.6307 23.5693C21.2097 24.0966 20.7378 24.5685 20.7378 25.1512V28.3993C20.7378 28.982 21.2097 29.4539 21.7924 29.4539H26.0131C26.5958 29.4539 27.0677 28.982 27.0677 28.3993V25.1512C27.0677 24.5685 26.5958 24.0966 26.0929 23.4873L24.6727 22.2289C23.9305 21.9187 23.8463 21.8744 23.2104 22.1469L21.6285 23.5671L21.6307 23.5693Z" fill="url(#paint5_linear)"/>
<path fill-rule="evenodd" clip-rule="evenodd" d="M21.8655 23.6029C21.5155 24.0416 21.1211 24.4338 21.1211 24.919V27.6176C21.1211 28.1028 21.5155 28.495 22.0007 28.495H25.519C26.0042 28.495 26.3986 28.1028 26.3986 27.6176V24.919C26.3986 24.4338 26.0042 24.0416 25.5877 23.5365L24.4046 22.4907C23.7864 22.2337 23.7155 22.196 23.186 22.4242L21.8677 23.6052L21.8655 23.6029Z" fill="white" fill-opacity="0.63"/>
<path fill-rule="evenodd" clip-rule="evenodd" d="M20.8995 18.3743C20.3722 17.9534 19.9003 17.4814 19.3176 17.4814H16.0695C15.4868 17.4814 15.0149 17.9534 15.0149 18.5361V22.7568C15.0149 23.3395 15.4868 23.8114 16.0695 23.8114H19.3176C19.9003 23.8114 20.3722 23.3395 20.9815 22.8365L22.2399 21.4163C22.5501 20.6741 22.5944 20.5899 22.3219 19.954L20.9017 18.3721L20.8995 18.3743Z" fill="url(#paint6_linear)"/>
<path fill-rule="evenodd" clip-rule="evenodd" d="M20.0534 18.4075C19.6147 18.0575 19.2225 17.6631 18.7373 17.6631H16.0387C15.5535 17.6631 15.1614 18.0575 15.1614 18.5427V22.061C15.1614 22.5462 15.5535 22.9406 16.0387 22.9406H18.7373C19.2225 22.9406 19.6147 22.5462 20.1199 22.1297L21.1656 20.9466C21.4226 20.3284 21.4603 20.2575 21.2321 19.728L20.0512 18.4097L20.0534 18.4075Z" fill="white" fill-opacity="0.63"/>
<path fill-rule="evenodd" clip-rule="evenodd" d="M26.6225 18.3743C27.1498 17.9534 27.6217 17.4814 28.2044 17.4814H31.4525C32.0352 17.4814 32.5071 17.9534 32.5071 18.5361V22.7568C32.5071 23.3395 32.0352 23.8114 31.4525 23.8114H28.2044C27.6217 23.8114 27.1498 23.3395 26.5405 22.8365L25.2821 21.4163C24.9719 20.6741 24.9276 20.5899 25.2001 19.954L26.6203 18.3721L26.6225 18.3743Z" fill="url(#paint7_linear)"/>
<path fill-rule="evenodd" clip-rule="evenodd" d="M26.8598 18.4075C27.2985 18.0575 27.6906 17.6631 28.1758 17.6631H30.8744C31.3596 17.6631 31.7518 18.0575 31.7518 18.5427V22.061C31.7518 22.5462 31.3596 22.9406 30.8744 22.9406H28.1758C27.6906 22.9406 27.2985 22.5462 26.7933 22.1297L25.7476 20.9466C25.4905 20.3284 25.4529 20.2575 25.6811 19.728L26.862 18.4097L26.8598 18.4075Z" fill="white" fill-opacity="0.63"/>
<path fill-rule="evenodd" clip-rule="evenodd" d="M15.2364 22.8624C15.2364 22.8624 14.9817 23.1171 16.9868 23.1171C18.9919 23.1171 19.271 23.1681 19.6255 23.0418C19.98 22.9155 22.0095 20.8351 22.138 20.5803C22.2643 20.3255 22.2643 20.1992 22.2643 20.1992C22.2643 20.1992 22.5435 20.8838 21.9851 21.5441C21.4268 22.2043 19.8294 23.6489 19.6011 23.6755C19.3729 23.6998 15.8723 23.6511 15.8723 23.6511C15.8723 23.6511 15.4669 23.6001 15.314 23.3476C15.1611 23.0928 15.2387 22.8646 15.2387 22.8646L15.2364 22.8624Z" fill="#596F8E"/>
<path fill-rule="evenodd" clip-rule="evenodd" d="M32.3609 18.6024C32.3609 18.6024 32.208 17.8911 31.9798 18.1459C31.7516 18.4007 31.8025 18.7043 31.8025 18.7043V22.8142C31.8025 22.8142 31.6497 23.0933 30.8388 23.1443C30.0279 23.1953 27.8455 23.1687 27.8455 23.1687L27.6926 23.5741L28.2244 23.6495L31.5987 23.5985C31.5987 23.5985 32.3343 23.3703 32.3343 22.9139C32.3343 22.4575 32.3587 18.6001 32.3587 18.6001L32.3609 18.6024Z" fill="#596F8E" fill-opacity="0.7"/>
<path fill-rule="evenodd" clip-rule="evenodd" d="M26.9059 25.1202C26.9059 25.1202 26.9059 24.5885 26.702 24.8167C26.4982 25.0449 26.4738 25.2221 26.4738 25.2221C26.4738 25.2221 26.5248 28.3173 26.27 28.5965C26.0152 28.8756 21.728 28.6984 21.728 28.6984L21.3735 29.2301L25.9399 29.2811C25.9399 29.2811 26.8527 29.2567 26.9036 28.5189C26.9546 27.7834 26.9036 25.1202 26.9036 25.1202H26.9059Z" fill="#596F8E" fill-opacity="0.7"/>
<path fill-rule="evenodd" clip-rule="evenodd" d="M26.9063 12.5885C26.9063 12.5885 26.4743 12.1321 26.3746 12.5132C26.2726 12.8942 26.3746 15.7856 26.2992 16.2686C26.2239 16.7516 23.9396 18.5019 23.9396 18.5019L23.7114 18.5528V19.1355C23.7114 19.1355 24.3451 19.0846 25.2092 18.2981C26.071 17.5115 26.8841 16.5987 26.9351 16.3195C26.9861 16.0404 26.9107 12.5907 26.9107 12.5907L26.9063 12.5885Z" fill="#596F8E" fill-opacity="0.7"/>
<path fill-rule="evenodd" clip-rule="evenodd" d="M25.2555 15.4341H22.6965L23.9749 13.0723L25.2533 15.4341H25.2555Z" fill="white"/>
<path fill-rule="evenodd" clip-rule="evenodd" d="M24.9985 15.4341H22.4395L23.7179 13.0723L24.9962 15.4341H24.9985Z" fill="#5A7192"/>
<path fill-rule="evenodd" clip-rule="evenodd" d="M25.2555 25.2041H22.6965L23.9749 27.5659L25.2533 25.2041H25.2555Z" fill="white"/>
<path fill-rule="evenodd" clip-rule="evenodd" d="M24.9985 25.2041H22.4395L23.7179 27.5659L24.9962 25.2041H24.9985Z" fill="#5A7192"/>
<path fill-rule="evenodd" clip-rule="evenodd" d="M18.8481 19.0547V21.6137L16.4863 20.3353L18.8481 19.0569V19.0547Z" fill="white"/>
<path fill-rule="evenodd" clip-rule="evenodd" d="M18.5889 19.0547V21.6137L16.2271 20.3353L18.5889 19.0569V19.0547Z" fill="#5A7192"/>
<path fill-rule="evenodd" clip-rule="evenodd" d="M28.6187 19.0547V21.6137L30.9805 20.3353L28.6187 19.0569V19.0547Z" fill="white"/>
<path fill-rule="evenodd" clip-rule="evenodd" d="M28.3596 19.0547V21.6137L30.7214 20.3353L28.3596 19.0569V19.0547Z" fill="#5A7192"/>
<path fill-rule="evenodd" clip-rule="evenodd" d="M35.5091 3.88184C35.5091 3.88184 35.3363 4.48669 34.8178 4.48669C34.2994 4.48669 34.2994 4.48669 34.2994 4.48669C34.2994 4.48669 35.1613 5.43496 36.4574 11.1312C37.7513 16.8253 38.1833 18.8105 38.1833 18.8105C38.1833 18.8105 38.7018 22.6058 37.235 24.5045C35.7683 26.4033 27.7435 37.8778 21.7902 51.6831C15.8369 65.4885 12.0416 77.1358 12.0416 77.1358C12.0416 77.1358 11.1797 79.8964 9.36738 79.81C7.55503 79.7236 6.95239 79.1188 6.95239 79.1188C6.95239 79.1188 9.5402 81.9658 11.7846 81.0175C14.0268 80.0692 15.4093 72.9062 17.5651 67.385C19.723 61.8638 24.7258 49.6116 30.8519 39.3445C36.978 29.0775 40.5141 24.5909 40.2571 21.6575C39.9979 18.7241 37.8421 7.50875 36.978 5.6964C36.1162 3.88405 35.5113 3.88405 35.5113 3.88405L35.5091 3.88184Z" fill="#5A7192" fill-opacity="0.69"/>
<path fill-rule="evenodd" clip-rule="evenodd" d="M43.1465 54.6982C36.1186 54.6982 30.4224 49.002 30.4224 41.9741C30.4224 34.9463 36.1186 29.25 43.1465 29.25C50.1743 29.25 55.8706 34.9463 55.8706 41.9741C55.8706 49.002 50.1743 54.6982 43.1465 54.6982Z" fill="#D0D7E2"/>
<path fill-rule="evenodd" clip-rule="evenodd" d="M43.2747 52.155C37.6272 52.155 33.0498 47.5775 33.0498 41.93C33.0498 36.2825 37.6272 31.7051 43.2747 31.7051C48.9223 31.7051 53.4997 36.2825 53.4997 41.93C53.4997 47.5775 48.9223 52.155 43.2747 52.155Z" fill="url(#paint8_linear)"/>
<path fill-rule="evenodd" clip-rule="evenodd" d="M43.1465 49.5674C38.8571 49.5674 35.3809 46.0911 35.3809 41.8018C35.3809 37.5124 38.8571 34.0361 43.1465 34.0361C47.4359 34.0361 50.9121 37.5124 50.9121 41.8018C50.9121 46.0911 47.4359 49.5674 43.1465 49.5674Z" fill="#D0D7E2"/>
<path fill-rule="evenodd" clip-rule="evenodd" d="M43.1461 46.8489C40.4298 46.8489 38.2275 44.6466 38.2275 41.9303C38.2275 39.214 40.4298 37.0117 43.1461 37.0117C45.8625 37.0117 48.0648 39.214 48.0648 41.9303C48.0648 44.6466 45.8625 46.8489 43.1461 46.8489Z" fill="url(#paint9_linear)"/>
<path fill-rule="evenodd" clip-rule="evenodd" d="M43.1466 45.6853C41.0019 45.6853 39.2649 43.9461 39.2649 41.8036C39.2649 39.6589 41.0041 37.9219 43.1466 37.9219C45.2913 37.9219 47.0283 39.6611 47.0283 41.8036C47.0283 43.9483 45.2891 45.6853 43.1466 45.6853Z" fill="#D0D7E2"/>
<path fill-rule="evenodd" clip-rule="evenodd" d="M36.3734 44.9521L36.7058 46.1418C35.8705 44.9033 35.3809 43.41 35.3809 41.8037C35.3809 37.5143 38.8571 34.0381 43.1465 34.0381C44.6088 34.0381 45.9758 34.4413 47.1412 35.1437L45.8628 34.9443C38.5292 33.1319 34.9045 40.2927 36.3712 44.9521H36.3734Z" fill="white"/>
<path fill-rule="evenodd" clip-rule="evenodd" d="M43.8753 42.4734C42.5902 43.3729 41.0039 43.3264 40.3326 42.367C39.6612 41.4077 40.1575 39.9011 41.4448 39.0015C42.7298 38.102 44.3162 38.1485 44.9875 39.1079C45.6588 40.0672 45.1625 41.5738 43.8753 42.4734Z" fill="white"/>
<path fill-rule="evenodd" clip-rule="evenodd" d="M42.9248 40.8176C42.2734 41.274 41.5046 41.3006 41.2077 40.8774C40.9108 40.4542 41.1988 39.7408 41.8524 39.2844C42.5038 38.828 43.2726 38.8014 43.5695 39.2246C43.8664 39.6477 43.5784 40.3612 42.9248 40.8176Z" fill="white"/>
<path fill-rule="evenodd" clip-rule="evenodd" d="M60.7182 33.7328C60.0535 33.7328 59.5129 33.1922 59.5129 32.5275C59.5129 31.8629 60.0535 31.3223 60.7182 31.3223C61.3829 31.3223 61.9235 31.8629 61.9235 32.5275C61.9235 33.1922 61.3829 33.7328 60.7182 33.7328Z" fill="white" fill-opacity="0.29"/>
<path fill-rule="evenodd" clip-rule="evenodd" d="M83.2662 21.6442H49.2038C49.2038 21.6442 46.0909 21.8724 44.8812 19.7432C43.6715 17.6141 40.9042 5.52803 40.9042 5.52803C40.9042 5.52803 39.7809 1.87896 43.153 1.19434C46.5251 0.509725 61.1347 0.130859 68.311 0.130859C75.4873 0.130859 83.007 0.815476 83.007 0.815476L83.2662 21.6464V21.6442Z" fill="white"/>
<path fill-rule="evenodd" clip-rule="evenodd" d="M60.1999 33.7328C59.5352 33.7328 58.9946 33.1922 58.9946 32.5275C58.9946 31.8629 59.5352 31.3223 60.1999 31.3223C60.8646 31.3223 61.4052 31.8629 61.4052 32.5275C61.4052 33.1922 60.8646 33.7328 60.1999 33.7328Z" fill="black"/>
<path fill-rule="evenodd" clip-rule="evenodd" d="M62.6459 49.9548C62.0033 49.9548 61.4805 49.4342 61.4805 48.7894C61.4805 48.1469 62.0011 47.624 62.6459 47.624H68.8584C69.5009 47.624 70.0238 48.1447 70.0238 48.7894C70.0238 49.4319 69.5031 49.9548 68.8584 49.9548H62.6459Z" fill="url(#paint10_linear)"/>
<path fill-rule="evenodd" clip-rule="evenodd" d="M62.1271 49.4382C61.4846 49.4382 60.9617 48.9176 60.9617 48.2728C60.9617 47.6303 61.4823 47.1074 62.1271 47.1074H68.3396C68.9821 47.1074 69.505 47.6281 69.505 48.2728C69.505 48.9153 68.9843 49.4382 68.3396 49.4382H62.1271Z" fill="#D0D7E2"/>
<path fill-rule="evenodd" clip-rule="evenodd" d="M62.4351 48.7919C61.8591 48.7919 61.3938 48.5017 61.3938 48.145C61.3938 47.7883 61.8591 47.498 62.4351 47.498H67.9874C68.5634 47.498 69.0287 47.7883 69.0287 48.145C69.0287 48.5017 68.5634 48.7919 67.9874 48.7919H62.4351Z" fill="white"/>
<path fill-rule="evenodd" clip-rule="evenodd" d="M47.7617 21.5684V24.329H82.5331V21.6548L47.7617 21.5684Z" fill="#5A7192" fill-opacity="0.23"/>
<path fill-rule="evenodd" clip-rule="evenodd" d="M82.4464 1.81261C82.4464 1.81261 72.6978 0.864336 60.0135 1.20775C47.3315 1.55338 45.0871 2.15602 45.0871 2.15602C45.0871 2.15602 42.9291 2.41525 43.1884 4.48461C43.4476 6.55618 45.0007 10.4379 45.0007 10.4379C45.0007 10.4379 45.692 11.2133 60.1863 11.991C74.6807 12.7665 82.792 12.3366 82.792 12.3366L82.4464 1.81039V1.81261Z" fill="white"/>
<path fill-rule="evenodd" clip-rule="evenodd" d="M25.4149 4.91895C25.4149 4.91895 16.7009 5.26458 13.5083 10.8722C10.3156 16.4799 6.77954 28.0408 6.77954 28.0408C6.77954 28.0408 13.6811 11.5613 16.6145 8.97347C19.548 6.38566 25.4149 4.91895 25.4149 4.91895Z" fill="white"/>
<path fill-rule="evenodd" clip-rule="evenodd" d="M5.57202 77.5656C5.57202 77.5656 8.33264 81.2745 10.4042 79.2916C12.4758 77.3064 12.0438 77.3928 12.8192 74.2866C13.5947 71.1803 17.3058 61.8616 20.0664 55.5649C22.827 49.2659 24.2937 46.2461 24.2937 46.2461C24.2937 46.2461 14.4587 66.8666 12.7328 72.8199C11.0069 78.7731 9.54014 79.8078 7.81419 78.6867C6.08825 77.5656 5.57202 77.5656 5.57202 77.5656Z" fill="white"/>
<path fill-rule="evenodd" clip-rule="evenodd" d="M43.1464 54.6989C40.0933 54.6989 37.2906 53.6243 35.0994 51.8319L36.6325 52.5453C50.0058 58.6714 58.3741 45.9872 54.4924 36.7571L54.1113 35.5186C55.228 37.4107 55.8705 39.6196 55.8705 41.977C55.8705 49.0048 50.1742 54.7011 43.1464 54.7011V54.6989Z" fill="white"/>
<path fill-rule="evenodd" clip-rule="evenodd" d="M44.1389 18.292C44.1389 18.292 45.0872 21.0526 48.7119 21.139C52.3366 21.2254 82.8785 21.3118 82.8785 21.3118L82.6193 22.0031L49.4874 21.6575C49.4874 21.6575 47.1588 21.5711 45.8627 20.7956C44.5688 20.0201 44.1367 18.2942 44.1367 18.2942L44.1389 18.292Z" fill="white" fill-opacity="0.51"/>
<path fill-rule="evenodd" clip-rule="evenodd" d="M65.5925 33.7328C64.9278 33.7328 64.3872 33.1922 64.3872 32.5275C64.3872 31.8629 64.9278 31.3223 65.5925 31.3223C66.2572 31.3223 66.7978 31.8629 66.7978 32.5275C66.7978 33.1922 66.2572 33.7328 65.5925 33.7328Z" fill="white" fill-opacity="0.29"/>
<path fill-rule="evenodd" clip-rule="evenodd" d="M65.0742 33.7328C64.4095 33.7328 63.8689 33.1922 63.8689 32.5275C63.8689 31.8629 64.4095 31.3223 65.0742 31.3223C65.7389 31.3223 66.2795 31.8629 66.2795 32.5275C66.2795 33.1922 65.7389 33.7328 65.0742 33.7328Z" fill="black"/>
<path fill-rule="evenodd" clip-rule="evenodd" d="M70.6884 33.7328C70.0238 33.7328 69.4832 33.1922 69.4832 32.5275C69.4832 31.8629 70.0238 31.3223 70.6884 31.3223C71.3531 31.3223 71.8937 31.8629 71.8937 32.5275C71.8937 33.1922 71.3531 33.7328 70.6884 33.7328Z" fill="white" fill-opacity="0.29"/>
<path fill-rule="evenodd" clip-rule="evenodd" d="M70.1699 33.7328C69.5052 33.7328 68.9646 33.1922 68.9646 32.5275C68.9646 31.8629 69.5052 31.3223 70.1699 31.3223C70.8346 31.3223 71.3752 31.8629 71.3752 32.5275C71.3752 33.1922 70.8346 33.7328 70.1699 33.7328Z" fill="black"/>
<path fill-rule="evenodd" clip-rule="evenodd" d="M75.5627 33.7328C74.898 33.7328 74.3574 33.1922 74.3574 32.5275C74.3574 31.8629 74.898 31.3223 75.5627 31.3223C76.2274 31.3223 76.768 31.8629 76.768 32.5275C76.768 33.1922 76.2274 33.7328 75.5627 33.7328Z" fill="white" fill-opacity="0.29"/>
<path fill-rule="evenodd" clip-rule="evenodd" d="M75.0441 33.7328C74.3795 33.7328 73.8389 33.1922 73.8389 32.5275C73.8389 31.8629 74.3795 31.3223 75.0441 31.3223C75.7088 31.3223 76.2494 31.8629 76.2494 32.5275C76.2494 33.1922 75.7088 33.7328 75.0441 33.7328Z" fill="black"/>
<path fill-rule="evenodd" clip-rule="evenodd" d="M63.5981 38.1635C62.9334 38.1635 62.3928 37.6229 62.3928 36.9582C62.3928 36.2935 62.9334 35.7529 63.5981 35.7529C64.2628 35.7529 64.8034 36.2935 64.8034 36.9582C64.8034 37.6229 64.2628 38.1635 63.5981 38.1635Z" fill="white" fill-opacity="0.29"/>
<path fill-rule="evenodd" clip-rule="evenodd" d="M63.0798 38.1635C62.4151 38.1635 61.8745 37.6229 61.8745 36.9582C61.8745 36.2935 62.4151 35.7529 63.0798 35.7529C63.7445 35.7529 64.2851 36.2935 64.2851 36.9582C64.2851 37.6229 63.7445 38.1635 63.0798 38.1635Z" fill="black"/>
<path fill-rule="evenodd" clip-rule="evenodd" d="M68.694 38.1635C68.0294 38.1635 67.4888 37.6229 67.4888 36.9582C67.4888 36.2935 68.0294 35.7529 68.694 35.7529C69.3587 35.7529 69.8993 36.2935 69.8993 36.9582C69.8993 37.6229 69.3587 38.1635 68.694 38.1635Z" fill="white" fill-opacity="0.29"/>
<path fill-rule="evenodd" clip-rule="evenodd" d="M68.1757 38.1635C67.5111 38.1635 66.9705 37.6229 66.9705 36.9582C66.9705 36.2935 67.5111 35.7529 68.1757 35.7529C68.8404 35.7529 69.381 36.2935 69.381 36.9582C69.381 37.6229 68.8404 38.1635 68.1757 38.1635Z" fill="black"/>
<path fill-rule="evenodd" clip-rule="evenodd" d="M73.5683 38.1635C72.9036 38.1635 72.363 37.6229 72.363 36.9582C72.363 36.2935 72.9036 35.7529 73.5683 35.7529C74.233 35.7529 74.7736 36.2935 74.7736 36.9582C74.7736 37.6229 74.233 38.1635 73.5683 38.1635Z" fill="white" fill-opacity="0.29"/>
<path fill-rule="evenodd" clip-rule="evenodd" d="M73.05 38.1635C72.3853 38.1635 71.8447 37.6229 71.8447 36.9582C71.8447 36.2935 72.3853 35.7529 73.05 35.7529C73.7147 35.7529 74.2553 36.2935 74.2553 36.9582C74.2553 37.6229 73.7147 38.1635 73.05 38.1635Z" fill="black"/>
<defs>
<linearGradient id="paint0_linear" x1="14.1752" y1="3.19967" x2="33.8939" y2="3.19967" gradientUnits="userSpaceOnUse">
<stop stop-color="#414141"/>
<stop offset="1"/>
</linearGradient>
<linearGradient id="paint1_linear" x1="44.972" y1="0.0970548" x2="44.972" y2="85.8403" gradientUnits="userSpaceOnUse">
<stop stop-color="#4F4F4F"/>
<stop offset="1"/>
</linearGradient>
<linearGradient id="paint2_linear" x1="61.1457" y1="-1.23187" x2="61.1457" y2="25.7983" gradientUnits="userSpaceOnUse">
<stop stop-color="#E0E4EB"/>
<stop offset="1" stop-color="#98A7BC"/>
</linearGradient>
<linearGradient id="paint3_linear" x1="30.349" y1="29.1215" x2="58.2654" y2="57.0379" gradientUnits="userSpaceOnUse">
<stop stop-color="#DEE3EB"/>
<stop offset="1" stop-color="#5A7192"/>
</linearGradient>
<linearGradient id="paint4_linear" x1="23.7023" y1="10.5104" x2="23.7023" y2="20.4806" gradientUnits="userSpaceOnUse">
<stop stop-color="#D0D7E2"/>
<stop offset="1" stop-color="#8194B1"/>
</linearGradient>
<linearGradient id="paint5_linear" x1="23.7023" y1="20.4808" x2="23.7023" y2="30.6725" gradientUnits="userSpaceOnUse">
<stop stop-color="#D0D7E2"/>
<stop offset="1" stop-color="#8194B1"/>
</linearGradient>
<linearGradient id="paint6_linear" x1="18.6064" y1="16.0502" x2="18.6064" y2="24.9125" gradientUnits="userSpaceOnUse">
<stop stop-color="#D0D7E2"/>
<stop offset="1" stop-color="#8194B1"/>
</linearGradient>
<linearGradient id="paint7_linear" x1="28.5767" y1="16.0502" x2="28.5767" y2="24.9125" gradientUnits="userSpaceOnUse">
<stop stop-color="#D0D7E2"/>
<stop offset="1" stop-color="#8194B1"/>
</linearGradient>
<linearGradient id="paint8_linear" x1="31.6784" y1="30.4511" x2="54.4989" y2="53.2716" gradientUnits="userSpaceOnUse">
<stop stop-color="#DEE3EB"/>
<stop offset="1" stop-color="#5A7192"/>
</linearGradient>
<linearGradient id="paint9_linear" x1="36.9957" y1="35.7688" x2="49.1814" y2="47.9545" gradientUnits="userSpaceOnUse">
<stop stop-color="#DEE3EB"/>
<stop offset="1" stop-color="#5A7192"/>
</linearGradient>
<linearGradient id="paint10_linear" x1="65.5771" y1="46.4032" x2="65.5771" y2="51.056" gradientUnits="userSpaceOnUse">
<stop stop-color="#AFBBCD"/>
<stop offset="1" stop-color="#5A7192"/>
</linearGradient>
</defs>
</svg>
