<svg width="12" height="12" viewBox="0 0 12 12" fill="none" xmlns="http://www.w3.org/2000/svg">
<path fill-rule="evenodd" clip-rule="evenodd" d="M6.35706 1.72042L7.51506 4.04991C7.57306 4.16741 7.68506 4.24941 7.81506 4.26841L10.4076 4.64291C10.5126 4.65691 10.6071 4.71191 10.6716 4.79591C10.7926 4.95341 10.7741 5.17641 10.6291 5.31191L8.75006 7.12891C8.65456 7.21891 8.61206 7.35091 8.63706 7.47941L9.08706 10.0434C9.11856 10.2559 8.97356 10.4549 8.76106 10.4894C8.67306 10.5029 8.58306 10.4889 8.50306 10.4494L6.19406 9.23891C6.07806 9.17591 5.93906 9.17591 5.82306 9.23891L3.49706 10.4559C3.30256 10.5549 3.06456 10.4814 2.95856 10.2909C2.91806 10.2139 2.90406 10.1264 2.91806 10.0409L3.36806 7.47691C3.39056 7.34891 3.34806 7.21741 3.25506 7.12691L1.36606 5.31041C1.21206 5.15741 1.21106 4.90841 1.36456 4.75441C1.36506 4.75391 1.36556 4.75291 1.36606 4.75241C1.42956 4.69491 1.50756 4.65641 1.59206 4.64141L4.18506 4.26691C4.31456 4.24641 4.42606 4.16541 4.48506 4.04791L5.64206 1.72042C5.68856 1.62592 5.77106 1.55342 5.87106 1.52042C5.97156 1.48692 6.08156 1.49492 6.17606 1.54242C6.25356 1.58092 6.31706 1.64342 6.35706 1.72042Z" stroke="white" stroke-width="1.5" stroke-linecap="round" stroke-linejoin="round"/>
</svg>
