<svg width="16" height="16" viewBox="0 0 16 16" fill="none" xmlns="http://www.w3.org/2000/svg">
<path d="M14.9476 7.56068L13.7076 6.14068L13.8809 4.26068C13.9142 3.92735 13.6876 3.62068 13.3676 3.54735L11.5276 3.13402L10.5676 1.50735C10.3942 1.22068 10.0409 1.10068 9.72757 1.23402L8.0009 1.97402L6.27423 1.23402C5.96757 1.10068 5.60757 1.22068 5.4409 1.50735L4.47423 3.12735L2.6409 3.54068C2.31423 3.61402 2.08757 3.91402 2.1209 4.24735L2.29423 6.13402L1.04757 7.56068C0.827568 7.81402 0.827568 8.18735 1.04757 8.44068L2.29423 9.86068L2.1209 11.7473C2.08757 12.0807 2.31423 12.3873 2.63423 12.4607L4.47423 12.8807L5.43423 14.5007C5.60757 14.7873 5.96757 14.9073 6.27423 14.774L8.0009 14.0207L9.72757 14.7607C10.0342 14.894 10.3942 14.774 10.5609 14.4873L11.5209 12.8673L13.3609 12.4473C13.6876 12.374 13.9076 12.0673 13.8742 11.734L13.7009 9.85402L14.9409 8.43402C15.0496 8.31492 15.1104 8.15985 15.1116 7.99863C15.1128 7.83741 15.0544 7.68142 14.9476 7.56068ZM6.8209 9.88735L5.40757 8.47402C5.34585 8.41229 5.29689 8.33902 5.26348 8.25838C5.23008 8.17774 5.21289 8.0913 5.21289 8.00402C5.21289 7.91673 5.23008 7.8303 5.26348 7.74965C5.29689 7.66901 5.34585 7.59574 5.40757 7.53402C5.46929 7.47229 5.54256 7.42333 5.62321 7.38993C5.70385 7.35653 5.79028 7.33934 5.87757 7.33934C5.96485 7.33934 6.05129 7.35653 6.13193 7.38993C6.21257 7.42333 6.28585 7.47229 6.34757 7.53402L7.28757 8.47402L9.64757 6.11402C9.70929 6.05229 9.78256 6.00333 9.86321 5.96993C9.94385 5.93653 10.0303 5.91933 10.1176 5.91933C10.2049 5.91933 10.2913 5.93653 10.3719 5.96993C10.4526 6.00333 10.5258 6.05229 10.5876 6.11402C10.6493 6.17574 10.6982 6.24901 10.7317 6.32965C10.7651 6.4103 10.7822 6.49673 10.7822 6.58402C10.7822 6.6713 10.7651 6.75774 10.7317 6.83838C10.6982 6.91902 10.6493 6.99229 10.5876 7.05402L7.7609 9.88068C7.50757 10.1473 7.0809 10.1473 6.8209 9.88735Z" fill="white"/>
</svg>
