<svg width="77" height="85" viewBox="0 0 77 85" fill="none" xmlns="http://www.w3.org/2000/svg">
<path fill-rule="evenodd" clip-rule="evenodd" d="M88.1122 40.7785C83.8592 43.2339 76.9702 39.2611 72.7219 31.9043C68.476 24.5475 68.4784 16.5947 72.7314 14.1393C76.9845 11.6839 83.8734 15.6567 88.1217 23.0135C92.3677 30.3703 92.3653 38.3231 88.1122 40.7785Z" fill="#DAE0E8"/>
<path fill-rule="evenodd" clip-rule="evenodd" d="M84.9439 54.3261C77.174 58.8119 65.1747 52.576 58.1409 40.3939C51.1094 28.2141 51.7079 14.7022 59.4778 10.2164C67.2478 5.73061 79.247 11.9665 86.2809 24.1487C93.3123 36.3284 92.7139 49.8403 84.9439 54.3261Z" fill="#54698A"/>
<path fill-rule="evenodd" clip-rule="evenodd" d="M82.8069 55.7509C75.037 60.2367 63.0377 54.0008 56.0039 41.8187C48.9725 29.6389 49.5709 16.127 57.3409 11.6412C65.1108 7.15542 77.1101 13.3913 84.1439 25.5735C91.1753 37.7532 90.5769 51.2652 82.8069 55.7509Z" fill="url(#paint0_linear)"/>
<path fill-rule="evenodd" clip-rule="evenodd" d="M39.7657 78.1805C38.2626 79.2088 35.8071 80.3961 33.7507 80.2394C27.1016 79.7645 19.467 72.3459 13.9743 62.833C8.58616 53.5028 5.57268 43.9851 8.26319 37.8917C9.1347 35.8328 12.2004 33.9283 13.9696 32.9048C21.1245 28.7729 32.7272 35.4742 39.8869 47.8725C47.0441 60.2707 47.208 72.7188 39.7681 78.1805H39.7657Z" fill="#3A3A3A"/>
<path fill-rule="evenodd" clip-rule="evenodd" d="M35.9662 81.5048C34.463 82.533 32.0076 83.7203 29.9511 83.5636C23.302 83.0887 15.6674 75.6702 10.1748 66.1572C4.7866 56.8271 1.77312 47.3093 4.46363 41.2159C5.33514 39.157 8.40086 37.2525 10.17 36.2291C17.3249 32.0971 28.9276 38.7985 36.0873 51.1967C43.2446 63.5949 43.4084 76.043 35.9686 81.5048H35.9662Z" fill="url(#paint1_linear)"/>
<path fill-rule="evenodd" clip-rule="evenodd" d="M33.829 82.455C32.3258 83.4832 29.8704 84.6705 27.8139 84.5138C21.1648 84.0389 13.5302 76.6204 8.03754 67.1074C2.64939 57.7773 -0.364089 48.2595 2.32643 42.1661C3.19794 40.1072 6.26365 38.2027 8.03279 37.1792C15.1877 33.0473 26.7904 39.7487 33.9501 52.1469C41.1074 64.5451 41.2712 76.9932 33.8313 82.455H33.829Z" fill="url(#paint2_linear)"/>
<path fill-rule="evenodd" clip-rule="evenodd" d="M31.578 83.4998C24.4231 87.6318 12.8204 80.9304 5.66072 68.5322C-1.49658 56.134 -1.49896 42.736 5.65596 38.6041C12.8109 34.4721 24.4136 41.1735 31.5733 53.5717C38.7306 65.9699 38.7329 79.3679 31.578 83.4998Z" fill="url(#paint3_linear)"/>
<path fill-rule="evenodd" clip-rule="evenodd" d="M27.1514 79.65C26.1421 80.2318 23.8553 81.5046 22.7487 81.583C16.9711 82.217 10.7969 76.4062 6.1283 68.3204C1.75889 60.7499 -0.0482482 52.6118 2.72301 47.7841C3.43541 46.3593 5.50138 45.2147 6.82883 44.4477C12.8273 40.983 22.2405 46.0577 27.8519 55.7773C33.4633 65.4993 33.1498 76.1853 27.1514 79.65Z" fill="#3A3A3A"/>
<path fill-rule="evenodd" clip-rule="evenodd" d="M25.2516 80.8375C19.2531 84.3022 9.83989 79.2275 4.22852 69.5079C-1.38286 59.7859 -1.0694 49.0998 4.92904 45.6352C10.9275 42.1705 20.3407 47.2452 25.9521 56.9648C31.5635 66.6868 31.25 77.3728 25.2516 80.8375Z" fill="url(#paint4_linear)"/>
<path fill-rule="evenodd" clip-rule="evenodd" d="M23.5561 79.6688C17.978 82.8889 9.37923 78.434 4.34728 69.7213C-0.684674 61.0062 -0.240607 51.3318 5.33515 48.1117C10.9133 44.8916 19.512 49.3465 24.544 58.0592C29.5759 66.7743 29.1318 76.4488 23.5561 79.6688Z" fill="url(#paint5_linear)"/>
<path fill-rule="evenodd" clip-rule="evenodd" d="M22.6303 79.8588C17.482 82.8319 9.29883 78.2939 4.35236 69.7284C-0.5941 61.1605 -0.430246 51.8067 4.71807 48.8336C9.86638 45.8605 18.0495 50.3985 22.996 58.964C27.9425 67.5318 27.7786 76.8857 22.6303 79.8588Z" fill="url(#paint6_linear)" fill-opacity="0.39"/>
<path fill-rule="evenodd" clip-rule="evenodd" d="M80.4322 57.413C72.6622 61.8988 60.663 55.6629 53.6291 43.4808C46.5977 31.301 47.1961 17.7891 54.9661 13.3033C62.7361 8.81753 74.7353 15.0534 81.7691 27.2356C88.8006 39.4153 88.2022 52.9273 80.4322 57.413Z" fill="#3A3A3A"/>
<path fill-rule="evenodd" clip-rule="evenodd" d="M73.1751 48.6343C68.7938 51.1633 61.7743 47.2095 57.4951 39.8005C53.2183 32.3915 53.3014 24.3342 57.6827 21.8051C62.064 19.2761 69.0835 23.2299 73.3627 30.639C77.6395 38.048 77.5564 46.1053 73.1751 48.6343Z" fill="black" fill-opacity="0.39"/>
<path fill-rule="evenodd" clip-rule="evenodd" d="M74.3627 50.5336C69.9814 53.0626 62.8574 48.9307 58.4547 41.3008C54.0497 33.6709 54.0331 25.4379 58.4144 22.9065C62.7957 20.3775 69.9197 24.5094 74.3224 32.1393C78.7274 39.7691 78.744 48.0022 74.3627 50.5336Z" fill="#526788"/>
<path fill-rule="evenodd" clip-rule="evenodd" d="M66.9152 9.15547C66.9152 9.15547 59.632 36.4643 58.0505 41.4512C56.4665 46.438 56.3098 47.2288 56.3098 47.2288C56.3098 47.2288 58.922 50.8692 61.2183 52.6905C63.5146 54.5119 66.7584 56.49 66.7584 56.49H66.9959L77.8411 14.299C77.8411 14.299 75.6255 12.3209 72.0635 10.6586C68.5014 8.99637 66.9175 9.15547 66.9175 9.15547H66.9152Z" fill="black" fill-opacity="0.12"/>
<path fill-rule="evenodd" clip-rule="evenodd" d="M78.0768 14.0635L76.8894 13.5102L75.3862 -5.4873H77.5234C77.5234 -5.4873 79.3448 -0.422107 79.1074 5.5146C78.8699 11.4513 78.0791 14.0635 78.0791 14.0635H78.0768Z" fill="white"/>
<path fill-rule="evenodd" clip-rule="evenodd" d="M23.54 45.8038L31.5355 37.8082C31.5355 37.8082 28.1326 34.562 25.5988 33.5338C23.065 32.5055 22.4334 32.4248 22.4334 32.4248L20.2178 37.2525L22.2766 45.4048L23.5423 45.8014L23.54 45.8038Z" fill="black" fill-opacity="0.27"/>
<path fill-rule="evenodd" clip-rule="evenodd" d="M42.6938 -5.25171C42.6938 -5.25171 32.4043 3.05968 26.4676 18.2576C20.5309 33.4556 22.6681 42.5578 22.6681 42.5578L23.3805 46.0414L22.2716 46.7538L21.4001 46.1198C21.4001 46.1198 17.204 32.2683 22.4283 17.5452C27.6526 2.82221 39.1294 -5.33008 39.1294 -5.33008L42.6915 -5.25171H42.6938Z" fill="white"/>
<path fill-rule="evenodd" clip-rule="evenodd" d="M12.2197 41.5295L22.1151 46.7538C22.1151 46.7538 19.1871 37.5709 23.1433 24.1159C27.1019 10.6586 34.1452 1.87226 37.313 -1.76813C40.4785 -5.40852 40.9534 -5.48926 40.9534 -5.48926L25.3589 -5.33015C25.3589 -5.33015 17.5224 4.40605 14.0388 15.408C10.5551 26.4099 11.1108 32.2682 11.3482 36.3835C11.5857 40.4989 12.2197 41.5295 12.2197 41.5295Z" fill="#C7CFDC"/>
<path fill-rule="evenodd" clip-rule="evenodd" d="M77.0484 13.4296C77.0484 13.4296 78.3948 4.72163 77.7608 -0.343566C77.1267 -5.40876 75.7827 -6.28027 75.7827 -6.28027L67.4713 -5.8837C67.4713 -5.8837 68.4211 -0.896867 67.7087 3.77413C66.9963 8.44514 66.918 9.15754 66.918 9.15754C66.918 9.15754 70.48 9.63248 73.7262 11.5322C76.9724 13.432 77.0507 13.432 77.0507 13.432L77.0484 13.4296Z" fill="#C7CFDC"/>
<path fill-rule="evenodd" clip-rule="evenodd" d="M22.1333 46.6155C22.1333 46.6155 20.0555 38.3042 21.599 30.5864C23.1425 22.8687 23.9143 21.3252 23.9143 21.3252L13.5844 16.7539C13.5844 16.7539 11.1504 23.5811 11.1504 30.9426C11.1504 38.3042 11.8628 41.3912 11.8628 41.3912L22.1333 46.6155Z" fill="#556B8C" fill-opacity="0.52"/>
<path fill-rule="evenodd" clip-rule="evenodd" d="M76.9296 13.5481C76.9296 13.5481 73.6644 11.4109 70.8148 10.4017C67.9651 9.39241 66.8372 9.09558 66.8372 9.09558C66.8372 9.09558 67.787 4.58368 67.9058 1.97153C68.0245 -0.640625 68.0245 -0.640625 68.0245 -0.640625L77.8794 2.44646C77.8794 2.44646 77.9982 7.13646 77.642 9.57051C77.2858 12.0046 76.9296 13.5481 76.9296 13.5481Z" fill="#556B8C" fill-opacity="0.65"/>
<path fill-rule="evenodd" clip-rule="evenodd" d="M20.2835 56.7989C20.2835 56.7989 14.0737 49.0432 8.03254 48.9577C1.99134 48.8722 1.65176 56.7134 1.82274 58.6726C1.99372 60.6317 4.80059 57.991 11.946 58.8435C19.0914 59.696 23.2614 62.7641 22.9218 61.7406C22.5822 60.7172 21.6466 58.758 20.8796 57.6491C20.1149 56.5401 20.2835 56.7966 20.2835 56.7966V56.7989Z" fill="white" fill-opacity="0.88"/>
<path fill-rule="evenodd" clip-rule="evenodd" d="M6.7669 71.9346C6.7669 71.9346 12.9767 79.6903 19.0179 79.7758C25.0591 79.8613 25.3987 72.0201 25.2277 70.061C25.0567 68.1019 25.0425 78.9708 16.9685 77.3085C10.082 75.8837 3.78904 65.9694 4.12862 66.9929C4.4682 68.0164 5.40383 69.9755 6.17085 71.0845C6.9355 72.1935 6.7669 71.937 6.7669 71.937V71.9346Z" fill="#677C9C" fill-opacity="0.33"/>
<defs>
<linearGradient id="paint0_linear" x1="69.9243" y1="5.83035" x2="69.9243" y2="61.3979" gradientUnits="userSpaceOnUse">
<stop stop-color="#C6CEDA"/>
<stop offset="1" stop-color="#6F83A0"/>
</linearGradient>
<linearGradient id="paint1_linear" x1="-4.08997" y1="36.2006" x2="48.9509" y2="79.472" gradientUnits="userSpaceOnUse">
<stop stop-color="#5A7192"/>
<stop offset="1" stop-color="#506485"/>
</linearGradient>
<linearGradient id="paint2_linear" x1="-6.22718" y1="37.1508" x2="46.8137" y2="80.4222" gradientUnits="userSpaceOnUse">
<stop stop-color="#889AB7"/>
<stop offset="1" stop-color="#5A7192"/>
</linearGradient>
<linearGradient id="paint3_linear" x1="-8.37841" y1="40.1215" x2="45.4034" y2="81.7259" gradientUnits="userSpaceOnUse">
<stop stop-color="#DEE3EB"/>
<stop offset="1" stop-color="#5A7192"/>
</linearGradient>
<linearGradient id="paint4_linear" x1="-6.78289" y1="45.837" x2="36.6833" y2="80.2842" gradientUnits="userSpaceOnUse">
<stop stop-color="#DEE3EB"/>
<stop offset="1" stop-color="#5A7192"/>
</linearGradient>
<linearGradient id="paint5_linear" x1="-5.48866" y1="47.6391" x2="34.2018" y2="79.6688" gradientUnits="userSpaceOnUse">
<stop stop-color="#DEE3EB"/>
<stop offset="1" stop-color="#8FA0BA"/>
</linearGradient>
<linearGradient id="paint6_linear" x1="13.407" y1="44.5378" x2="13.407" y2="83.9575" gradientUnits="userSpaceOnUse">
<stop stop-color="white"/>
<stop offset="1" stop-color="#DEE3EB"/>
</linearGradient>
</defs>
</svg>
