<svg width="154" height="125" viewBox="0 0 154 125" fill="none" xmlns="http://www.w3.org/2000/svg">
<g clip-path="url(#clip0)">
<path fill-rule="evenodd" clip-rule="evenodd" d="M125.383 87.2375C98.1897 87.2375 76.1423 65.1928 76.1423 37.9967C76.1423 10.8032 98.1871 -11.2441 125.383 -11.2441C152.577 -11.2441 174.624 10.8006 174.624 37.9967C174.624 65.1902 152.579 87.2375 125.383 87.2375Z" fill="url(#paint0_linear)"/>
<path fill-rule="evenodd" clip-rule="evenodd" d="M134.2 -1.52962C134.612 -1.64717 134.994 -1.36766 135.289 -1.19003C135.174 -0.988883 135.08 -0.981047 134.879 -0.779904C135.289 -0.722434 135.482 -0.672802 135.968 -0.576149C135.968 -0.346271 135.968 -0.270516 135.764 -0.166026C135.764 -0.116393 135.837 -0.0798222 135.832 -0.0301895C136.117 -0.10072 136.206 0.0769126 136.31 -0.233945C136.713 -0.152965 137.23 -0.147741 137.674 -0.0981079C137.859 -0.0772099 138.157 0.2023 138.356 0.312015C138.408 0.573239 138.411 0.790056 138.766 0.790056C138.766 0.938954 138.87 1.0983 138.97 1.20018C138.533 1.20018 138.928 1.38042 138.97 1.67822C138.873 1.75397 138.894 1.8872 138.766 1.94989C138.395 2.13536 137.953 2.25553 137.609 2.49585C137.549 2.53765 137.488 2.64997 137.541 2.69961C137.219 2.83806 137.084 3.00001 136.791 3.17765C136.726 3.21683 136.592 3.15414 136.519 3.17765C136.386 3.22206 136.412 3.38402 136.316 3.44932C136.258 3.48589 136.172 3.41797 136.112 3.44932C135.934 3.54597 135.858 3.83855 135.702 3.99528C135.749 3.97699 135.79 4.0841 135.837 4.0632C135.96 4.00834 136.122 3.74712 136.248 3.72361C136.493 3.67397 136.658 3.74973 136.861 3.72361C137.172 3.68442 137.572 3.47544 137.883 3.38402C137.794 3.2952 137.669 3.22989 137.611 3.11234C137.669 3.05487 137.815 3.05748 137.815 2.9765C137.974 3.04704 138.209 3.03659 138.361 3.11234C138.525 3.19593 138.599 3.46238 138.907 3.38402C138.97 3.36834 138.983 3.26908 139.043 3.24818C139.179 3.45193 139.262 3.64263 139.382 3.86206C139.547 3.75234 139.45 3.79675 139.45 3.59038C139.839 3.5512 140.323 3.45716 140.678 3.59038C140.845 3.65308 140.989 3.79675 141.156 3.86206C141.224 3.88818 141.584 3.87512 141.566 3.86206C141.624 3.89863 141.53 4.01095 141.566 4.06581C141.639 4.17553 141.924 4.43153 142.044 4.47593C142.17 4.52034 142.24 4.41585 142.316 4.3401C142.794 4.61438 143.311 4.75022 143.815 4.95397C143.789 4.68491 143.868 4.48638 143.679 4.20426C143.724 4.15985 143.8 4.13112 143.815 4.06842C143.865 4.11806 143.951 4.15985 144.019 4.13634C144.087 4.11283 144.022 3.96393 144.087 3.93259C144.442 4.21732 144.701 4.42108 145.108 4.54646C145.273 4.5961 145.568 4.46287 145.79 4.54646C145.727 4.52295 145.989 4.88083 145.994 4.88606C146.033 4.94614 146.127 4.95397 146.198 4.95397C146.273 5.18124 146.399 5.44246 146.333 5.63577C146.545 5.84736 146.561 5.86042 146.673 6.11381C146.485 6.11381 146.404 5.9623 146.263 6.04589C146.263 6.10859 146.448 6.28361 146.399 6.31757C146.895 6.74336 147.324 7.19006 147.83 7.54532C147.869 7.48524 147.997 7.53749 148.034 7.4774C148.196 7.20834 148.175 6.90532 148.238 6.59185C148.632 6.90532 148.831 7.10124 149.259 7.27365C149.45 7.14565 149.682 7.09863 149.941 7.13781C150.21 7.17961 150.398 7.51398 150.623 7.68377C150.675 7.72295 150.834 7.71251 150.894 7.75169C150.981 7.62108 150.941 7.52704 150.827 7.4121C151.192 7.4121 151.14 7.3912 151.44 7.61585C151.498 7.66026 151.574 7.53487 151.644 7.54793C151.558 7.25797 151.393 7.27626 151.508 6.93406C151.315 6.85569 151.359 6.86614 151.169 6.86614C151.19 6.80083 151.169 6.7303 151.169 6.66238C151.393 6.66238 151.678 6.71202 151.851 6.7303C151.851 6.64148 151.621 6.45079 151.647 6.39071C151.79 6.44818 151.913 6.61275 152.057 6.66238C152.655 6.8792 153.306 6.91316 153.896 7.14042C154.155 7.23969 154.322 7.50614 154.578 7.61846C154.643 7.6472 154.711 7.53748 154.781 7.55055C155.069 7.59757 155.586 7.76736 155.803 7.96067C156.082 8.20622 156.007 8.5432 156.417 8.7783C156.485 8.81748 156.626 8.73651 156.688 8.7783C156.848 8.8854 157.025 8.95332 157.166 9.04997C157.428 9.23283 157.496 9.52802 157.78 9.66385C157.961 9.75006 158.329 9.64557 158.53 9.66385C158.982 9.70565 159.693 9.79185 160.165 10.0034C160.544 10.1732 161.022 10.5181 161.323 10.8211C161.487 10.9856 161.315 11.1476 161.39 11.2991C161.511 11.5368 161.824 11.4637 162.004 11.5708C162.117 11.6387 162.219 11.879 162.344 11.9104C162.435 11.9339 162.381 11.6596 162.548 11.7066C163.394 11.9365 164.118 12.2839 165.001 12.5243C165.121 12.5582 165.149 12.3884 165.272 12.3884C165.693 12.9292 166.129 13.1878 166.704 13.5483C166.811 13.6162 166.991 13.4699 167.043 13.4803C166.874 13.1956 166.709 13.0075 166.429 12.7985C166.429 12.6993 166.411 12.6 166.362 12.5269C166.753 12.7228 167.409 12.8456 167.725 13.1408C167.796 13.2087 167.871 13.4568 167.929 13.5509C168.214 14.008 168.491 14.4547 168.747 14.9145C169.575 16.4087 170.369 17.848 170.86 19.4807C170.774 19.5225 170.745 19.6505 170.656 19.6844C170.609 19.7027 170.559 19.5852 170.52 19.6165C170.204 19.8542 170.118 19.7889 170.042 20.1625C169.653 19.8124 169.225 19.3527 168.679 19.4128C168.444 19.4389 168.156 19.7341 167.997 19.8229C167.913 19.6243 167.971 19.5251 167.793 19.3448C167.649 19.4885 167.514 19.5564 167.383 19.6844C167.122 19.5982 167.004 19.5747 166.769 19.5486C166.586 19.9169 166.448 20.2121 166.155 20.5021C166.351 20.7633 166.435 20.954 166.769 20.8416C166.819 20.8913 166.975 21.0193 167.041 21.0454C166.861 21.4085 167.002 21.5783 167.38 21.863C167.38 21.931 167.344 22.0119 167.38 22.0668C167.122 22.0668 167.197 21.9754 166.97 21.863C166.892 22.059 166.704 22.2993 166.766 22.5448C166.795 22.6624 167.036 22.7852 167.106 22.8844C167.025 22.8923 166.96 22.9628 166.902 23.0203C166.469 22.9132 166.367 23.0098 166.085 23.2919C166.158 23.4382 166.223 23.6159 166.288 23.77C166.189 23.8092 165.988 23.77 165.878 23.77C165.808 23.8928 165.638 24.0103 165.539 24.1096C165.565 24.2715 165.607 24.3969 165.607 24.5876C165.387 24.7339 165.118 24.935 164.925 25.0656C164.747 24.713 164.64 24.4178 164.515 24.0443C164.478 23.9345 164.29 23.8771 164.243 23.7726C164.154 23.5741 164.18 23.2972 164.107 23.0908C163.927 22.5788 163.566 22.234 163.493 21.6593C163.446 21.2883 163.721 21.0846 163.903 20.8416C163.995 20.7215 163.749 20.5804 163.768 20.5021C164.084 20.408 164.47 20.3923 164.721 20.1625C164.933 19.9692 165.003 19.7445 165.199 19.5486C165.33 19.418 165.547 19.3683 165.677 19.209C165.722 19.1541 165.69 19.0523 165.745 19.0052C165.847 18.9164 166.283 18.791 166.427 18.7336C166.377 18.4802 166.369 18.2216 166.291 17.9839C166.349 17.9264 166.537 17.7958 166.563 17.7122C166.484 17.7043 166.377 17.5241 166.291 17.5084C165.86 17.4222 165.8 17.7984 165.745 18.1223C165.803 18.1798 165.912 18.185 165.949 18.2581C165.805 18.2111 165.675 18.1876 165.539 18.1223C165.372 18.4541 165.084 18.4906 164.721 18.6003C164.703 18.5533 164.752 18.5011 164.789 18.4645C164.473 18.2529 164.408 18.2738 164.585 17.9185C164.523 17.9003 164.494 17.8271 164.449 17.7827C164.193 17.8689 164.047 17.7879 163.836 17.579C163.553 17.6495 163.331 17.6103 163.018 17.579C162.579 17.976 162.156 18.2921 161.861 18.7388C162.062 19.0418 162.198 18.9269 162.475 19.0784C162.475 19.1515 162.352 19.2377 162.407 19.2821C162.096 19.1881 161.952 19.3056 161.725 19.0784C161.354 19.3004 161.106 19.2142 160.636 19.2142C160.604 19 160.62 19.0523 160.839 18.9425C160.688 18.8981 160.479 18.7205 160.361 18.603C160.11 18.7701 159.881 18.5324 159.612 18.3992C159.41 18.5011 159.186 18.616 158.998 18.7388C158.919 18.6813 158.88 18.5768 158.794 18.535C158.721 18.4985 158.577 18.6447 158.454 18.603C158.35 18.569 158.282 18.4358 158.183 18.3992C158.013 18.3365 157.987 18.5664 157.843 18.535C157.733 18.5115 157.613 18.3443 157.503 18.3313C157.085 18.279 156.359 18.1641 156.004 18.3313C155.73 18.4619 155.563 18.7858 155.322 18.9452C155.322 19.0261 155.304 19.1724 155.254 19.2168C155.087 19.371 154.711 19.4728 154.573 19.627C154.4 19.8176 154.262 20.1442 154.094 20.3088C153.812 20.5909 153.287 20.8469 152.937 21.1264C153.266 21.257 153.35 21.3981 153.755 21.3981C153.802 21.5391 153.773 21.7246 153.823 21.8761C153.872 22.0276 154.05 21.9545 154.094 22.0119C154.173 21.8552 154.165 21.6671 154.298 21.5339C154.309 21.6201 154.23 21.675 154.23 21.8735C154.361 21.9388 154.4 22.072 154.434 22.2131C154.518 22.2131 154.625 22.1974 154.706 22.2131C154.842 22.0772 154.881 21.9205 154.977 21.803C155.108 21.803 155.335 21.8474 155.455 21.803C155.586 21.9179 155.56 22.1112 155.727 22.2131C155.947 22.3463 156.189 22.4456 156.409 22.6232C156.432 22.8505 156.516 23.1979 156.477 23.5088C156.438 23.8196 156.205 24.1383 156.205 24.4622C156.205 24.5432 156.331 24.585 156.341 24.666C156.393 25.0317 156.453 25.5776 156.341 25.8937C156.229 26.2098 155.834 26.3143 155.659 26.5755C155.529 26.7714 155.521 27.1189 155.388 27.3252C154.857 28.1429 153.885 28.9161 153.138 29.4385C152.869 29.3027 152.637 29.099 152.389 29.099C152.389 29.018 152.321 28.9396 152.253 28.8952C152.127 29.0206 152.052 29.2661 151.913 29.3732C151.858 29.415 151.647 29.5091 151.574 29.5091C151.25 29.914 151.135 30.1177 151.028 30.5984C150.968 30.6193 150.936 30.6898 150.892 30.7342C150.78 30.6768 150.482 30.7212 150.346 30.8021C150.15 30.9197 150.15 31.1809 150.006 31.3481C150.21 31.5519 150.367 31.7922 150.62 31.962C150.62 32.0299 150.581 32.1109 150.62 32.1657C150.837 32.4714 151.096 32.6072 151.234 32.9834C151.32 33.2159 151.184 33.3987 151.234 33.5972C151.268 33.7279 151.464 33.8637 151.506 34.0074C151.485 34.0152 151.32 33.8898 151.234 33.9394C151.077 34.0283 151.041 34.138 150.894 34.2111C150.806 34.1667 150.604 34.091 150.484 34.1432C150.226 34.2529 150.095 34.3757 149.803 34.4828C149.803 34.4097 149.805 34.2869 149.735 34.279C149.607 34.407 149.567 34.4619 149.395 34.4828C149.429 34.4149 149.353 34.2712 149.395 34.2111C149.476 34.0962 149.685 33.9995 149.735 33.8715C149.865 33.5476 149.625 33.2028 149.463 32.9181C149.633 33.0017 149.724 32.939 149.803 32.7822C149.677 32.6412 149.612 32.4661 149.531 32.3042C149.296 32.2441 149.212 32.2598 148.985 32.3721C148.912 32.299 148.81 32.2519 148.713 32.2363C148.713 32.1265 148.604 32.0874 148.645 31.9646C148.695 31.8157 148.86 31.7034 148.917 31.5545C148.993 31.3638 148.771 31.2488 148.781 31.1443C148.604 31.0921 148.261 30.9563 148.099 30.9406C148.045 30.9354 147.82 31.0555 147.76 31.0764C147.713 31.0921 147.668 30.985 147.624 31.0085C147.279 31.1809 146.94 31.3847 146.603 31.5545C146.684 31.3115 147.034 31.3272 146.67 31.1443C146.78 30.9641 146.984 30.7891 147.081 30.5984C146.913 30.264 146.616 30.17 146.263 30.3946C145.908 30.6219 145.665 31.0895 145.309 31.3481C145.208 31.4212 144.892 31.322 144.764 31.3481C144.764 31.3481 144.628 31.6015 144.628 31.6877C144.698 31.7269 144.69 31.8549 144.764 31.8914C144.936 31.9777 145.189 32.0482 145.377 32.0952C145.377 32.3617 145.443 32.427 145.513 32.6412C145.819 32.5654 146.135 32.3904 146.399 32.231C146.759 32.5915 146.838 32.4818 147.284 32.5706C147.347 32.5837 147.357 32.6934 147.42 32.7065C147.357 32.7248 147.347 32.8266 147.284 32.8423C147.078 32.8946 146.845 32.7796 146.67 32.9102C146.268 33.2132 145.905 33.6077 145.581 33.9316C145.636 33.9786 145.618 34.1719 145.717 34.2033C145.916 34.2686 146.041 34.2843 146.195 34.475C146.323 34.6343 146.247 34.8511 146.331 35.0209C146.514 35.3892 146.885 35.6426 147.149 35.9744C146.804 36.1468 147.094 36.2043 147.149 36.4524C146.947 36.5857 146.765 36.6562 146.603 36.792C147.021 37.0715 147.321 37.0245 147.013 37.5417C147.075 37.6671 147.083 37.816 147.013 37.9519C146.908 38.1504 146.689 38.0877 146.535 38.2915C146.506 38.3306 146.535 38.5135 146.535 38.5631C146.461 38.6206 146.224 38.6807 146.195 38.7669C146.13 38.9654 146.164 39.002 145.991 39.177C146.028 39.2136 146.077 39.2658 146.059 39.3128C146.028 39.3886 145.892 39.3755 145.855 39.4487C145.929 39.5218 145.947 39.6132 145.923 39.7203C145.652 39.8719 145.325 40.0495 145.038 40.2663C145.038 40.3342 145.074 40.4152 145.038 40.4701C144.936 40.6216 144.636 40.6033 144.492 40.6738C144.312 40.7652 144.285 41.0448 144.082 41.1519C143.823 41.2877 143.405 41.3138 143.128 41.4235C142.987 41.4784 142.893 41.3243 142.789 41.3556C142.635 41.4 142.802 41.5724 142.653 41.6273C142.538 41.6691 142.352 41.5724 142.243 41.6273C141.88 41.8101 141.833 41.899 141.425 41.831C141.357 41.899 141.315 42.0113 141.221 42.0348C141.153 42.0505 140.947 41.9669 140.95 41.9669C140.843 42.0034 140.78 42.1889 140.678 42.2385C140.678 42.4345 140.785 42.5207 140.746 42.6487C140.722 42.5938 140.443 42.4919 140.406 42.377C140.359 42.2386 140.54 42.168 140.474 42.0374C140.445 41.9799 140.367 41.959 140.338 41.9016C140.263 41.8859 140.119 41.9852 140.067 42.0374C139.936 41.9826 139.834 41.8728 139.727 41.7657C139.476 41.8911 139.293 41.9956 139.113 42.1759C138.985 42.3039 138.721 42.2385 138.567 42.3796C138.51 42.4345 138.617 42.6565 138.567 42.7192C138.515 42.7845 138.374 42.855 138.296 42.855C138.155 43.0666 138.071 43.2782 138.024 43.4689C138.319 43.8895 138.614 44.331 138.977 44.6967C139.348 45.0676 139.868 45.402 139.999 45.9244C140.033 46.0629 139.941 46.4756 139.931 46.6062C139.92 46.729 140.2 46.7551 140.135 46.9458C140.048 47.207 139.931 47.3089 139.931 47.6276C139.607 47.8705 139.322 48.0691 138.977 48.2415C138.818 48.3225 138.781 48.1814 138.706 48.1057C138.669 48.1422 138.62 48.1736 138.57 48.1736C138.554 48.2754 138.411 48.3538 138.366 48.4452C138.353 48.4714 138.484 48.73 138.502 48.7848C138.17 48.9494 137.875 49.1349 137.549 49.3308C137.562 49.2603 137.454 49.1923 137.481 49.127C137.653 48.6934 137.742 48.6203 137.277 48.3094C137.175 48.2415 137.151 48.4452 137.073 48.4452C137.037 48.3878 137.117 48.2937 137.073 48.2415C137.018 48.1762 136.882 48.1057 136.801 48.1057C136.548 47.5989 136.271 47.3794 135.848 47.0163C135.736 47.0712 135.584 47.113 135.438 47.0843C135.315 46.8413 135.42 46.776 135.302 46.5383C135.216 46.5383 134.879 46.6715 134.892 46.6741C134.892 47.3716 134.628 47.7243 134.414 48.3094C134.351 48.4792 134.432 48.743 134.414 48.9233C134.508 49.033 134.696 48.9259 134.753 49.0591C134.774 49.1061 134.657 49.1532 134.685 49.195C134.751 49.2916 134.931 49.4248 134.957 49.5345C135.041 49.8689 134.921 50.0257 135.229 50.2843C135.359 50.394 135.712 50.3809 135.843 50.488C135.952 50.5794 135.856 50.6866 135.979 50.7597C136.242 50.919 136.545 51.115 136.66 51.4415C136.76 51.7236 136.472 52.0789 136.592 52.395C136.621 52.4707 136.715 52.5308 136.796 52.5308C136.796 52.8599 136.914 52.8834 137.068 53.1447C137.144 53.2727 136.971 53.3876 137 53.4843C136.164 53.1499 135.461 52.6431 135.093 51.7811C134.973 51.5016 135.117 51.1202 135.025 50.8276C134.96 50.616 134.782 50.6369 134.615 50.5559C134.615 50.4906 134.785 50.475 134.751 50.4201C134.578 50.1328 134.39 49.7906 134.069 49.5345C134.017 49.4928 133.92 49.5711 133.865 49.5345C133.899 49.3595 133.889 49.1714 133.933 48.9886C133.972 48.8345 134.176 48.6621 134.205 48.5106C134.231 48.3799 134.108 48.2572 134.137 48.171C134.189 48.0142 134.244 47.8209 134.205 47.625C134.194 47.5754 134.074 47.6067 134.069 47.5571C134.053 47.3742 134.197 47.2201 134.137 47.0111C134.09 46.8465 134.017 46.7473 133.865 46.6715C133.865 46.5435 133.891 46.3868 133.865 46.2614C133.847 46.1726 133.675 46.0864 133.661 45.9897C133.646 45.8826 133.797 45.7834 133.729 45.6501C133.69 45.5718 133.614 45.4594 133.594 45.3785C133.581 45.3236 133.654 45.0885 133.661 45.1068C133.562 44.8743 133.332 44.7359 133.251 44.4929C132.972 44.6601 133.008 44.7463 132.841 44.971C132.765 45.0728 132.494 45.2008 132.363 45.3106C132.183 45.2191 132.042 45.1747 131.817 45.1747C131.88 44.5504 131.875 44.122 131.681 43.5394C131.598 43.2887 131.394 43.7014 131.342 43.6074C131.3 43.5316 131.41 43.2521 131.41 43.1293C131.245 42.9856 131.154 42.8577 130.932 42.8577C130.579 42.4345 130.412 41.9695 130.25 41.4261C129.96 41.5698 129.615 41.7057 129.364 41.7657C129.364 41.7004 129.291 41.6456 129.229 41.6299C129.103 41.7187 128.996 41.8624 128.889 41.9695C128.377 41.8833 128.168 41.9355 127.661 42.0374C127.562 42.3692 127.536 42.5442 127.251 42.923C127.084 42.923 126.836 43.0301 126.705 43.1267C126.478 43.2965 126.337 43.563 126.159 43.7406C125.859 44.041 125.422 44.2683 125.138 44.4903C124.963 44.6261 124.986 44.8508 124.798 44.9683C124.738 45.0049 124.532 44.9683 124.459 44.9683C124.221 45.3236 124.174 45.1982 123.845 45.4464C123.824 45.6554 123.644 45.799 123.709 46.0603C123.795 46.4051 123.918 46.8883 123.845 47.2201C123.821 47.322 123.586 47.3899 123.573 47.4918C123.552 47.6328 123.615 47.7243 123.505 47.8314C123.563 47.9489 123.706 48.0795 123.641 48.2415C123.56 48.4452 123.236 48.5968 123.095 48.7195C123.095 48.8136 123.058 48.939 123.163 48.9912C123.223 49.0225 123.356 48.9233 123.367 48.9912C123.213 49.0513 123.037 49.0539 122.889 49.127C122.714 49.2132 122.63 49.5215 122.478 49.673C122.397 49.6181 122.228 49.673 122.139 49.6051C121.875 49.4066 121.805 49.1349 121.593 48.9233C121.661 48.5106 121.52 48.009 121.321 47.6276C121.225 47.4448 121 47.4291 120.911 47.2175C120.736 46.7995 120.671 46.3424 120.501 45.9218C120.376 45.6083 120.067 45.355 119.955 45.0363C119.874 44.8064 119.924 44.5321 119.887 44.2866C119.874 44.2056 119.759 44.1638 119.751 44.0828C119.67 43.2051 119.696 42.3117 119.548 41.562C119.587 41.4679 119.284 41.5594 119.276 41.6299C119.258 41.7814 119.284 41.9199 119.344 42.04C118.913 42.2986 118.652 42.5285 118.187 42.2438C117.975 42.1158 117.714 41.7736 117.573 41.562C117.852 41.562 117.967 41.434 118.187 41.2903C117.677 41.1362 117.473 41.0474 117.029 40.6764C116.964 40.6242 116.765 40.6764 116.69 40.6085C116.669 40.5902 116.64 40.3708 116.622 40.3368C116.494 40.0808 116.243 39.8719 116.076 39.655C115.59 39.7517 115.196 39.6864 114.712 39.723C114.224 39.7595 113.717 39.9476 113.145 39.8588C112.972 39.8327 112.719 39.6864 112.531 39.655C112.335 39.6211 112.11 39.7021 111.917 39.655C111.792 39.6237 111.693 39.4905 111.578 39.4513C111.4 39.3912 111.306 39.5453 111.1 39.4513C110.872 39.3468 110.914 39.0124 110.828 38.8374C110.742 38.665 110.582 38.759 110.488 38.6337C110.334 38.6937 110.172 38.9576 110.01 38.9732C109.592 39.0203 109.2 39.015 108.782 38.8374C108.673 38.7904 108.618 38.618 108.511 38.5657C108.459 38.5396 108.231 38.4665 108.171 38.4978C108.114 38.5266 108.09 38.6676 108.035 38.6337C107.978 38.5971 108.035 38.4978 108.035 38.4299C107.792 38.2836 107.591 38.1373 107.489 37.8839C107.442 37.7638 107.489 37.5835 107.421 37.4738C107.129 37.0141 106.74 36.9566 106.264 36.8599C106.1 37.048 105.935 37.1891 105.786 37.338C105.893 37.607 105.951 37.8866 106.058 38.1556C106.11 38.2836 106.256 38.2679 106.33 38.3594C106.374 38.4142 106.288 38.5736 106.33 38.631C106.439 38.7852 106.868 38.9602 107.011 39.0412C106.975 39.1927 106.943 39.3154 106.876 39.4513C106.996 39.5714 107.171 39.7099 107.215 39.8614C107.432 39.6759 107.333 39.48 107.625 39.3834C107.625 39.4487 107.748 39.4565 107.761 39.5192C107.821 39.8248 107.625 39.9946 107.557 40.2689C107.725 40.3368 107.839 40.5406 108.035 40.5406C109.161 40.5406 109.684 39.9972 110.42 39.177C110.42 39.8013 110.428 40.3107 110.966 40.6085C111.199 40.7365 111.434 40.6529 111.648 40.7443C111.891 40.8488 112.236 41.3321 112.398 41.4941C112.045 41.9956 111.546 42.3666 111.241 42.8577C111.175 42.9648 111.254 43.273 111.241 43.4036C111.147 43.4454 110.935 43.4036 110.83 43.4036C110.7 43.6204 110.572 43.9078 110.352 44.0175C110.261 44.0619 110.109 43.9861 110.013 44.0175C109.822 44.0802 109.861 44.4354 109.741 44.4955C109.428 44.6523 108.955 44.4981 108.652 44.6993C108.493 44.8064 108.341 44.8874 108.174 44.971C108.174 45.1512 108.197 45.2609 108.038 45.3811C107.649 45.6737 107.1 45.53 106.674 45.7207C106.463 45.8147 106.348 46.1256 106.128 46.1987C106.019 46.2353 105.862 46.2039 105.789 46.1308C105.7 46.1674 105.677 46.311 105.585 46.3345C105.295 46.4129 104.974 46.3607 104.7 46.4704C104.522 46.5409 104.339 46.7734 104.154 46.81C103.945 46.8518 103.686 46.81 103.472 46.81C103.234 46.3816 102.957 45.786 102.858 45.2426C102.824 45.0598 102.9 44.7907 102.79 44.5608C102.644 44.2526 102.335 44.1586 102.176 43.879C102.012 43.5891 101.978 43.2808 101.766 42.9935C101.57 42.7218 101.058 42.5808 100.88 42.3117C100.664 41.9878 100.878 41.4209 100.677 41.0839C100.462 40.7287 100.128 40.4674 99.7911 40.1984C99.7911 39.7621 99.5743 39.7047 99.3131 39.3808C99.2504 39.3024 99.2399 39.1195 99.1772 39.0412C99.044 38.8688 98.9395 38.7199 98.8376 38.5631C98.7985 38.5056 98.5712 38.3698 98.566 38.3594C98.4693 38.1295 98.5947 37.7246 98.566 37.4738C98.5242 37.0898 98.2969 36.7319 98.1559 36.3845C98.2891 36.1625 98.4484 35.9352 98.566 35.7027C98.6104 35.6113 98.5346 35.4598 98.566 35.3631C98.6626 35.0705 98.9944 34.8354 99.1119 34.5455C99.2138 34.2921 99.1119 33.9421 99.1119 33.7279C99.1119 33.6025 99.2843 33.3386 99.3157 33.1819C99.0257 33.1819 98.8115 33.2707 98.4981 33.114C98.2055 33.4065 97.9599 33.5293 97.6125 33.6599C97.555 33.626 97.4714 33.6808 97.4087 33.6599C97.2076 33.592 97.0221 33.3412 96.8628 33.1819C96.5493 33.2341 96.356 33.2707 96.2489 33.592C96.0608 33.592 95.8727 33.6051 95.7029 33.6599C95.3607 33.4457 95.2432 33.3203 94.8853 33.3203C94.7547 33.127 94.53 32.986 94.2714 32.8423C94.2688 32.8501 94.517 32.7326 94.5431 32.7065C94.5222 32.5994 94.3341 32.5654 94.2714 32.5027C94.2819 32.4844 94.4961 32.346 94.5431 32.299C94.4334 32.1161 94.308 31.9515 94.4073 31.753C94.1931 31.6459 94.1748 31.7086 94.0677 31.5492C94.2218 31.463 94.2532 31.2305 94.4073 31.2097C94.7547 31.16 95.1622 31.3063 95.4287 31.2097C95.5384 31.1705 95.5958 30.9902 95.7003 30.938C95.8884 30.8439 96.1784 30.7133 96.3821 30.6663C96.5415 30.6297 96.7818 30.7421 96.996 30.6663C97.5315 30.4782 97.8972 30.0367 98.4275 29.9845C98.822 29.9453 99.3575 30.1517 99.7232 30.2562C99.8146 30.2823 99.8329 30.439 99.927 30.4599C100.402 30.5723 100.951 30.5801 101.358 30.5279C101.421 30.52 101.432 30.3972 101.494 30.392C101.667 30.3763 101.779 30.507 101.972 30.4599C102.126 30.4207 102.307 30.2588 102.45 30.1883C102.631 30.0968 102.636 29.867 102.722 29.7781C102.563 29.5509 102.529 29.2661 102.244 29.0963C102.116 29.0206 101.891 29.0728 101.766 28.9605C101.609 28.8194 101.607 28.587 101.426 28.4825C101.186 28.3466 100.951 28.2787 100.677 28.2108C100.572 28.1847 100.436 27.9888 100.337 27.9391C100.392 27.8921 100.334 27.751 100.405 27.7354C100.737 27.6518 100.896 27.448 101.155 27.1894C101.131 27.0745 101.019 27.0379 101.019 26.9177C101.228 26.7793 101.421 26.7349 101.633 26.5781C101.633 26.5285 101.526 26.4736 101.565 26.4423C100.669 26.6225 99.8225 26.9909 99.1119 27.4637C99.2086 27.5238 99.206 27.7824 99.3157 27.8033C99.5534 27.8503 99.8303 27.7432 100.065 27.8033C100.115 27.8163 100.086 27.9208 100.133 27.9391C99.8564 27.9391 99.718 28.0279 99.4515 27.9391C99.0989 28.2212 98.7985 28.2996 98.4301 28.4851C98.2995 28.2239 98.4301 28.4433 98.4301 28.1455C97.8894 27.819 98.0958 27.7328 98.566 27.4637C98.2238 27.5212 97.9808 27.4193 97.6125 27.3279C97.8659 27.0745 97.6674 27.1763 97.5446 27.0562C97.3461 27.2312 97.0927 27.4977 96.8628 27.6701C96.7635 27.7432 96.6146 27.704 96.5232 27.8059C96.3874 27.9574 96.5781 28.1873 96.4553 28.2839C96.3691 28.3519 96.1105 28.3336 96.0452 28.4198C95.8492 28.681 95.8362 28.9056 95.7056 29.1695C95.6194 29.3393 95.4705 29.3027 95.366 29.3732C95.2014 29.483 95.1492 29.671 95.0264 29.7834C95.1805 30.0916 95.1805 30.4077 95.5044 30.601C95.5776 30.6454 95.7604 30.5879 95.844 30.601C95.844 30.6454 95.8022 30.7159 95.844 30.7368C95.6272 30.7368 95.3712 30.7368 95.1622 30.7368C94.9794 30.7368 94.7939 31.0425 94.6163 31.0764C94.1931 31.16 93.9188 30.8753 93.527 30.9406C93.3624 30.9667 93.365 31.1391 93.2553 31.2123C93.1586 31.019 93.0724 31.0085 92.9157 31.0085C92.947 31.194 92.772 31.2097 93.0515 31.3481C92.9183 31.3821 92.6936 31.5466 92.5056 31.4839C92.4037 31.45 92.3227 31.2723 92.2339 31.2123C92.1764 31.2697 92.179 31.4265 92.0981 31.416C92.2731 31.8549 92.5735 32.1553 92.8478 32.5053C92.8112 32.568 92.6936 32.487 92.644 32.4374C92.6545 32.487 92.5526 32.5288 92.5761 32.5732C92.8086 33.0382 92.5082 32.7378 92.2365 32.5732C92.1007 32.4923 92.0536 32.6934 91.9648 32.7091C92.1346 32.8501 92.2574 32.9572 92.4429 33.0487C92.3044 33.1166 92.1346 33.1166 92.0327 33.1166C92.0327 33.3569 92.1999 33.3778 92.1686 33.5946C91.9335 33.5241 91.6592 33.4692 91.4189 33.3909C91.4189 33.1297 91.3144 33.0121 91.2151 32.8449C91.3274 32.7326 91.3797 32.6464 91.4189 32.5053C91.1472 32.2937 90.8938 32.0508 90.5333 31.9594C90.4967 31.8862 90.5647 31.7634 90.5333 31.6877C90.502 31.6119 90.4105 31.5519 90.3296 31.5519C90.3975 31.2828 90.4471 30.9981 90.5333 30.7342C90.4471 30.648 90.34 30.5827 90.3296 30.4625C89.9586 30.2013 89.7601 30.0681 89.3082 29.9166C89.1723 29.8722 89.2063 29.7024 89.1044 29.6449C88.9503 29.5561 88.8484 29.7363 88.6943 29.6449C88.4409 29.4934 88.5846 29.3576 88.4905 29.1669C88.407 28.9971 88.2946 29.0023 88.2189 28.8273C87.9733 28.9265 87.8035 29.0154 87.6729 28.7594C87.6416 28.6941 87.7539 28.6261 87.7408 28.5556C87.7095 28.3963 87.5188 28.5556 87.4692 28.4877C87.2628 28.6496 87.0538 28.6993 86.8553 28.8978C86.9206 29.1172 86.8892 29.1042 86.7874 29.3079C86.9885 29.5091 87.4143 29.7363 87.5371 29.9218C87.6128 30.0368 87.5893 30.2719 87.6729 30.3999C87.7591 30.5305 87.9237 30.6114 88.0125 30.7394C88.1823 30.7394 88.4514 30.7394 88.6943 30.7394C88.7256 30.8152 88.5585 30.8622 88.5585 30.9432C88.9216 31.1261 89.303 31.2593 89.6478 31.4892C89.7732 31.5728 89.7235 31.7008 89.7836 31.7608C89.3813 31.5989 89.2533 31.4134 88.8301 31.625C88.8301 31.6642 88.7857 31.8601 88.7622 31.8967C88.9189 32.0534 88.9451 32.0351 89.0339 32.1683C88.7465 32.4557 88.4226 32.6986 88.1483 32.9181C88.211 32.7587 88.3625 32.568 88.4879 32.44C88.4096 32.2441 88.3495 32.0247 88.2842 31.8261C87.9864 31.7661 87.9707 31.7034 87.8061 31.4865C87.7173 31.3664 87.511 31.4683 87.396 31.4186C87.396 31.2959 87.3777 31.2175 87.2602 31.147C87.0721 31.0346 86.7769 31.1156 86.5784 31.0111C86.5575 31.0007 86.4347 30.7839 86.3746 30.7394C86.15 30.5723 85.8914 30.4416 85.6928 30.1935C85.6406 30.1282 85.6928 29.8565 85.6928 29.8539C85.6667 29.7625 85.5256 29.739 85.4891 29.6501C85.4603 29.6501 85.1051 29.6972 85.1495 29.7181C85.092 29.6893 85.0763 29.5822 85.0136 29.5822C84.3475 29.5822 83.9008 30.298 83.3105 30.4678C83.1798 30.5043 82.8115 30.3398 82.6966 30.264C82.4484 30.3476 82.263 30.3084 82.0148 30.3319C81.8946 30.4861 81.6177 30.5383 81.5367 30.7421C81.4114 31.0529 81.6935 31.0608 81.4009 31.3559C81.0535 31.7034 80.3482 31.6746 79.9694 31.9698C79.6376 32.2284 79.4313 32.6176 79.3555 32.9912C79.4548 33.0905 79.4887 33.08 79.5593 33.195C79.0839 33.511 78.5039 34.0936 77.924 34.2843C77.7072 34.3574 77.4956 34.2843 77.3101 34.2843C76.9967 34.2843 76.644 34.4697 76.3567 34.5559C76.4847 33.2655 76.5892 32.0299 76.8347 30.8074C77.5531 30.8074 78.1722 30.8048 78.948 30.7394C79.1126 30.7264 79.2118 30.4704 79.3581 30.3999C79.4783 29.9976 79.5645 29.577 79.6977 29.1721C79.6037 29.0284 79.4522 29.0415 79.3581 28.9004C79.2484 28.7359 79.4496 28.6444 79.2223 28.4903C78.9637 28.3179 78.5118 28.4067 78.2688 28.3545C78.099 28.3179 78.2767 28.0776 78.2009 28.0149C78.8017 27.7745 79.3346 27.7536 79.972 27.6753C79.972 27.4715 79.8858 27.2861 79.9041 27.1293C80.2698 27.2025 80.6251 27.32 80.9934 27.1972C81.1501 27.145 81.1554 26.9256 81.2651 26.8576C81.4087 26.7662 81.6752 26.7714 81.811 26.6539C81.9913 26.4945 81.9338 26.2359 82.1506 26.1079C82.5216 25.8911 83.0362 25.771 83.3784 25.4941C83.8747 25.0918 84.2221 24.4779 84.742 24.1984C84.8491 24.1409 85.0398 24.2454 85.1521 24.1984C85.2984 24.1357 85.4133 23.9842 85.5622 23.9267C85.7634 23.8457 86.0115 23.9946 86.1761 23.9946C86.3145 23.7856 86.4399 23.6655 86.5862 23.4487C86.3537 23.1012 86.4974 23.0986 86.6541 22.8348C86.4399 22.5474 86.419 22.234 86.6541 21.8813C86.8579 21.5757 87.1923 21.5914 87.4718 21.4712C87.7043 21.3719 87.9576 21.082 88.1536 20.9252C88.1353 20.9644 88.0856 21.2674 88.0856 21.4033C87.8845 21.5548 87.5188 21.8813 88.0177 21.8813C88.0177 21.9257 87.9812 21.991 88.0177 22.0172C87.9185 22.0851 87.7121 22.072 87.6076 22.153C87.3568 22.3541 87.2158 22.5814 87.0616 22.8348C87.3412 22.9759 87.1766 23.0046 87.3333 23.2449C87.3333 23.2449 87.7173 23.2789 87.6729 23.2449C87.6729 23.3128 87.6181 23.4095 87.6729 23.4487C87.9994 23.2841 88.3521 23.1091 88.6943 22.9706C88.9346 23.13 89.1332 23.1901 89.3761 23.3102C90.0083 22.9941 90.6404 22.7094 91.283 22.4247C91.3483 22.4586 91.4972 22.3803 91.5547 22.4247C91.62 22.4743 91.6174 22.5919 91.6905 22.6284C92.0275 22.7956 92.1686 22.4795 92.4403 22.2888C92.4977 22.247 92.6597 22.3359 92.7119 22.2888C92.9418 22.0851 93.2083 21.803 93.1221 21.5391C93.2004 21.4608 93.2945 21.3641 93.3258 21.2674C93.3415 21.2204 93.2945 21.1682 93.2579 21.1316C93.3963 20.9226 93.4721 20.6196 93.668 20.4498C94.2166 19.9744 94.355 20.1807 94.8958 20.4498C95.1387 20.1024 95.3738 20.011 95.3738 19.5643C95.0943 19.4702 95.1413 19.3056 95.1021 19.0183C95.5645 18.7414 95.9381 18.4332 96.4657 18.3365C96.7844 18.279 97.1815 18.4332 97.4871 18.3365C97.6203 18.2947 97.7771 18.0753 97.8972 17.9969C98.1036 17.8585 98.4798 17.7958 98.7149 17.7252C98.6522 17.7122 98.6234 17.6338 98.579 17.5894C98.1924 17.6861 98.148 17.6338 97.8972 17.3856C97.7771 17.4222 97.6752 17.5502 97.5576 17.5894C97.4166 17.6364 97.1527 17.5006 97.0796 17.5215C96.9856 17.5476 96.9046 17.6991 96.8079 17.7252C96.3534 17.8559 96.0112 18.091 95.5802 18.2712C95.4652 18.3208 95.2928 18.2346 95.17 18.2712C95.0029 17.9394 94.8305 18.0335 94.4883 17.9316C94.6293 17.6469 94.7521 17.336 94.8984 17.0461C94.6424 16.6621 94.7808 16.6908 94.8305 16.2963C94.9872 16.1866 95.0865 15.9985 95.2406 15.8862C95.3163 15.8314 95.4966 15.8862 95.5802 15.8183C95.7369 15.6929 95.7683 15.5179 95.9198 15.4082C96.4762 15.019 97.1684 14.4521 97.555 14.1125C97.555 13.9976 97.5916 13.8121 97.555 13.7024C97.5054 13.5561 97.3513 13.7024 97.2834 13.5665C97.2024 13.5822 97.1371 13.6449 97.0796 13.7024C96.8445 13.624 96.5545 13.6423 96.3299 13.7703C96.0478 13.9323 95.7369 14.3267 95.4443 14.5879C95.4443 14.951 95.4182 14.9798 95.1047 15.3376C94.7652 15.7216 94.1408 15.8758 93.7412 16.1553C93.4146 16.3852 93.3284 16.5968 93.0594 16.8371C93.0045 16.8841 92.8974 16.8475 92.8556 16.905C92.8138 16.9599 92.887 17.0487 92.8556 17.1088C92.7537 17.3125 92.55 17.4483 92.4455 17.6547C92.3776 17.7879 92.3567 18.057 92.3096 18.2007C92.563 18.2634 92.7694 18.394 92.9914 18.5403C92.9914 18.6082 92.9444 18.697 92.9914 18.744C92.8112 18.9713 92.6832 19.256 92.4455 19.4258C92.1372 19.6452 91.7585 19.6348 91.492 19.9718C91.3353 20.1677 91.2125 20.6771 91.1524 20.9252C91.1838 20.9566 91.2752 20.8808 91.2883 20.9252C91.2256 20.9879 91.1524 21.1081 91.1524 21.1969C91.0244 21.2936 91.0244 21.466 90.8807 21.5365C90.8363 21.56 90.8494 21.4372 90.8128 21.4007C90.4576 21.6854 90.1154 21.7089 89.7235 21.8787C89.619 22.3019 89.35 22.2418 88.9738 22.3568C88.9869 22.2157 88.8954 22.0616 88.838 21.9466C89.0104 21.7742 89.0574 21.688 89.1096 21.4686C88.8327 21.1003 88.8719 20.9749 88.9738 20.5151C88.898 20.4394 88.7387 20.4812 88.7021 20.3793C88.7674 20.2487 88.8772 20.071 88.838 19.9012C88.8118 19.7889 88.6212 19.8438 88.5663 19.6975C88.4696 19.7811 88.3625 19.9143 88.3625 20.0371C87.814 20.3114 87.2941 20.7476 86.7273 20.9905C86.4582 21.1055 86.0768 20.9017 85.8417 20.8547C86.0559 20.5804 86.6123 19.9561 85.9096 20.3767C86.0376 20.186 86.1343 20.0162 86.3198 19.8307C86.1944 19.7053 86.3224 19.627 86.0481 19.627C86.1265 19.3892 86.3067 19.2221 86.4582 19.0131C86.3563 18.9112 86.3799 18.7728 86.4582 18.6735C86.7194 18.3313 87.1635 18.0439 87.5475 17.7879C87.605 17.7514 87.6938 17.8219 87.7513 17.7879C87.9002 17.7017 87.8741 17.5293 88.023 17.4483C88.1797 17.3621 88.4122 17.4092 88.5689 17.3125C88.7074 17.2263 88.8432 16.9703 88.9085 16.8345C89.1488 16.7665 88.8667 16.9703 89.1123 16.9703C89.4936 16.5262 89.8672 16.218 90.34 15.881C90.3949 15.8418 90.5516 15.8601 90.6117 15.8131C90.7867 15.6772 90.8233 15.4656 90.9513 15.335C91.0453 15.241 91.236 15.1861 91.3614 15.0634C91.4554 14.9693 91.4842 14.6741 91.5652 14.5853C91.7271 14.4103 91.8812 14.4887 92.0432 14.3136C92.6101 13.6945 93.1508 13.018 93.7464 12.5425C93.9083 12.4145 94.0807 12.5399 94.2244 12.4746C94.3185 12.4328 94.3028 12.2369 94.3603 12.203C94.133 12.203 93.877 12.2996 93.6785 12.3388C93.9266 12.0906 94.1408 11.832 94.3603 11.5891C94.5222 11.7197 94.2035 11.704 94.3603 11.8608C94.5457 11.8085 94.5274 11.8608 94.6998 11.8608C94.8723 11.5708 94.9637 11.5447 95.2458 11.4506C95.2458 11.179 95.3163 11.1894 95.4496 10.9726C95.6559 10.9726 95.4888 11.0797 95.5854 11.1763C95.6324 11.1372 95.8597 11.0405 95.925 11.0405C96.1131 10.6643 96.2045 10.6016 96.5389 10.7688C96.996 10.4136 97.333 10.3221 97.6282 9.9512C97.7118 9.9512 97.8528 10.0452 97.8998 10.0191C98.4171 9.73961 98.8272 9.36867 99.2634 8.99773C99.3523 8.92197 99.5038 8.94026 99.603 8.86189C99.4149 9.07348 99.1172 9.43136 99.0571 9.61161C99.334 9.39218 99.6553 9.14924 99.9426 8.86189C99.8564 9.03169 99.8956 9.14924 99.8747 9.27202C100.183 8.96377 100.392 8.60851 100.828 8.5223C100.742 8.65291 100.583 8.78614 100.489 8.93242C100.449 8.99251 100.58 9.06826 100.557 9.13618C100.708 9.01863 100.786 8.71822 100.967 8.65814C101.228 8.57193 101.526 8.61373 101.784 8.65814C101.75 8.71561 101.784 8.79397 101.784 8.86189C101.57 9.00557 101.382 9.19887 101.17 9.33993C101.134 9.30336 101.084 9.26157 101.035 9.27202C100.846 9.30859 100.948 9.56197 100.967 9.54369C101.51 9.54369 101.899 9.35299 102.466 9.27202C102.44 9.43136 102.247 9.42353 102.126 9.54369C102.207 9.55153 102.273 9.62206 102.33 9.67953C102.591 9.59332 102.793 9.61422 103.08 9.54369C103.124 9.5881 103.153 9.67953 103.216 9.67953C103.388 9.67953 103.553 9.50712 103.762 9.54369C103.741 9.54108 103.911 9.73699 103.965 9.74744C104.352 9.82581 104.464 10.0034 104.851 10.2255C104.989 10.3039 105.183 10.2359 105.329 10.2934C105.483 10.3561 105.52 10.6016 105.669 10.7035C105.629 10.8341 105.669 11.0431 105.669 11.1816C105.373 11.4454 105.125 11.785 104.783 11.9313C103.858 12.3283 102.738 12.1037 101.784 11.9313C101.727 11.9208 101.604 11.6988 101.513 11.6596C101.541 11.7249 101.408 11.8033 101.445 11.8634C101.638 12.1873 101.92 12.4067 102.262 12.5452C102.168 12.7776 102.137 12.937 101.991 13.159C102.077 13.4203 102.032 13.5901 101.991 13.8408C102.372 13.9166 102.699 14.042 103.012 14.1804C103.067 14.0864 103.375 13.9558 103.49 13.8408C103.205 13.7259 102.863 13.7102 102.944 13.2949C102.962 13.2008 103.111 13.1799 103.148 13.0911C103.213 13.1199 103.294 12.9814 103.352 13.0232C103.482 13.1172 103.511 13.2505 103.623 13.3628C104.01 13.2844 104.321 13.3445 104.713 13.2949C104.705 13.2139 104.875 13.1669 104.848 13.0911C104.775 12.8743 104.645 12.8482 104.645 12.6131C105.125 12.2291 105.609 11.9234 106.076 11.5238C106.228 11.5734 106.397 11.5394 106.554 11.5917C106.643 11.6204 106.656 11.751 106.758 11.7954C106.943 11.4846 107.079 11.2625 107.168 10.9099C107.03 10.7714 107.04 10.7636 106.964 10.6382C107.173 10.377 107.38 10.1236 107.304 9.75267C107.288 9.67169 107.118 9.6952 107.1 9.61683C107.445 9.54891 107.743 9.51757 108.122 9.48099C108.169 9.60638 108.38 9.79446 108.461 9.95904C107.996 10.074 107.758 10.155 107.508 10.5729C107.701 10.7662 107.74 10.6983 107.918 10.983C108.304 10.8681 108.647 10.7923 108.939 10.4371C108.976 10.3927 108.95 10.2072 109.007 10.1654C109.195 10.0217 109.498 10.0191 109.689 9.89373C110.18 9.5672 110.548 9.25895 111.053 9.00818C111.068 9.02385 111.259 9.21193 111.256 9.21193C111.528 8.85144 111.716 8.76785 112.074 8.53014C112.027 8.62418 111.899 8.97683 111.734 9.14402C111.823 9.13618 112.003 9.27202 112.144 9.21193C112.419 9.097 112.677 8.8854 112.962 8.80181C113.15 8.74695 113.385 8.85406 113.576 8.80181C113.756 8.75218 113.892 8.49879 114.054 8.39169C114.135 8.33944 114.307 8.36818 114.394 8.32377C114.558 8.48834 114.433 8.60851 114.529 8.86973C114.835 8.71561 115.01 8.52491 115.279 8.25585C115.141 7.77259 114.945 7.49569 114.461 7.30238C114.461 7.21618 114.595 6.8792 114.597 6.89226C114.657 6.92883 114.866 6.89226 114.937 6.89226C115.005 7.09601 115.182 7.32851 115.415 7.3703C115.93 7.46434 116.447 7.32067 116.914 7.50614C117.11 7.58451 117.33 7.87185 117.528 7.91626C117.643 7.94238 117.834 7.86402 117.938 7.91626C118.26 8.07561 118.557 8.38908 118.824 8.59806C118.868 8.44916 119.093 8.2663 119.164 8.12002C118.884 7.89536 118.845 7.67071 118.618 7.3703C118.495 7.3703 118.328 7.39904 118.207 7.3703C118.359 6.99153 118.547 6.65716 118.547 6.21046C118.429 6.15299 118.273 6.11381 118.207 6.07463C118.341 5.92573 118.354 5.7272 118.547 5.59659C118.832 5.40589 119.195 5.18646 119.365 4.84687C119.409 4.75544 119.32 4.5961 119.365 4.50728C119.472 4.29308 119.6 4.10499 119.704 3.8934C120.096 3.97177 120.438 3.8934 120.861 3.8934C120.937 4.01618 121.201 3.99267 121.201 4.16508C121.201 4.62744 120.916 5.00883 120.723 5.39283C120.801 5.54695 120.929 5.66973 121.063 5.80295C121.026 6.10336 121.023 6.3045 120.859 6.55267C120.919 6.73291 120.953 6.95234 120.927 7.16654C120.919 7.23446 120.778 7.51659 120.791 7.57667C120.872 7.96589 120.987 7.97634 121.269 8.25846C121.149 8.55887 120.997 8.63985 120.997 9.00818C120.621 9.19626 120.558 9.41046 120.383 9.75789C119.905 9.89373 119.631 10.0531 119.156 9.89373C119.098 9.9512 119.033 10.0296 118.952 10.0296C118.999 10.0609 119.051 10.2673 119.156 10.3012C119.43 10.3927 119.702 10.3692 119.973 10.3012C120.007 10.3352 120.276 10.4972 120.313 10.505C120.76 10.1158 121.141 9.80753 121.47 9.27724C121.53 9.1832 121.705 9.11006 121.742 9.00557C121.841 8.72083 121.747 8.41781 121.674 8.12002C122.032 7.85095 122.275 7.85095 122.627 7.78042C122.695 7.90059 122.967 8.08344 122.967 8.19055C122.967 8.6712 122.771 8.91414 123.307 9.14402C123.448 9.2041 123.628 9.06826 123.717 9.0761C123.385 8.89324 123.064 8.96377 123.171 8.53014C123.288 8.53014 123.364 8.40736 123.442 8.32638C123.367 8.21928 123.246 7.90842 123.171 7.84834C122.849 7.59757 122.661 7.53226 122.285 7.43822C122.209 7.51397 122.045 7.6054 121.946 7.64197C121.82 7.689 121.632 7.55838 121.468 7.57406C121.441 7.30499 121.355 7.01765 121.4 6.75642C121.431 6.57095 121.697 6.43512 121.81 6.27838C121.849 6.22353 121.776 6.1321 121.81 6.07463C121.549 5.8134 121.415 5.54957 121.264 5.32491C121.41 5.13161 121.569 4.98793 121.674 4.77895C121.98 4.77895 122.128 4.59087 122.288 4.36883C122.343 4.29046 122.22 3.86467 122.22 3.82287C122.204 3.79153 122.468 4.00312 122.492 4.02663C122.405 4.53863 122.288 4.89128 122.288 5.39022C122.766 5.48687 123.236 5.52344 123.651 5.80034C123.696 5.75593 123.727 5.64622 123.787 5.6645C123.704 5.60965 123.61 5.41634 123.516 5.39283C123.275 5.33275 123.111 5.31446 122.902 5.18908C122.805 5.13161 122.795 4.94614 122.698 4.84948C122.627 4.85732 122.902 4.64573 122.902 4.64573C123.26 4.79985 123.382 4.91479 123.651 4.64573C123.44 4.50467 123.32 4.44459 123.105 4.37406C123.105 4.32965 123.142 4.26434 123.105 4.23822C123.265 4.23822 123.327 3.94042 123.583 4.03446C123.688 4.07104 123.651 4.28785 123.787 4.30614C123.978 4.33226 124.239 4.25912 124.469 4.37406C124.704 4.49161 124.866 4.77634 125.083 4.92001C125.213 5.00622 125.404 4.82075 125.561 4.8521C125.564 4.86255 125.645 4.6405 125.629 4.58042C125.553 4.28263 125.336 4.30352 125.015 4.24083C124.924 3.96393 124.85 3.85161 124.947 3.55904C124.89 3.50157 124.772 3.49895 124.743 3.4232C124.681 3.26646 124.824 3.13585 124.811 3.01308C124.874 3.00002 124.903 2.92165 124.947 2.87724C125.349 2.95822 125.658 2.83544 126.036 2.7414C126.206 2.69961 126.285 2.82761 126.446 2.80932C126.491 2.8041 126.676 2.66826 126.718 2.67348C126.783 2.67871 126.81 2.76491 126.854 2.80932C127.019 2.75446 127.17 2.65781 127.332 2.60557C127.46 2.56377 127.494 2.69699 127.604 2.67348C127.585 2.5925 127.682 2.5272 127.74 2.46973C127.465 2.19544 127.28 2.1223 127.672 1.99169C127.672 1.85324 127.565 1.86108 127.536 1.72001C127.852 1.43789 128.157 1.04867 128.557 0.834464C129.038 0.575852 129.503 0.675117 129.989 0.494872C130.156 0.432178 130.125 0.212749 130.192 0.15528C130.569 0.304178 130.605 0.288504 130.942 0.0873615C131.047 0.0246676 131.209 0.184015 131.352 0.15528C131.352 0.288504 131.324 0.398219 131.42 0.494872C131.838 0.43479 132.11 0.325076 132.509 0.0847495C132.674 0.168341 132.81 0.304178 132.988 0.356423C132.969 0.309402 133.084 0.262382 133.055 0.220586C132.93 0.0351167 132.792 -0.0354139 132.716 -0.189536C132.959 -0.189536 133.194 -0.189536 133.466 -0.189536C133.466 -0.651904 133.531 -0.936639 133.944 -1.21092C134.064 -1.28929 134.051 -1.43558 134.215 -1.4826L134.2 -1.52962ZM138.575 1.17667C138.74 1.25765 138.734 1.17667 138.575 1.17667V1.17667ZM138.575 2.54026C138.727 2.59773 138.878 2.60818 139.053 2.60818C139.04 2.67871 139.121 2.7414 139.121 2.81193C138.714 3.11757 138.698 2.96867 138.303 2.74401C138.303 2.53242 138.575 2.6761 138.575 2.54026ZM149.272 2.74401C149.408 2.81193 149.63 2.78059 149.75 2.87985C150.022 3.1045 150.281 3.34222 150.5 3.56165C150.557 3.44671 150.557 3.25079 150.636 3.15153C151.247 3.51724 151.869 3.77063 152.475 4.17291C152.376 4.23822 152.389 4.48116 152.339 4.58304C152.177 4.56214 151.976 4.3192 151.793 4.37928C151.615 4.43936 151.858 4.58304 151.929 4.58304C151.446 4.43936 150.918 4.38189 150.429 4.24344C150.382 4.29046 150.375 4.50728 150.362 4.51512C149.92 4.20687 149.434 3.92997 149.066 3.56165C149.17 3.35267 149.021 3.2534 148.998 3.01569C148.977 2.80148 149.223 2.8694 149.27 2.74401H149.272ZM148.316 2.87985C148.374 2.93732 148.504 2.93471 148.52 3.01569C148.606 3.44932 148.316 3.26908 148.316 2.87985ZM151.247 3.7654C151.315 3.93781 151.352 4.08932 151.519 4.17553C151.375 4.03185 151.299 3.9352 151.383 3.7654C151.339 3.7654 151.271 3.80197 151.247 3.7654ZM153.018 4.37928C153.23 4.46026 153.238 4.41063 153.358 4.65095C153.428 4.65095 153.585 4.51251 153.697 4.58304C154.157 4.87038 154.651 5.02712 155.129 5.26483C155.129 5.33275 155.077 5.42418 155.129 5.46859C154.369 5.39283 153.891 5.22304 153.29 4.78679C153.136 4.67446 153.102 4.46287 153.018 4.37667V4.37928ZM148.794 4.51251C148.993 4.63006 149.155 4.68753 149.272 4.92263C149.113 4.84426 148.922 4.6405 148.794 4.51251ZM150.975 4.8521C151.103 4.9801 151.229 5.01667 151.315 5.19169C151.046 5.32753 151.002 5.25961 150.837 4.98793C150.803 4.93308 150.973 4.91479 150.973 4.8521H150.975ZM151.383 5.39806C151.725 5.53389 152.093 5.5992 152.404 5.80818C152.488 5.86565 152.6 6.12426 152.676 6.2183C152.605 6.20524 152.535 6.31757 152.472 6.28622C152.093 6.09553 151.762 5.95708 151.383 5.74026C151.357 5.72459 151.072 5.81079 151.043 5.80818C151.075 5.77683 151.043 5.71675 151.043 5.67234C151.284 5.79251 151.284 5.57569 151.383 5.40067V5.39806ZM109.82 8.33161C109.979 8.40998 110.201 8.38647 110.365 8.46744C110.334 8.49879 110.365 8.55887 110.365 8.60328C110.062 8.83055 109.812 8.9481 109.48 9.08132C109.433 9.0343 109.326 8.89585 109.276 8.87757C109.449 8.70516 109.686 8.50663 109.822 8.33161H109.82ZM162.425 11.9443C162.608 12.3101 162.655 12.2892 162.425 11.9443V11.9443ZM80.9307 21.8265C80.9333 21.8134 81.2024 21.7873 81.2024 21.8944C81.043 21.9989 80.7687 22.1373 80.6564 22.3045C80.6172 22.3646 80.7374 22.4377 80.7243 22.5083C81.0639 22.3724 81.3774 22.2418 81.7457 22.1687C81.4453 22.6206 81.0404 22.9863 80.6564 23.3285C80.8105 23.4069 80.9438 23.3964 81.1345 23.3964C81.2572 23.7621 81.2651 24.0416 81.6804 24.1461C81.6804 24.4152 81.7065 24.4727 81.8163 24.6921C81.8633 24.7835 81.7379 25.0056 81.7483 25.1022C81.9861 25.0239 82.1663 25.0186 82.4301 24.9664C82.3936 25.0239 82.4641 25.1127 82.4301 25.1701C82.2342 25.4993 81.8633 25.7265 81.5446 25.9199C81.683 25.9878 81.8136 25.9329 81.9547 25.9878C81.7013 26.1158 81.414 26.3326 81.1371 26.3979C80.4814 26.5494 79.9198 26.4214 79.2981 26.6696C79.204 26.7061 79.0891 26.8785 79.0264 26.9412C78.598 26.8341 78.5118 27.0666 78.1408 27.2129C78.4386 26.9465 78.7652 26.5651 79.1622 26.3953C79.2745 26.3456 79.4496 26.4266 79.5723 26.3953C79.6925 26.3639 79.797 26.1732 79.9119 26.1236C79.5567 26.1602 79.0212 26.1236 78.6163 26.1915C78.8566 26.0322 79.2458 25.831 79.4339 25.5776C79.4835 25.5123 79.2981 25.4549 79.2981 25.3739C79.5514 25.2224 79.7186 25.2067 79.9798 25.1022C80.1601 25.0291 80.1287 24.747 80.2515 24.6242C80.1653 24.2768 79.9563 24.4439 80.2515 24.1461C79.9851 24.1461 79.6977 24.235 79.366 24.282C79.5776 23.8588 80.0791 23.339 79.2981 23.6002C79.4443 23.4905 79.8336 23.3233 79.5697 23.1901C79.4234 23.3363 79.3816 23.433 79.2301 23.3938C79.6376 22.8687 80.019 22.4038 80.4579 21.8944C80.7165 21.8944 80.693 21.9336 80.9359 21.8265H80.9307ZM156.908 21.9623C156.95 22.0172 157.13 21.9492 157.18 22.0981C157.31 22.4926 157.472 22.8165 157.658 23.1874C157.543 23.4147 157.509 23.4748 157.59 23.7334C157.658 23.9528 157.95 24.1279 158 24.3473C158.023 24.4596 157.893 24.5432 157.932 24.619C158.128 25.0108 158.384 25.3243 158.614 25.7083C158.345 25.6273 158.264 25.5045 157.932 25.5045C157.906 25.6299 157.728 25.8728 157.728 25.9825C157.728 26.6278 158.039 26.8341 158.41 27.2782C158.454 27.3331 158.376 27.4898 158.41 27.5499C158.342 27.5081 158.337 27.3096 158.206 27.2782C157.851 27.1894 157.77 27.3148 157.592 27.5499C157.579 27.4141 157.477 27.3827 157.456 27.2782C157.428 27.1345 157.469 26.9804 157.524 26.8681C157.443 26.7061 157.425 26.6434 157.389 26.458C157.459 26.3874 157.514 26.2803 157.524 26.1863C157.545 26.0296 157.271 25.8545 157.253 25.7083C157.203 25.3034 157.323 24.9612 157.185 24.5484C157.151 24.4439 157.302 24.4021 157.253 24.2768C157.153 24.0286 156.981 23.7987 156.775 23.595C156.822 23.211 156.793 22.9889 156.707 22.6415C156.801 22.5474 156.929 22.5318 157.046 22.4377C157.046 22.2366 156.884 22.1817 156.91 21.9597L156.908 21.9623ZM78.6894 24.2088C78.6998 24.2872 78.9611 24.3969 78.9611 24.619C78.8148 24.7104 78.4177 24.8436 78.3472 25.0291C78.342 25.0421 78.4569 25.2198 78.4151 25.3007C78.2819 25.5698 78.0259 25.7814 77.8692 25.9825C77.9789 25.4392 78.1278 24.9376 78.2793 24.4152C78.3968 24.3577 78.598 24.3003 78.6894 24.2114V24.2088ZM108.056 26.2568C107.994 26.2647 107.978 26.3665 107.92 26.3927C107.471 26.586 107.16 26.808 106.763 27.0745C106.787 27.098 106.86 27.1267 106.831 27.1424C106.638 27.2443 106.309 27.3461 106.081 27.3461C105.98 27.6544 105.791 27.8033 105.603 28.0279C105.637 28.0567 105.603 28.1194 105.603 28.1638C106.042 28.3832 106.251 28.472 105.875 28.8456C106.102 29.2243 106.374 29.4673 106.625 29.799C106.667 29.8565 106.656 30.0681 106.693 30.1386C106.805 30.3607 106.97 30.5331 107.103 30.7525C106.975 30.9589 106.985 30.9824 106.763 31.0921C106.721 31.3455 106.815 31.4395 106.559 31.5701C106.559 31.8418 106.559 32.1161 106.559 32.3878C106.99 32.5158 107.155 32.4792 107.445 32.8658C108.038 32.939 108.623 32.9259 109.216 32.8658C109.216 32.7065 109.119 32.6281 109.148 32.4557C109.18 32.2624 109.326 31.753 109.284 31.5701C109.24 31.3742 108.947 31.3664 108.874 31.3664C108.848 31.2018 109.012 31.0921 109.078 31.0268C108.913 30.8622 108.869 30.9902 108.668 30.891C108.749 30.3293 108.775 30.183 109.349 30.4129C109.464 30.3554 109.631 30.2901 109.759 30.2771C109.548 30.0368 109.274 29.7651 109.349 29.4594C108.9 29.5718 108.916 29.8487 108.735 30.2092C108.712 30.0942 108.56 29.9819 108.532 29.8696C108.469 29.6162 108.657 29.3889 108.735 29.1878C108.498 29.0676 108.239 28.9318 107.986 28.8482C107.902 28.3492 107.68 28.2996 107.44 27.9626C107.636 27.8973 107.839 27.9417 108.054 27.8947C108.054 27.7981 107.918 27.7589 107.85 27.691C107.936 27.6047 108.009 27.3879 108.122 27.3514C108.451 27.2416 108.816 27.354 109.143 27.4193C109.146 27.3932 109.033 27.1737 109.007 27.1476C109.018 27.1058 109.177 26.842 109.211 26.808C109.007 26.2986 109.052 26.2255 108.529 26.3979C108.385 26.2542 108.257 26.2333 108.051 26.2621L108.056 26.2568ZM157.519 27.9652C158.055 28.3388 158.632 28.7933 159.222 29.0545C159.366 29.1172 159.447 28.7933 159.562 28.7829C159.58 28.9239 159.494 28.9814 159.494 29.1225C159.659 29.2061 159.698 29.2139 159.698 29.3941C159.627 29.4359 159.64 29.5718 159.562 29.5979C159.4 29.6528 159.152 29.5744 159.016 29.53C158.919 29.6266 158.736 29.7494 158.676 29.8696C158.645 29.9296 158.721 30.0237 158.676 30.0733C158.337 29.9897 157.974 29.7729 157.655 29.7337C157.49 29.7128 157.509 29.8069 157.383 29.8696C157.394 29.8643 157.059 29.8016 157.044 29.8016C157.104 29.9819 157.25 30.008 157.383 30.1412C157.308 30.1804 157.104 30.2823 156.973 30.345C156.9 30.1282 156.79 29.9401 156.701 29.7311C156.903 29.53 156.973 29.5613 156.973 29.2531C157.143 29.3367 157.258 29.3497 157.451 29.3889C157.514 29.1643 157.655 28.6784 157.655 28.3675C157.655 28.2709 157.532 28.1011 157.519 27.9574V27.9652ZM85.0215 30.4782C85.0215 30.5226 85.1129 30.4782 85.1573 30.4782C85.0607 30.8648 85.0006 31.0399 84.6793 31.2959C84.7367 31.3977 84.8073 31.5675 84.9509 31.5675C84.9509 31.9202 84.9588 32.1631 84.8151 32.4531C84.6453 32.4531 84.4076 32.5811 84.2692 32.6568C84.2561 32.521 84.3789 32.3277 84.3371 32.1788C84.3031 32.0612 84.1333 31.8941 84.1333 31.7687C84.1333 31.5022 84.4886 31.4003 84.6793 31.2906C84.6375 31.0816 84.6114 30.9119 84.6114 30.6768C84.8151 30.6768 84.883 30.6323 85.0215 30.473V30.4782ZM157.383 30.473C157.409 30.5096 157.475 30.473 157.519 30.473C157.6 30.8021 157.848 31.0869 158.065 31.3585C157.919 31.847 157.95 32.0848 157.587 32.4479C157.66 32.6647 157.663 32.8162 157.723 33.0617C157.66 33.1244 157.464 33.323 157.451 33.4013C157.422 33.5816 157.676 33.6834 157.655 33.8114C157.631 33.9551 157.36 34.138 157.315 34.2895C157.085 34.2634 157.143 34.2529 156.976 34.0857C156.775 34.2294 156.691 34.2477 156.566 34.4959C156.49 34.4201 156.432 34.3182 156.362 34.2242C156.315 34.2712 156.203 34.488 156.158 34.4959C155.819 34.5638 155.615 34.3731 155.341 34.2921C155.432 34.6578 155.186 34.7597 154.862 35.0418C154.857 35.0261 154.617 34.9138 154.591 34.8381C154.528 34.65 154.653 34.5481 154.591 34.36C154.11 34.36 153.718 34.4436 153.295 34.5638C153.146 34.6056 153.073 34.4854 152.956 34.4959C152.791 34.5115 152.956 34.791 152.888 34.8354C152.629 34.7492 152.436 34.7283 152.138 34.6996C152.36 34.5272 152.681 34.3182 152.956 34.1536C153.05 34.0962 153.125 33.9133 153.227 33.882C153.771 33.7148 154.356 33.8323 154.862 33.882C155.037 33.639 155.273 33.3674 155.273 33.0643C155.586 33.0643 155.871 33.1558 156.158 32.9964C156.344 32.8919 156.346 32.7143 156.43 32.5863C156.495 32.487 156.743 32.2937 156.84 32.2467C156.884 32.0874 157.044 31.8601 157.044 31.7007C157.044 31.5675 156.999 31.4526 156.908 31.3612C157.007 31.1626 156.929 31.0372 156.908 30.8152C157.153 30.6506 157.025 30.5514 157.318 30.7473C157.389 30.6768 157.43 30.4312 157.386 30.4756L157.383 30.473ZM87.7487 32.8606C87.7487 32.9285 87.8845 32.8606 87.9524 32.8606C87.8819 33.2159 87.7199 33.2942 87.8166 33.6782C87.2549 33.5972 86.8239 33.4039 86.3172 33.2002C86.3903 33.1636 86.3955 33.0539 86.453 32.9964C86.7691 33.0487 87.14 33.1192 87.4744 33.0643C87.5763 33.0461 87.652 32.8893 87.7461 32.8606H87.7487ZM84.8151 33.6103C85.1416 33.7331 85.0685 34.0544 85.429 33.8141C85.3872 33.9394 85.0842 34.2137 85.1573 34.36C85.2514 34.5481 85.463 34.6369 85.3611 34.906C85.301 35.0653 84.8386 35.371 84.7472 35.4519C84.836 35.4911 84.8647 35.6139 84.9509 35.6557C84.9849 35.6714 85.2096 35.5878 85.2905 35.5878C85.4159 35.7759 85.6719 36.011 85.9044 36.0658C86.1944 36.1337 86.4556 35.9979 86.722 35.9979C86.9258 35.9979 87.1557 36.1938 87.3359 36.2696C87.3725 36.233 87.43 36.1729 87.4718 36.2017C87.6677 36.3375 87.7461 36.617 87.8114 36.8155C88.1718 36.8155 88.5846 36.8417 88.9686 36.9514C89.1332 36.9984 89.3552 37.2753 89.5145 37.291C90.1807 37.3589 90.3661 36.9174 90.1963 36.4054C90.4262 36.1755 90.7867 35.9195 91.0819 35.8594C91.5991 35.755 91.7767 36.1102 92.1712 36.2696C92.4011 36.361 92.7459 36.2199 92.9888 36.2696C93.1064 36.2931 93.2004 36.5177 93.3284 36.5412C93.5426 36.583 93.8012 36.4785 94.0102 36.5412C94.3994 36.6588 95.0734 36.9697 95.5096 36.8808C95.7474 36.8338 95.9485 36.5256 96.1914 36.4707C96.5911 36.3819 96.834 36.5726 97.1449 36.6745C97.2677 36.7163 97.427 36.6483 97.555 36.6745C97.5759 36.7424 97.4558 36.8155 97.4871 36.8782C97.7562 37.4163 97.8372 37.7638 97.7588 38.3777C97.6151 38.0929 97.4636 37.8761 97.2128 37.6279C97.1893 37.6514 97.1684 37.7194 97.1449 37.6959C97.1945 37.7821 97.1632 37.9519 97.2128 38.0354C97.2755 38.1399 97.427 38.106 97.4845 38.2392C97.7301 38.793 97.9495 39.4121 98.2342 39.9424C98.3727 40.201 98.6156 40.3786 98.7802 40.6242C98.8794 40.7757 98.6365 40.935 98.7123 41.1022C98.7985 41.2877 99.0205 41.2746 99.1224 41.3739C99.2452 41.4967 99.4463 41.7579 99.5325 41.9199C99.5665 41.9852 99.7363 42.3404 99.7363 42.3979C99.7363 42.6252 99.5795 43.0483 99.7363 43.2834C99.9452 43.5969 100.423 43.7824 100.622 44.1011C100.81 44.4041 100.737 44.8978 100.961 45.1904C101.293 45.624 101.904 45.7964 102.325 46.1439C102.706 46.4626 102.991 46.81 103.346 47.1652C103.299 47.2123 103.346 47.3011 103.346 47.369C103.234 47.369 103.103 47.4578 103.007 47.5048C103.362 47.6459 103.712 47.9411 104.028 48.1866C104.138 48.1657 104.227 48.1788 104.3 48.2546C104.679 48.0665 104.888 48.1631 105.253 48.1187C105.36 48.1057 105.488 47.9228 105.593 47.915C106.374 47.8444 106.941 47.7164 107.638 47.5048C107.662 47.7399 107.782 48.056 107.706 48.3225C107.466 49.1636 106.956 49.8663 106.549 50.6395C106.233 51.2403 105.799 51.9953 105.253 52.4785C104.958 52.7398 104.506 52.7894 104.232 53.0245C103.845 53.3563 103.474 53.7847 103.143 54.1843C103.106 54.2288 103.114 54.4012 103.075 54.456C102.821 54.8034 102.445 54.8897 102.189 55.2737C102.137 55.352 102.226 55.527 102.189 55.6132C102.012 56.0312 101.779 56.3394 101.779 56.841C101.779 57.0578 102.184 57.1937 102.257 57.387C102.304 57.5123 102.197 57.5829 102.121 57.6586C102.187 57.9852 102.27 58.3509 102.461 58.68C102.581 58.8864 102.952 59.0327 103.075 59.2939C103.177 59.5107 103.049 59.8033 103.075 59.9757C103.158 60.5112 103.443 61.0676 103.553 61.611C103.595 61.8199 103.485 61.9558 103.485 62.1569C103.339 62.2849 103.231 62.5566 103.075 62.635C102.787 62.7786 102.388 62.7917 102.121 62.9745C101.904 63.1261 101.821 63.3377 101.711 63.5205C101.567 63.7608 101.21 63.9254 101.029 64.0665C101.533 64.8214 101.915 65.6208 101.915 66.6552C101.656 66.7571 101.356 66.7571 101.097 66.859C100.988 66.9034 100.93 67.0784 100.826 67.1306C100.891 67.2795 101.155 67.465 101.165 67.6087C101.272 68.8782 100.543 70.3228 99.5299 71.1535C99.4202 71.2423 99.2399 71.0621 99.1198 71.0856C99.044 71.2371 98.8403 71.2423 98.7096 71.2214C98.3335 71.1613 97.9338 70.8113 97.5524 70.8113C97.5106 70.8113 97.3252 71.015 97.2128 71.015C96.8549 71.015 96.4527 70.9837 96.1235 70.8113C95.75 70.6127 95.4809 70.1634 95.17 69.7899C95.2589 69.6123 95.2432 69.4294 95.17 69.2439C95.0264 68.8861 94.5745 68.7345 94.3524 68.4263C94.2166 68.2356 94.1539 67.9248 94.0128 67.7445C93.5243 67.1254 92.7015 66.6134 92.3096 65.9734C92.132 65.6808 92.085 65.2942 91.8995 65.0199C91.7794 64.8397 91.5913 64.7274 91.4894 64.5419C91.4528 64.4766 91.5077 64.3434 91.4894 64.2702C91.4372 64.0639 91.2804 63.7556 91.1498 63.5884C90.9852 63.3794 90.6456 63.2253 90.468 62.9745C90.3008 62.7421 90.1101 62.3633 89.9221 62.1569C89.5825 61.7834 89.222 61.5744 88.9686 61.1355C88.6368 60.5608 88.6995 59.4663 88.7648 58.8185C88.9581 58.7218 89.0496 58.6435 89.175 58.4789C89.0992 58.2516 89.0887 58.0061 88.9712 57.7971C88.8014 57.4993 88.5245 57.2772 88.3573 56.9795C88.2894 56.8567 88.5271 56.6451 88.4932 56.5693C88.3129 56.1697 87.8166 55.9346 87.6076 55.5479C87.5318 55.4069 87.5867 55.1195 87.4718 55.002C87.1034 54.6337 86.7482 54.3463 86.3825 53.9806C86.0324 53.6306 85.5047 53.3171 85.2932 52.8913C85.1364 52.5804 85.2252 52.3453 85.429 52.1416C85.3846 51.9874 85.2043 51.6034 85.2252 51.4598C85.2749 51.115 85.4342 50.9164 85.1573 50.5742C85.079 50.4776 84.9745 50.3914 84.8856 50.3026C84.836 50.3522 84.7394 50.4149 84.6819 50.3705C84.5225 50.2503 84.486 50.1119 84.4102 49.9603C83.9478 50.1145 83.5508 50.0779 83.0466 50.0283C82.9656 49.9238 82.7671 49.9081 82.707 49.7566C82.579 49.4405 82.323 49.1218 81.9573 49.0069C81.7901 48.9546 81.5211 49.0069 81.3434 49.0069C80.4814 49.0069 79.5671 49.2263 78.7547 49.5528C78.2949 49.323 77.9318 49.2655 77.3911 49.2132C76.5056 44.7907 75.8212 39.8954 76.3018 35.1045C76.7955 35.2038 77.0489 35.1568 77.5296 35.1045C77.715 35.0836 77.9449 35.3109 78.2114 35.2403C78.4203 35.1855 78.5536 34.8981 78.7573 34.8302C78.9036 34.7806 79.1648 34.8302 79.3033 34.7623C79.5175 34.6552 79.7552 34.4044 79.9851 34.3522C80.1758 34.3104 80.4161 34.4123 80.5989 34.3522C80.8236 34.2764 81.043 34.1275 81.2807 34.0805C81.5106 34.0335 81.9364 34.0335 82.1663 34.0805C82.2473 34.0962 82.2891 34.2268 82.37 34.2163C82.5111 34.1981 82.6496 33.9656 82.7802 33.9447C83.0623 33.8976 83.3418 33.9394 83.5978 33.8768C83.6553 33.9342 83.7206 34.0126 83.8016 34.0126C84.149 34.0126 84.5252 33.7514 84.823 33.6025L84.8151 33.6103ZM153.778 34.6239C153.896 34.6918 154.126 34.6265 154.256 34.6918C154.181 34.7675 154.246 34.9739 154.121 35.1019C153.703 35.0183 153.619 35.1123 153.371 35.4415C153.245 35.4415 153.123 35.3605 153.031 35.3736C153.031 35.2116 153.133 35.243 152.963 35.1019C153.12 35.0235 153.183 34.9216 153.235 34.7623C153.473 34.8799 153.564 34.7205 153.781 34.6265L153.778 34.6239ZM151.942 34.8302C152.365 34.9713 152.493 34.9739 152.828 35.3083C152.671 35.6975 152.574 35.943 152.417 36.3297C152.316 36.3297 152.224 36.3506 152.146 36.3976C152.146 36.3244 152.143 36.2199 152.078 36.1938C152.02 36.2513 152.023 36.3819 151.942 36.3976C151.871 36.0397 151.924 35.8594 152.01 35.512C151.965 35.4676 151.874 35.4389 151.874 35.3762C151.824 35.3892 151.806 35.4624 151.806 35.512C151.764 35.4911 151.715 35.512 151.67 35.512C151.626 35.4232 151.532 35.2377 151.467 35.1724C151.631 35.0888 151.819 34.9974 151.945 34.8328L151.942 34.8302ZM149.763 34.9008C149.792 34.9425 149.863 34.9321 149.899 34.9687C149.844 35.081 149.628 35.243 149.628 34.9687C149.677 34.9687 149.735 34.9425 149.763 34.9008ZM146.971 39.8771C146.997 39.9398 147.107 39.8771 147.175 39.8771C147.175 40.5798 146.932 41.0421 146.629 41.6482C146.545 41.4967 146.219 41.3478 146.219 41.1701C146.219 40.6163 146.673 40.2559 146.968 39.8745L146.971 39.8771ZM146.697 43.623C146.994 43.6883 147.081 43.8581 147.378 43.7589C147.331 44.1246 147.29 44.2761 147.514 44.5765C147.334 44.937 147.099 45.1277 146.832 45.3941C146.906 45.6162 146.971 45.8565 147.036 46.0759C147.101 46.0759 147.128 46.1674 147.172 46.2118C147.475 46.1099 147.64 45.9584 147.854 46.2797C148.065 46.0681 148.141 46.2849 148.332 46.3476C148.436 46.2431 148.355 46.1883 148.468 46.1439C148.517 46.1935 148.465 46.3345 148.536 46.3476C148.272 46.3476 148.274 46.3763 148.125 46.5514C148.225 46.6663 148.277 46.7394 148.397 46.6193C148.397 47.0529 148.551 47.0007 148.875 46.891C148.933 46.9484 148.998 47.0137 149.079 47.0268C149.079 47.2227 149.071 47.4787 149.147 47.7086C148.732 47.7086 148.841 47.8157 148.943 48.1187C148.886 48.1762 148.826 48.2441 148.807 48.3225C148.784 48.2833 148.716 48.3225 148.671 48.3225C148.671 48.1788 148.739 48.1239 148.739 47.9829C148.355 47.7896 148.499 47.5806 148.671 47.2332C148.426 46.9876 148.186 46.8727 147.922 46.6872C147.948 46.729 147.822 46.7839 147.854 46.823C148.055 47.0921 148.298 46.9876 148.193 47.3011C148.128 47.3011 148.102 47.2096 148.058 47.1652C147.898 47.2436 147.93 47.2985 147.786 47.369C147.838 47.0529 147.893 47.079 147.786 46.7551C148.013 46.7551 147.875 46.5905 147.854 46.4834C147.833 46.379 147.577 46.3659 147.514 46.2797C147.399 46.3946 147.514 46.5226 147.514 46.6898C147.389 46.4991 147.263 46.3032 147.104 46.1439C146.746 46.5017 146.71 46.2405 146.422 46.0759C146.472 45.9767 146.728 45.9741 146.832 45.8722C146.751 45.8643 146.686 45.7938 146.629 45.7363C146.498 45.8017 146.36 45.8278 146.219 45.8722C146.145 45.5796 146.098 45.2818 146.015 44.9866C146.098 44.9866 146.292 45.1643 146.354 44.9866C146.459 44.7019 146.373 44.3336 146.422 44.0332C146.456 43.8372 146.634 43.7589 146.694 43.623H146.697ZM146.148 46.3502C146.511 46.5122 146.908 46.5488 146.83 47.0999C146.819 47.1705 146.663 47.1078 146.626 47.1679C146.482 46.8779 146.323 46.6428 146.148 46.3502ZM147.101 46.4861C147.196 46.4861 147.216 46.7186 147.101 46.4861V46.4861ZM147.169 46.9641C147.19 47.032 147.324 46.9824 147.373 47.032C147.028 47.4918 147.42 47.5048 147.783 47.578C147.728 47.8 147.585 47.8497 147.919 47.8497C147.919 48.0717 147.836 48.1318 147.919 48.3277C148.094 48.1527 148.06 47.9411 148.191 47.7817C148.128 47.9385 148.235 48.1161 148.123 48.2598C147.906 48.5288 147.762 48.3172 147.645 48.6699C147.681 48.7065 147.721 48.7561 147.713 48.8057C147.263 48.5367 147.415 48.5759 147.645 48.1919C147.694 48.1083 147.663 47.9437 147.713 47.8523C147.548 47.915 147.292 47.9959 147.099 48.1239C147.182 47.7086 147.209 47.3742 147.167 46.9641H147.169ZM145.735 47.7817C145.691 47.9019 145.735 48.1292 145.735 48.2598C145.707 48.2754 145.691 48.2154 145.667 48.1919C145.215 48.568 144.933 48.9546 144.44 49.2812C144.918 48.8005 145.336 48.2963 145.735 47.7817ZM149.142 48.1919C149.142 48.3408 149.142 48.3408 149.142 48.1919V48.1919ZM148.392 48.2598C148.41 48.312 148.528 48.312 148.528 48.4635C148.462 48.4975 148.018 48.7665 148.118 48.4635C148.159 48.3355 148.321 48.346 148.389 48.2598H148.392ZM149.343 48.3277C149.455 48.44 149.343 48.5367 149.343 48.3277V48.3277ZM149.071 48.5314C149.1 48.5785 149.311 48.5184 149.343 48.6673C149.426 49.0461 149.471 49.4431 149.547 49.8271C149.366 50.0074 149.364 50.104 149.275 50.3052C149.22 50.1092 149.228 50.01 149.139 49.8271C148.901 50.0648 148.946 50.1719 149.003 50.5089C148.969 50.5429 148.807 50.7414 148.799 50.7806C148.752 50.7492 148.7 50.5429 148.596 50.5089C148.528 50.4854 148.442 50.5272 148.392 50.5768C148.3 50.4854 148.209 50.4306 148.12 50.3731C148.12 50.1119 148.118 50.0335 148.256 49.8271C148.345 49.6939 148.12 49.6364 148.12 49.5554C147.943 49.5999 147.849 49.5137 147.849 49.7592C147.765 49.6756 147.553 49.6234 147.371 49.6234C147.245 49.9368 147.031 50.0701 147.031 50.3731C147.031 50.2242 147.12 50.0074 147.031 49.8271C147.068 49.7879 147.224 49.5345 147.235 49.4875C147.274 49.464 147.543 49.4196 147.574 49.4196C147.838 49.067 147.966 49.1244 148.188 49.4196C148.282 49.3648 148.311 49.1662 148.392 49.1479C148.442 49.1349 148.491 49.1793 148.528 49.2159C148.666 49.0095 148.86 48.9102 149.074 48.7378C149.074 48.6699 149.029 48.5837 149.074 48.5341L149.071 48.5314ZM123.795 48.7378C124.367 49.2472 124.762 49.6286 124.681 50.5089C124.665 50.6735 124.412 50.7728 124.341 50.919C124.148 50.8119 123.923 50.778 123.727 50.6474C123.727 50.1275 123.719 49.6678 123.591 49.2159C123.905 49.1114 123.725 49.0252 123.795 48.7378ZM144.236 50.1693C144.625 50.5585 144.86 50.8093 145.393 50.987C145.317 51.0183 145.336 51.1646 145.257 51.1907C145.129 51.2325 144.97 51.2194 144.847 51.2586C144.97 51.627 144.787 51.5956 144.508 51.7367C144.508 51.8098 144.62 51.883 144.575 51.9404C144.447 51.9404 144.403 51.9248 144.304 52.0083C144.338 52.0763 144.262 52.2199 144.304 52.28C144.413 52.4341 144.565 52.5282 144.643 52.6901C144.581 52.7528 144.536 52.8678 144.575 52.9618C144.638 53.1185 144.975 53.3615 145.053 53.4399C144.894 53.4399 144.777 53.4372 144.643 53.3719C144.528 53.4869 144.38 53.7089 144.233 53.7821C144.189 53.9989 144.278 54.2079 144.165 54.3959C144.048 54.5892 143.7 54.712 143.619 54.874C143.523 55.0673 143.669 55.3651 143.551 55.5558C143.275 55.9972 142.99 56.0417 142.598 56.2376C142.598 56.0521 142.616 55.911 142.53 55.7595C142.389 55.7439 142.235 55.8405 142.12 55.8954C142.089 55.8719 141.966 55.7412 141.916 55.6916C141.686 55.7674 141.412 55.8614 141.166 55.8954C141.067 55.5009 140.809 55.6524 140.417 55.6916C140.365 55.5714 140.192 55.4513 140.145 55.2815C140.038 54.9079 140.007 54.5501 139.873 54.1922C139.837 54.0929 139.696 54.025 139.67 53.9205C139.617 53.7168 139.871 53.3484 139.941 53.1708C140.114 53.1891 140.025 53.1865 140.145 53.3066C140.364 53.2335 140.673 53.2152 140.895 53.1708C140.895 52.92 140.973 52.8286 141.031 52.6248C141.744 52.4472 142.086 52.1024 142.598 51.5355C142.588 51.5329 142.768 51.8412 142.802 51.8751C142.922 51.755 143.293 51.6975 143.348 51.5355C143.382 51.4363 143.277 51.2691 143.348 51.1254C143.541 50.7388 143.946 50.4567 144.233 50.1719L144.236 50.1693ZM146.482 50.5821C146.733 50.7074 146.548 50.7519 146.347 50.65C146.396 50.65 146.482 50.6317 146.482 50.5821ZM146.893 50.5821C146.893 50.731 146.893 50.731 146.893 50.5821V50.5821ZM132.243 51.128C132.455 51.1698 132.483 51.1646 132.653 51.3318C132.948 51.2586 133.338 51.3318 133.607 51.3318C133.735 51.6191 133.87 51.8673 134.085 52.1494C134.234 52.1494 134.521 52.3375 134.631 52.4211C134.769 52.5282 134.766 52.5987 134.766 52.7607C134.926 52.8417 135.02 52.9984 135.177 53.1003C135.218 53.129 135.276 53.0689 135.312 53.0323C135.514 53.2335 135.511 53.3772 135.723 53.1682C135.95 53.4712 136.057 53.7089 136.404 53.9858C136.475 54.0433 136.6 53.9545 136.676 53.9858C136.754 54.2183 136.676 54.5083 136.676 54.6676C136.846 54.8139 136.971 54.7825 137.154 54.8714C137.259 55.399 137.444 55.5375 137.904 55.8248C137.828 56.3473 137.799 56.8906 137.7 57.3922C137.535 57.3922 137.405 57.2563 137.29 57.2563C137.183 57.2563 137.031 57.4026 137.018 57.3922C136.757 57.1963 136.485 56.9638 136.201 56.7104C136.088 56.6111 136.143 56.3238 136.065 56.2323C135.973 56.1305 135.686 56.2088 135.519 55.9607C135.177 55.4487 135.009 54.84 134.701 54.3254C134.597 54.1504 134.398 54.1425 134.291 53.9858C134.173 53.8108 134.275 53.479 134.155 53.304C133.996 53.0741 133.656 53.1186 133.541 52.9644C133.468 52.8626 133.531 52.5726 133.405 52.4864C133.194 52.3453 133.197 52.2826 132.927 52.2826C132.724 52.011 132.444 51.7445 132.246 51.465C132.193 51.3919 132.28 51.209 132.246 51.1254L132.243 51.128ZM149.484 51.3971C149.549 51.418 149.62 51.3971 149.688 51.3971C149.533 51.627 149.484 51.7863 149.484 51.3971ZM150.78 52.3506C150.78 52.5883 150.644 52.745 150.644 52.4185C150.693 52.4185 150.751 52.3923 150.78 52.3506ZM150.369 52.7607C150.563 52.8756 150.385 52.8573 150.505 53.1003C150.96 52.873 150.746 53.0637 150.641 53.3719C150.709 53.4399 150.832 53.4817 150.845 53.5757C150.795 53.5652 150.756 53.6619 150.709 53.6436C150.633 53.6123 150.563 53.5652 150.505 53.5078C150.134 53.7559 150.437 53.8526 150.437 54.1896C150.375 54.0407 150.236 53.9257 150.166 53.7794C150.351 53.4999 150.213 53.385 150.098 53.0977C150.14 53.0559 150.359 52.8103 150.369 52.7581V52.7607ZM148.462 52.826C148.468 52.8051 148.462 53.1969 148.462 53.304C148.293 53.3902 148.039 53.6279 147.849 53.6436C147.245 53.6932 146.508 53.4817 145.942 53.5757C145.743 53.6097 145.725 53.9597 145.602 54.0537C145.688 54.1504 145.874 54.4612 145.942 54.5997C146.464 54.375 146.942 54.2914 147.441 54.1896C147.441 54.234 147.135 54.3463 147.169 54.3933C147.261 54.5318 147.488 54.3254 147.509 54.3933C147.444 54.4325 147.577 54.6258 147.577 54.665C147.331 54.665 147.232 54.6284 147.031 54.5292C146.814 54.6754 146.639 54.8113 146.417 54.9393C146.618 55.3442 146.772 55.7099 147.031 56.0991C147.06 56.1409 146.947 56.1879 146.963 56.235C146.71 56.2846 146.563 56.3708 146.281 56.3708C146.216 56.0417 146.232 55.9528 145.942 55.7569C145.973 55.6968 146.179 55.5532 146.145 55.4852C146.117 55.4278 146.017 55.4121 146.01 55.3494C145.947 55.4226 145.79 55.258 145.738 55.4173C145.613 55.7961 145.662 56.1566 145.602 56.5772C145.576 56.76 145.396 56.888 145.33 57.0552C145.338 57.0813 145.08 57.0082 145.059 56.9873C145.2 56.5667 145.278 56.2611 145.195 55.7595C145.145 55.8092 145.001 55.8065 144.923 55.7595C145.127 55.0803 145.289 54.3437 145.605 53.7141C145.662 53.5992 146.145 53.2831 146.286 53.1682C146.832 53.2779 147.31 53.2962 147.922 53.3719C148.115 53.1786 148.301 52.9749 148.468 52.826H148.462ZM151.6 53.7115C152.143 53.7115 152.258 53.9466 151.668 53.8474C151.618 53.8395 151.647 53.7298 151.6 53.7115ZM161.957 53.8474C162.119 53.8474 162.077 53.9675 161.957 53.8474V53.8474ZM152.624 53.9153C153.023 53.8787 153.253 54.0511 153.645 54.0511C153.645 54.1843 153.616 54.2941 153.713 54.3907C153.616 54.4874 153.525 54.5788 153.577 54.7303C153.648 54.9419 153.818 55.143 153.917 55.3442C154.008 55.2893 154.165 55.3546 154.256 55.2763C154.701 54.8949 155.111 54.6258 155.484 54.2549C155.902 54.3385 156.197 54.4351 156.573 54.5945C156.688 54.6441 156.861 54.5605 156.984 54.5945C157.305 54.6807 157.621 54.9523 157.937 55.0725C158.35 55.2266 158.776 55.1953 159.165 55.4121C159.429 55.561 159.609 55.9868 159.915 56.1618C160.063 56.2454 160.361 56.3003 160.528 56.3656C160.474 56.4126 160.528 56.5484 160.461 56.5693C160.267 56.6346 160.236 56.5824 160.05 56.7052C160.1 56.76 160.126 56.9768 160.186 57.0448C160.27 57.1414 160.403 57.2485 160.526 57.2485C160.667 57.4941 160.664 57.6586 160.936 57.6586C161.09 58.0452 161.367 58.1132 161.686 58.2725C161.675 58.2725 161.503 58.4554 161.482 58.4763C161.398 58.4528 161.289 58.283 161.21 58.2725C160.837 58.2203 160.322 58.2255 159.915 58.1367C159.719 57.7919 159.601 57.5489 159.301 57.2511C159.136 57.3321 158.998 57.2537 158.823 57.1832C158.614 57.2877 158.514 57.3425 158.345 57.4549C158.287 57.4914 158.193 57.4105 158.141 57.4549C157.997 57.575 157.921 57.7657 158.005 57.9329C157.843 58.0139 157.697 58.1419 157.527 58.2046C157.402 58.2516 157.365 58.121 157.255 58.1367C157.091 58.1602 156.91 58.2046 156.709 58.2046C156.55 57.9669 156.422 57.818 156.231 57.5907C156.046 57.6456 156.004 57.6821 155.821 57.5907C155.526 57.8128 155.382 57.7945 155.004 57.7945C155.241 57.3974 155.495 57.3112 155.889 57.1127C155.766 56.9089 155.583 56.7757 155.479 56.5667C155.414 56.4361 155.455 56.2402 155.275 56.1566C154.883 55.9763 154.377 55.8849 153.912 55.8849C153.687 55.5871 153.661 55.7595 153.366 55.6132C153.227 55.5453 153.36 55.4226 153.23 55.3416C153.138 55.4774 153.097 55.608 153.026 55.7517C152.979 55.7517 152.786 55.723 152.754 55.7517C152.741 55.6707 152.799 55.4774 152.754 55.4121C152.629 55.224 152.553 55.2815 152.483 55.0725C152.828 55.1874 152.773 55.0333 153.029 54.9367C152.794 54.8583 152.754 54.7329 152.483 54.8688C152.402 54.4639 152.381 54.5475 151.937 54.4586C151.837 54.4377 151.757 54.2314 151.665 54.187C151.916 54.187 151.835 54.1373 152.075 54.2549C152.188 54.1425 152.477 53.9283 152.621 53.9153H152.624ZM154.46 53.9153C154.554 53.9388 154.724 53.9832 154.8 53.9832C154.8 54.1295 154.651 54.1504 154.528 54.119C154.458 54.1008 154.51 53.9649 154.46 53.9153ZM160.594 54.187C160.654 54.2183 160.73 54.187 160.797 54.187C160.612 54.3724 160.528 54.3254 160.319 54.2549C160.455 54.2549 160.484 54.2601 160.591 54.187H160.594ZM162.294 54.2549C162.396 54.3568 162.172 54.5004 162.294 54.2549V54.2549ZM162.634 54.4586C163.075 54.6363 163.313 54.7277 163.655 55.0725C163.569 55.1587 163.423 55.2632 163.384 55.3442C163.407 55.2005 163.452 55.1039 163.452 54.9341C163.164 54.7172 162.934 54.6075 162.634 54.456V54.4586ZM149.959 54.5919C150.299 54.5919 150.299 54.7277 149.959 54.7277C149.959 54.6833 149.991 54.6232 149.959 54.5919ZM148.052 54.6598C148.115 54.6676 148.125 54.7799 148.188 54.7956C148.408 54.8505 148.635 54.7277 148.87 54.7277C148.664 54.7277 148.802 54.8243 148.802 54.9314C148.515 54.7172 148.452 54.7512 148.12 54.8635C148.131 54.874 147.825 54.6258 148.052 54.6598ZM151.255 54.7277C151.649 54.7277 151.49 54.7956 151.187 54.7956C151.211 54.7721 151.284 54.7408 151.255 54.7277ZM153.23 54.7956C152.948 54.9367 153.12 54.8635 153.366 54.8635C153.329 54.827 153.266 54.8322 153.23 54.7956ZM137.763 55.0673C137.804 55.1195 137.899 55.0673 137.966 55.0673C138.05 55.3154 138.108 55.561 138.17 55.817C137.972 55.6185 137.794 55.4278 137.624 55.2031C137.585 55.1509 137.784 55.1274 137.76 55.0673H137.763ZM162.903 55.1352C162.906 55.143 163.154 55.1352 163.175 55.1352C163.091 55.3207 162.971 55.467 162.971 55.6812C162.352 56.026 161.887 56.295 161.132 56.1592C160.983 56.1331 161.046 55.979 160.996 55.9554C161.404 55.9137 161.871 55.9581 162.292 55.8196C162.592 55.7203 162.738 55.3259 162.906 55.1378L162.903 55.1352ZM150.505 55.2737C150.913 55.2737 151.252 55.2737 151.595 55.4095C151.595 55.4487 151.639 55.7021 151.662 55.7491C151.545 55.6994 151.231 55.4774 151.117 55.4774C150.738 55.4774 150.5 55.5453 150.163 55.5453C150.223 55.4252 150.487 55.3442 150.503 55.2737H150.505ZM164.334 55.4095C164.499 55.5741 164.692 55.8536 164.948 56.0234C164.907 56.0312 164.711 56.1932 164.677 56.2271C164.35 56.0077 164.418 55.8196 164.337 55.4095H164.334ZM149.21 55.4774C149.361 55.4983 149.533 55.4774 149.688 55.4774C149.688 55.5505 149.756 55.6106 149.756 55.6812C149.505 55.8483 149.405 55.7935 149.142 55.7491C149.142 55.6759 149.123 55.595 149.074 55.5453C149.123 55.5453 149.228 55.5244 149.21 55.4774ZM138.92 55.5453C138.97 55.595 139.053 55.6132 139.124 55.6132C139.124 55.8823 139.103 55.945 138.852 55.817C138.852 55.7256 138.92 55.595 138.92 55.5453ZM165.288 56.0913C165.638 56.3238 165.549 56.4387 165.288 56.0913V56.0913ZM153.569 56.363C153.556 56.4779 153.71 56.6242 153.637 56.7731C153.562 56.9246 153.379 57.0996 153.298 57.1832C153.298 56.7966 153.431 56.679 153.569 56.3656V56.363ZM166.244 56.3656C166.424 56.4387 166.654 56.4674 166.654 56.7052C166.49 56.6242 166.341 56.5145 166.176 56.4335C166.2 56.41 166.268 56.3891 166.244 56.3656ZM152.822 56.4335C152.788 56.4988 152.686 56.7078 152.686 56.7731C152.459 56.6608 152.632 56.5746 152.822 56.4335ZM165.223 56.5014C165.4 56.6268 165.661 56.7339 165.837 56.9115C165.661 56.8541 165.408 56.6947 165.223 56.5719C165.165 56.6294 165.168 56.7757 165.087 56.7757C165.087 56.7365 165.189 56.4492 165.223 56.504V56.5014ZM167.268 56.5719C167.333 56.7052 167.474 56.9873 167.54 57.1858C167.135 57.05 167.268 56.8959 167.268 56.5719ZM166.654 57.1179C166.753 57.1571 166.884 57.1858 166.994 57.1858C166.994 57.5254 166.79 57.3634 166.516 57.2537C166.516 57.1884 166.672 57.178 166.652 57.1179H166.654ZM138.374 57.4575C138.703 57.4523 139.077 57.6926 139.26 57.9355C139.61 57.9355 139.79 57.8598 140.077 58.0034C140.247 57.9199 140.464 57.7344 140.555 57.6639C140.644 57.703 140.738 57.8441 140.827 57.8676C141.258 57.9904 141.72 57.9068 142.123 57.8676C141.914 57.9303 141.655 58.0008 141.441 58.0714C141.493 58.1419 141.417 58.3039 141.577 58.343C141.733 58.3822 142.162 58.343 142.326 58.343C142.326 58.4345 142.185 58.5729 142.258 58.6826C141.71 58.6278 140.947 58.6643 140.284 58.6147C140.061 58.5964 139.866 58.377 139.67 58.343C139.398 58.296 139.095 58.4737 138.784 58.411C138.703 58.3953 138.659 58.296 138.58 58.2751C138.478 58.2464 138.199 58.3535 138.17 58.343C138.032 58.2908 138.152 58.0557 137.966 58.0034C137.818 57.9617 137.695 58.0034 137.556 57.9355C137.815 57.5907 137.833 57.4941 138.238 57.5959C138.283 57.5515 138.311 57.4601 138.374 57.4601V57.4575ZM151.866 57.4601C151.853 57.5045 151.958 57.4601 152.002 57.4601C151.89 57.5724 151.73 57.6769 151.73 57.8702C151.333 57.8702 151.723 57.6325 151.866 57.4601ZM157.59 57.7318C157.739 57.7318 157.739 57.7318 157.59 57.7318V57.7318ZM148.799 57.7997C148.799 57.865 148.935 57.8728 148.935 57.9355C148.771 57.9773 148.651 58.0034 148.457 58.0034C148.457 57.9538 148.525 57.9172 148.525 57.8676C148.664 57.8676 148.687 57.8676 148.797 57.7997H148.799ZM151.386 58.0714C151.584 58.0714 151.386 58.2281 151.386 58.0714V58.0714ZM147.705 58.2072C147.744 58.1471 147.909 58.2072 147.909 58.2751C147.585 58.3666 147.326 58.3352 147.023 58.411C147.222 58.3456 147.514 58.249 147.705 58.2072ZM148.862 58.2072C148.87 58.1889 149.108 58.2072 149.134 58.2072C148.867 58.3666 148.666 58.5729 148.384 58.6852C148.277 58.727 148.068 58.6957 147.974 58.7532C147.909 58.795 147.838 58.9543 147.838 59.0248C147.577 59.2208 147.295 59.3357 147.021 59.5029C147.065 59.4245 146.966 59.2312 147.021 59.1633C147.274 58.8472 147.548 58.8132 147.906 58.7532C147.943 58.5703 147.838 58.6983 147.838 58.5494C148.175 58.4162 148.509 58.3143 148.86 58.2098L148.862 58.2072ZM146.746 58.2777C146.775 58.3352 146.882 58.3509 146.882 58.4136C146.524 58.5337 146.394 58.6304 146.746 58.2777ZM144.09 58.4136C144.39 58.4893 144.636 58.505 144.636 58.7532C144.586 58.7532 144.413 58.7976 144.364 58.8211C144.275 58.7323 144.246 58.5233 144.16 58.4815C144.1 58.4501 144.009 58.5233 143.956 58.4815C144.006 58.4815 144.118 58.458 144.092 58.4136H144.09ZM145.388 58.4136C145.761 58.4972 145.97 58.5572 146.341 58.4815C146.294 58.4998 146.273 58.5677 146.273 58.6173C145.801 58.7114 145.552 58.6617 145.116 58.6173C145.14 58.5938 145.388 58.411 145.388 58.4136ZM142.525 58.4815C142.864 58.5494 143 58.552 142.661 58.8916C142.593 58.8237 142.543 58.7297 142.457 58.6879C142.457 58.6147 142.548 58.552 142.525 58.4841V58.4815ZM143.275 58.552C143.447 58.5703 143.358 58.5677 143.478 58.6879C143.789 58.5834 143.815 58.6173 144.024 58.8237C143.938 58.9099 143.849 58.9308 143.753 59.0274C143.588 58.9465 143.502 58.9334 143.413 58.7558C143.306 58.9674 143.248 58.8681 143.073 58.8237C143.073 58.7218 143.282 58.5651 143.277 58.552H143.275ZM157.245 58.9621C157.415 59.4689 157.517 59.9966 157.517 60.6653C157.762 60.7254 157.718 60.8038 157.995 60.6653C157.995 60.7803 158.167 60.9161 158.266 60.937C158.211 61.2113 158.065 61.4986 158.13 61.8225C158.149 61.9192 158.316 62.0054 158.334 62.0942C158.379 62.3137 158.217 62.6506 158.266 62.8439C158.295 62.9615 158.436 63.0686 158.47 63.1835C158.541 63.1835 158.624 63.1652 158.674 63.1156C158.804 63.2462 158.998 63.4474 159.152 63.5257C159.212 63.5571 159.298 63.4892 159.356 63.5257C159.363 63.6067 159.178 63.659 159.22 63.7295C159.41 64.0482 159.434 64.1631 159.356 64.5471C159.585 64.5471 159.669 64.5471 159.901 64.5471C159.901 64.7065 159.899 64.824 159.834 64.9572C160.037 65.161 160.15 65.2812 160.38 65.4353C160.38 65.6599 160.416 65.6625 160.515 65.8454C160.544 65.8167 160.764 65.5633 160.787 65.5737C160.62 65.9917 160.429 66.4175 160.173 66.8015C160.252 67.1123 160.238 67.4624 160.105 67.755C160.022 67.9404 159.8 68.0554 159.695 68.233C159.45 68.6562 159.251 69.1995 158.945 69.5966C158.527 70.1399 157.989 70.4848 157.582 71.0281C157.3 71.4043 156.931 71.9006 156.696 72.3238C156.547 72.5928 156.503 72.8436 156.218 73.0735C156.028 73.2276 155.654 73.1388 155.469 73.2772C155.09 73.562 154.758 73.9564 154.447 74.2307C154.316 74.074 154.34 74.027 154.108 74.027C154.183 73.9512 154.076 73.8284 154.04 73.7553C153.778 73.9512 153.491 74.1758 153.222 74.3692C152.812 74.2046 152.524 74.2777 152.065 74.2333C152.057 74.1523 151.942 74.1105 151.929 74.0296C151.879 73.7344 152.065 73.515 152.065 73.2799C152.065 73.1649 151.963 72.9768 151.929 72.8697C151.806 72.8697 151.704 72.9847 151.589 72.9377C151.738 72.6399 151.866 72.6372 151.657 72.3238C151.474 72.6007 151.273 72.666 151.043 72.8697C151.143 72.7391 151.297 72.7287 151.383 72.5981C151.472 72.4648 151.448 72.2611 151.519 72.12C151.618 71.9241 151.762 71.7674 151.858 71.5741C151.89 71.5088 151.772 71.4382 151.79 71.3703C151.422 71.8614 150.915 72.3081 150.563 72.8018C150.518 72.8018 150.458 72.7705 150.427 72.8018C150.382 72.3577 150.39 72.1592 150.087 71.7804C150.145 71.723 150.247 71.655 150.223 71.5767C150.192 71.4669 150.043 71.514 150.019 71.3729C149.829 71.4356 149.776 71.3886 149.609 71.305C149.541 71.3729 149.432 71.433 149.338 71.4408C149.285 71.3363 149.131 71.1012 148.998 71.1012C148.946 71.1012 148.781 71.2292 148.726 71.2371C148.342 71.3024 147.997 71.339 147.637 71.4408C147.53 71.4722 147.465 71.6629 147.365 71.7125C147.054 71.8692 146.757 71.8301 146.412 71.9163C146.179 71.9737 145.788 72.2585 145.594 72.3943C145.351 72.5615 145.283 72.8567 145.048 73.0082C144.541 73.3373 143.896 73.0865 143.345 73.3478C142.938 73.5411 142.682 74.0243 142.256 74.1654C141.981 74.2568 141.673 74.1654 141.438 74.1654C141.279 73.9538 141.281 73.8833 141.028 73.7553C141.07 73.6978 140.984 73.5385 141.028 73.4836C141.093 73.4052 141.326 73.434 141.368 73.2799C141.467 72.9324 141.608 72.423 141.571 72.0521C141.556 71.898 141.3 71.6942 141.3 71.5061C141.3 71.3546 141.469 71.0359 141.436 70.8923C141.388 70.6859 141.182 70.4116 141.164 70.2105C141.146 70.0302 141.159 69.8787 141.232 69.7324C141.067 69.4033 140.887 69.1447 140.686 68.8469C140.84 69.0323 140.913 69.1447 141.096 69.3249C141.198 69.1212 141.075 69.0376 140.96 68.8469C141.138 68.9357 141.153 69.1003 141.3 69.0506C141.274 68.9252 141.341 68.7633 141.3 68.6405C141.213 68.3819 141.015 68.1494 141.096 67.8229C141.195 67.4232 141.42 67.0209 141.506 66.5951C141.645 66.6291 141.467 66.6552 141.574 66.8668C141.981 66.5272 142.46 65.9812 143.005 65.707C143.152 65.6338 143.405 65.7801 143.551 65.707C143.773 65.5972 143.943 65.4092 144.165 65.2968C144.249 65.255 144.421 65.37 144.437 65.3647C144.528 65.3334 144.552 65.195 144.641 65.161C144.753 65.1192 144.949 65.1506 145.051 65.0931C145.37 64.9102 145.646 64.5837 145.801 64.2755C145.9 64.2755 146.017 64.1553 146.072 64.0717C146.096 64.0377 146.023 63.7138 146.072 63.5937C146.135 63.4421 146.341 63.3298 146.412 63.1835C146.597 63.3089 146.634 63.3533 146.751 63.5937C146.793 63.4657 146.921 63.3559 147.023 63.2541C146.882 63.0451 146.861 62.7812 147.159 62.9824C147.203 62.938 147.378 62.8544 147.431 62.8465C147.431 62.8465 147.313 62.6428 147.363 62.5749C147.457 62.4417 147.629 62.4495 147.702 62.3032C147.76 62.1883 147.76 62.0812 147.838 61.9636C148.188 61.9636 148.46 61.671 148.724 61.4856C148.846 61.577 148.964 61.6214 149.134 61.6214C149.251 61.7964 149.298 62.0341 149.338 62.2353C149.473 62.1935 149.617 61.961 149.748 61.8957C150.025 62.0341 149.959 62.0289 150.226 61.8957C150.213 61.8147 150.147 61.7494 150.09 61.6919C150.173 61.3523 150.424 61.2061 150.636 60.9422C150.678 60.89 150.589 60.7855 150.636 60.7385C150.706 60.6679 150.863 60.6026 150.975 60.6026C151.158 60.3257 151.218 60.3231 151.521 60.3989C151.621 60.2996 151.871 60.1638 151.999 60.1272C151.929 59.9104 151.916 59.8555 151.66 59.8555C151.66 59.751 151.874 59.6831 151.864 59.6518C152.316 59.9025 152.791 60.2003 153.431 60.1298C153.512 60.122 153.554 60.0018 153.635 59.994C153.635 60.0802 153.757 60.1899 153.838 60.1977C153.906 60.1298 153.93 59.9522 154.042 59.9261C154.021 60.0253 154.178 60.088 154.11 60.1977C153.896 60.5556 153.906 60.6601 153.496 60.7437C153.517 60.8038 153.569 60.8795 153.632 60.8795C153.481 61.1042 153.3 61.355 153.154 61.5613C153.447 61.8225 153.585 62.136 153.972 62.0394C154.222 62.3737 154.335 62.3528 154.721 62.4495C154.721 62.6715 154.902 62.6898 155.061 62.7891C155.171 62.7447 155.429 62.7212 155.539 62.7212C155.871 62.3058 156.004 61.9923 156.221 61.5613C156.263 61.4751 156.396 61.449 156.425 61.3576C156.456 61.2557 156.304 61.1564 156.357 61.018C156.631 60.2657 156.827 59.6674 157.242 58.9726L157.245 58.9621ZM145.046 59.0405C145.114 59.1084 145.414 59.2599 145.524 59.3122C145.592 59.3017 145.32 59.5159 145.32 59.5159C145.035 59.4219 144.91 59.3801 144.638 59.3801C144.638 59.3252 144.667 59.1502 144.638 59.1084C144.792 59.1084 144.928 59.1398 145.048 59.0405H145.046ZM107.777 60.6079C107.795 60.634 107.999 60.7437 108.048 60.7437C108.32 61.2897 108.453 61.8957 108.73 62.4469C108.681 62.4599 108.662 62.5331 108.662 62.5827C108.438 62.5827 108.435 62.5148 108.252 62.5148C108.265 62.6402 108.466 62.8204 108.456 62.9249C108.448 63.0294 108.333 63.1861 108.252 63.2645C108.333 64.0821 108.161 64.7535 108.048 65.5136C107.965 66.0622 108.022 66.6735 107.981 67.1489C107.96 67.3657 107.787 67.5669 107.709 67.7628C107.508 67.802 107.278 67.815 107.027 67.8986C106.653 67.674 106.356 67.4415 106.074 67.081C105.998 66.9843 106.126 66.7179 106.074 66.603C105.917 66.266 105.669 66.2529 105.802 65.8532C105.718 65.7696 105.648 65.639 105.666 65.5136C105.687 65.37 105.825 65.4196 105.87 65.3099C105.888 65.2629 105.838 65.2106 105.802 65.1741C105.956 64.9416 106.021 64.7953 106.006 64.4923C105.998 64.3512 105.771 64.1631 105.734 64.0142C105.614 63.531 105.614 63.1626 105.666 62.6506C105.938 62.5958 106.191 62.4913 106.552 62.5827C106.601 62.5331 106.62 62.4495 106.62 62.379C107.071 62.1543 107.226 61.9506 107.301 61.4255C107.513 61.4255 107.633 61.2322 107.779 61.0859C107.63 60.7881 107.693 60.8926 107.779 60.6079H107.777ZM151.046 73.1492C151.106 73.1806 151.182 73.1492 151.25 73.1492C151.117 73.2825 150.847 73.319 150.704 73.353C150.806 73.2511 150.941 73.2511 151.043 73.1492H151.046ZM154.928 74.5128C155.118 74.8002 154.928 74.8054 154.928 74.5128V74.5128ZM153.157 74.923C153.157 75.0719 153.031 75.2965 153.157 74.923V74.923ZM154.656 75.1267C154.646 75.1763 154.745 75.2155 154.724 75.2626C154.533 75.7092 154.233 76.1115 154.042 76.5582C153.977 76.5582 153.951 76.4668 153.906 76.4224C153.724 76.6967 153.501 76.7855 153.293 76.9683C153.235 76.9109 153.167 76.8142 153.089 76.8325C153.104 76.7202 152.989 76.6418 153.021 76.5608C153.167 76.1925 153.24 76.0906 153.157 75.6753C153.219 75.6126 153.405 75.4846 153.428 75.4036C153.98 75.5865 154.113 75.4036 154.656 75.1319V75.1267Z" fill="url(#paint1_linear)"/>
<path opacity="0.2" fill-rule="evenodd" clip-rule="evenodd" d="M134.805 54.1973C114.745 65.78 91.3056 62.7393 82.4553 47.408C73.605 32.0768 81.0029 7.96574 101.188 -3.70577C121.127 -15.1343 146.249 -9.86284 155.102 5.46843C163.952 20.7997 154.867 42.6172 134.805 54.1973Z" fill="white" fill-opacity="0.34"/>
<path opacity="0.4" fill-rule="evenodd" clip-rule="evenodd" d="M126.964 84.0792C116.69 84.0792 107.27 80.4273 99.9294 74.3538L103.135 75.0826C125.506 81.1613 161.74 66.5719 168.062 36.9047L168.472 32.7852C169.078 35.643 169.399 38.6078 169.399 41.6459C169.399 65.0803 150.401 84.0792 126.966 84.0792H126.964Z" fill="white" fill-opacity="0.19"/>
<path opacity="0.4" fill-rule="evenodd" clip-rule="evenodd" d="M124.61 -6.60742C134.884 -6.60742 144.304 -2.9555 151.644 3.11797L148.439 2.38915C126.068 -3.68954 89.8332 10.8998 83.5115 40.5671L83.1014 44.6866C82.4954 41.8288 82.1741 38.8639 82.1741 35.8259C82.1741 12.3914 101.173 -6.60742 124.607 -6.60742H124.61Z" fill="white" fill-opacity="0.46"/>
<path opacity="0.2" fill-rule="evenodd" clip-rule="evenodd" d="M126.72 12.3416C116.514 12.3416 108.241 7.55331 108.241 1.64441C108.241 -4.26449 116.514 -9.05273 126.72 -9.05273C136.927 -9.05273 145.2 -4.26449 145.2 1.64441C145.2 7.55331 136.927 12.3416 126.72 12.3416Z" fill="white" fill-opacity="0.4"/>
<path opacity="0.45" fill-rule="evenodd" clip-rule="evenodd" d="M101.128 14.2384C96.9718 17.7258 91.9693 18.6009 89.9501 16.195C87.9308 13.7891 89.6627 9.01393 93.8188 5.52658C97.9749 2.03923 102.977 1.16413 104.997 3.57001C107.016 5.97589 105.284 10.7511 101.128 14.2384Z" fill="white" fill-opacity="0.4"/>
<path fill-rule="evenodd" clip-rule="evenodd" d="M125.571 84.0196C105.932 84.0196 90.0134 74.848 90.0134 63.5318C90.0134 52.2181 105.932 43.0439 125.571 43.0439C145.21 43.0439 161.129 52.2155 161.129 63.5318C161.129 74.8454 145.21 84.0196 125.571 84.0196Z" fill="white" fill-opacity="0.09"/>
</g>
<defs>
<linearGradient id="paint0_linear" x1="74.5854" y1="-12.9264" x2="175.941" y2="88.4287" gradientUnits="userSpaceOnUse">
<stop stop-color="#A1B0C5"/>
<stop offset="1" stop-color="#5A7192"/>
</linearGradient>
<linearGradient id="paint1_linear" x1="74.3243" y1="37.4895" x2="172.284" y2="37.4895" gradientUnits="userSpaceOnUse">
<stop stop-color="#5A7192"/>
<stop offset="1" stop-color="#3F4F67"/>
</linearGradient>
<clipPath id="clip0">
<rect width="182.857" height="128" fill="white" transform="translate(0.397461 -3)"/>
</clipPath>
</defs>
</svg>
