<svg width="100" height="82" viewBox="0 0 100 82" fill="none" xmlns="http://www.w3.org/2000/svg">
<path fill-rule="evenodd" clip-rule="evenodd" d="M96.7284 66.4384H79.5416C57.9771 61.5418 67.1931 24.4443 93.5634 24.4443C119.937 24.4443 141.317 33.8095 141.317 45.3603C141.317 56.9111 126.238 64.817 96.7284 66.4384Z" fill="#653B33" fill-opacity="0.76"/>
<path fill-rule="evenodd" clip-rule="evenodd" d="M50.6806 81.9999C45.1808 81.9999 39.9372 81.7405 35.1541 81.2736C20.4741 79.837 28.2957 62.874 50.6806 62.874C73.0655 62.874 91.2121 67.1545 91.2121 72.437C91.2121 77.7195 73.0655 81.9999 50.6806 81.9999Z" fill="#653B33"/>
<path fill-rule="evenodd" clip-rule="evenodd" d="M79.8498 66.503C55.6198 66.503 32.823 46.4042 32.823 22.2358C32.823 -2.06563 53.3141 -23.6074 77.6155 -23.6074C101.787 -23.6074 123.721 -1.59867 123.721 22.6314C123.721 46.8615 104.08 66.5062 79.8466 66.5062L79.8498 66.503Z" fill="url(#paint0_linear)"/>
<path fill-rule="evenodd" clip-rule="evenodd" d="M79.8498 66.5033C55.6198 66.5033 32.823 46.4045 32.823 22.2361C32.823 18.7728 33.2381 15.3614 34.0228 12.0635L95.2563 63.721C90.4634 65.5207 85.2685 66.5033 79.8466 66.5033H79.8498Z" fill="#653B34" fill-opacity="0.99"/>
<path fill-rule="evenodd" clip-rule="evenodd" d="M66.0579 -18.8824C59.6631 -20.4876 68.3635 -23.6104 77.6184 -23.6104C101.79 -23.6104 123.724 -1.60159 123.724 22.6285C123.724 24.6455 123.588 26.6301 123.325 28.5757L66.0579 -18.8791V-18.8824Z" fill="#653B34" fill-opacity="0.43"/>
<path fill-rule="evenodd" clip-rule="evenodd" d="M75.6468 63.4773C51.4914 63.4773 31.9082 43.8941 31.9082 19.7386C31.9082 -4.41684 51.4914 -24 75.6468 -24C99.8023 -24 119.385 -4.41684 119.385 19.7386C119.385 43.8941 99.8023 63.4773 75.6468 63.4773Z" fill="#C58A4B"/>
<path fill-rule="evenodd" clip-rule="evenodd" d="M35.8612 37.9371C33.3221 32.3952 31.9082 26.2339 31.9082 19.7386C31.9082 -4.41684 51.4914 -24 75.6468 -24C87.5932 -24 98.4209 -19.2104 106.314 -11.4504C110.225 -7.6045 104.414 16.7164 87.5997 29.8529C69.2099 43.5147 39.4185 45.7036 35.8612 37.9371Z" fill="white" fill-opacity="0.4"/>
<path fill-rule="evenodd" clip-rule="evenodd" d="M47.6812 -13.8953C50.7942 -16.4863 54.277 -18.6558 58.0321 -20.3096L118.14 30.1351C117.116 34.341 115.481 38.3069 113.341 41.9389L47.6812 -13.8921V-13.8953Z" fill="white" fill-opacity="0.12"/>
<path fill-rule="evenodd" clip-rule="evenodd" d="M32.8067 10.8594C35.6928 -3.13646 45.2622 -14.6905 58.0323 -20.3135L118.141 30.1312C114.765 43.9844 104.79 55.2563 91.7345 60.4221L32.8035 10.8594H32.8067Z" fill="white" fill-opacity="0.21"/>
<path fill-rule="evenodd" clip-rule="evenodd" d="M74.5964 53.1039C55.879 53.1039 40.7061 37.9309 40.7061 19.2136C40.7061 0.496215 55.879 -14.6768 74.5964 -14.6768C93.3137 -14.6768 108.487 0.496215 108.487 19.2136C108.487 37.9309 93.3137 53.1039 74.5964 53.1039Z" fill="#67401B"/>
<path fill-rule="evenodd" clip-rule="evenodd" d="M75.9093 54.1546C57.192 54.1546 42.019 38.9817 42.019 20.2643C42.019 1.547 57.192 -13.626 75.9093 -13.626C94.6267 -13.626 109.8 1.547 109.8 20.2643C109.8 38.9817 94.6267 54.1546 75.9093 54.1546Z" fill="url(#paint1_linear)"/>
<path fill-rule="evenodd" clip-rule="evenodd" d="M75.647 63.4768C66.3727 63.4768 57.7696 60.5908 50.6938 55.665L54.0599 57.0853C91.715 78.8898 140.143 34.7555 108.529 -8.50641L106.311 -11.4541C114.379 -3.51902 119.386 7.52265 119.386 19.735C119.386 43.8904 99.8025 63.4736 75.647 63.4736V63.4768Z" fill="#FFFDF0" fill-opacity="0.55"/>
<path fill-rule="evenodd" clip-rule="evenodd" d="M44.1823 32.2107C42.7814 28.4945 42.0161 24.4702 42.0161 20.2643C42.0161 1.547 57.1891 -13.626 75.9064 -13.626C86.0336 -13.626 95.1231 -9.18337 101.333 -2.14005C103.992 0.875742 94.9513 15.6693 80.7641 25.1253C66.5769 34.5845 46.569 38.5601 44.1791 32.2107H44.1823Z" fill="white" fill-opacity="0.12"/>
<path fill-rule="evenodd" clip-rule="evenodd" d="M75.8415 54.6985C68.5452 54.6985 61.7807 52.4318 56.2129 48.56L58.8622 49.6755C88.4818 66.8071 126.575 32.132 101.709 -1.85555L99.9645 -4.1709C106.311 2.06173 110.247 10.7394 110.247 20.3316C110.247 39.3116 94.8442 54.6953 75.8415 54.6953V54.6985Z" fill="#FFFDF0" fill-opacity="0.55"/>
<path fill-rule="evenodd" clip-rule="evenodd" d="M63.7296 24.3176L56.576 16.9889C54.2931 14.2682 55.48 11.1973 58.9011 10.7141L68.5127 8.91437L73.2536 0.181557C75.7117 -4.07622 79.0453 -2.18892 80.3197 0.181557L85.0152 8.73926L94.977 10.7141C98.7516 11.768 98.8813 14.8389 96.8643 17.0343L89.9313 24.4084L91.5105 34.6783C91.9061 37.4865 89.4027 39.3284 85.8486 37.8367L76.8077 33.6244L67.8123 37.7946C65.137 39.2863 62.1504 37.9275 62.5914 35.0739L63.7328 24.3208L63.7296 24.3176Z" fill="#653B34" fill-opacity="0.54"/>
<path fill-rule="evenodd" clip-rule="evenodd" d="M62.6788 22.8674L55.5252 15.5387C53.2423 12.818 54.4292 9.74709 57.8503 9.26392L67.4619 7.46417L72.2029 -1.26864C74.6609 -5.52641 77.9945 -3.63911 79.2689 -1.26864L83.9644 7.28906L93.9263 9.26392C97.7009 10.3178 97.8306 13.3887 95.8136 15.5841L88.8805 22.9582L90.4597 33.2281C90.8553 36.0363 88.3519 37.8782 84.7978 36.3865L75.757 32.1742L66.7615 36.3444C64.0862 37.8361 61.0996 36.4773 61.5406 33.6237L62.6821 22.8706L62.6788 22.8674Z" fill="url(#paint2_linear)"/>
<path fill-rule="evenodd" clip-rule="evenodd" d="M62.6788 22.8674L55.5252 15.5387C53.2423 12.818 54.4292 9.74709 57.8503 9.26392L67.4619 7.46417L72.2029 -1.26864C74.6609 -5.52641 77.9945 -3.63911 79.2689 -1.26864L83.9644 7.28906L88.3033 8.1484C90.9429 21.6805 66.5864 32.7417 62.4291 25.2411L62.6821 22.8641L62.6788 22.8674Z" fill="white" fill-opacity="0.27"/>
<path fill-rule="evenodd" clip-rule="evenodd" d="M61.5797 34.8176C61.5797 34.8176 61.6121 36.5946 63.9177 36.8573C66.2201 37.1199 75.8317 32.0839 75.8317 32.0839L75.7993 31.7207C75.7993 31.7207 66.1877 36.3611 64.4431 36.4616C62.6985 36.5589 62.0077 35.6704 61.7775 35.2099C61.5473 34.7495 61.5797 34.8143 61.5797 34.8143V34.8176Z" fill="white"/>
<path fill-rule="evenodd" clip-rule="evenodd" d="M90.0189 34.8176C90.0189 34.8176 89.9864 36.5946 87.6808 36.8573C85.3784 37.1199 75.7668 32.0839 75.7668 32.0839L75.7993 31.7207C75.7993 31.7207 85.4109 36.3611 87.1555 36.4616C88.9001 36.5589 89.5908 35.6704 89.8211 35.2099C90.0513 34.7495 90.0189 34.8143 90.0189 34.8143V34.8176Z" fill="white"/>
<path fill-rule="evenodd" clip-rule="evenodd" d="M88.3715 21.7491L87.8462 19.3786C87.8462 19.3786 92.0586 17.0082 94.429 14.6377C96.7995 12.2672 96.339 11.4111 96.339 11.4111C96.339 11.4111 97.1303 12.5947 95.6808 14.6377C94.2312 16.6774 88.3748 21.7459 88.3748 21.7459L88.3715 21.7491Z" fill="#885320" fill-opacity="0.75"/>
<path fill-rule="evenodd" clip-rule="evenodd" d="M63.2917 22.1446L63.817 19.7742C63.817 19.7742 59.6046 17.4037 57.2342 15.0332C54.8637 12.6627 55.3242 11.8066 55.3242 11.8066C55.3242 11.8066 54.5329 12.9903 55.9825 15.0332C57.432 17.0729 63.2885 22.1414 63.2885 22.1414L63.2917 22.1446Z" fill="#885320" fill-opacity="0.32"/>
<path fill-rule="evenodd" clip-rule="evenodd" d="M69.2814 19.9723C63.3373 19.9723 58.3986 15.6659 57.416 10.004L67.9453 8.12646L72.7284 -0.781465C73.124 -1.5727 74.5703 -2.93143 74.8784 -2.97683C77.424 -3.68051 81.3283 3.1196 81.3283 7.92865C81.3283 14.5796 75.9355 19.9723 69.2846 19.9723H69.2814Z" fill="white" fill-opacity="0.75"/>
<path fill-rule="evenodd" clip-rule="evenodd" d="M73.9217 0.0580142C73.9217 0.0580142 69.9071 7.00405 70.0044 7.95743C70.1017 8.91081 70.76 10.2955 72.4397 8.28495C74.019 6.40738 76.1917 1.50429 75.9614 -0.0100864C75.796 -1.09642 74.8426 -0.898607 74.4146 -0.603514C73.9866 -0.30842 73.9217 0.0547706 73.9217 0.0547706V0.0580142Z" fill="white" fill-opacity="0.77"/>
<path fill-rule="evenodd" clip-rule="evenodd" d="M68.2274 10.4577C68.2274 10.4577 68.0296 9.5692 65.9575 9.76701C63.8853 9.96482 62.238 10.4901 62.1051 11.249C61.9721 12.0045 62.8606 12.4682 65.4938 11.8748C68.1269 11.2814 68.2242 10.461 68.2242 10.461L68.2274 10.4577Z" fill="white" fill-opacity="0.77"/>
<path fill-rule="evenodd" clip-rule="evenodd" d="M62.0401 33.2031C62.0401 33.2031 62.8314 34.9477 65.5294 34.4224C68.2274 33.8971 76.0295 29.2891 76.0295 29.2891V31.4942L66.6157 35.807C66.6157 35.807 64.0798 36.7604 62.8638 35.7746C61.6445 34.7888 61.9429 34.163 61.9429 34.163L62.0401 33.2096V33.2031Z" fill="#885320" fill-opacity="0.44"/>
<path fill-rule="evenodd" clip-rule="evenodd" d="M89.9835 33.2031C89.9835 33.2031 89.1923 34.9477 86.4943 34.4224C83.7963 33.8971 75.9941 29.2891 75.9941 29.2891V31.4942L85.4079 35.807C85.4079 35.807 87.9438 36.7604 89.1598 35.7746C90.3791 34.7888 90.0808 34.163 90.0808 34.163L89.9835 33.2096V33.2031Z" fill="#885320" fill-opacity="0.44"/>
<path fill-rule="evenodd" clip-rule="evenodd" d="M50.548 81.8416C45.0515 81.8416 39.8112 80.9206 35.0313 79.2538C20.361 74.1367 28.1761 13.7432 50.548 13.7432C72.92 13.7432 91.0536 28.9875 91.0536 47.7924C91.0536 66.5973 72.92 81.8416 50.548 81.8416Z" fill="#653B33"/>
<path fill-rule="evenodd" clip-rule="evenodd" d="M38.6989 81.3905C19.547 81.3905 1.52686 65.5041 1.52686 46.4009C1.52686 27.1939 17.7245 10.166 36.9315 10.166C56.0348 10.166 73.3739 27.5603 73.3739 46.7122C73.3739 65.864 57.8475 81.3905 38.6956 81.3905H38.6989Z" fill="url(#paint3_linear)"/>
<path fill-rule="evenodd" clip-rule="evenodd" d="M38.6988 81.3908C19.547 81.3908 1.52686 65.5044 1.52686 46.4012C1.52686 43.661 1.85762 40.9695 2.47699 38.3623L50.8787 79.1922C47.0879 80.6125 42.9858 81.3908 38.6988 81.3908Z" fill="#383838" fill-opacity="0.48"/>
<path fill-rule="evenodd" clip-rule="evenodd" d="M27.7965 13.902C22.7442 12.6341 29.6189 10.1631 36.9346 10.1631C56.0379 10.1631 73.377 27.5574 73.377 46.7092C73.377 48.3047 73.27 49.8709 73.0625 51.408L27.7965 13.8988V13.902Z" fill="#383838" fill-opacity="0.43"/>
<path fill-rule="evenodd" clip-rule="evenodd" d="M35.375 79.0003C16.2815 79.0003 0.803711 63.5225 0.803711 44.4258C0.803711 25.3323 16.2815 9.85449 35.375 9.85449C54.4685 9.85449 69.9463 25.3323 69.9463 44.4258C69.9463 63.5193 54.4685 79.0003 35.375 79.0003Z" fill="url(#paint4_linear)"/>
<path fill-rule="evenodd" clip-rule="evenodd" d="M3.92634 58.8108C1.91906 54.4298 0.800293 49.5591 0.800293 44.4258C0.800293 25.3323 16.2781 9.85449 35.3716 9.85449C44.8146 9.85449 53.3723 13.6388 59.6114 19.7742C62.7017 22.8126 58.11 42.0391 44.821 52.4225C30.2837 63.2209 6.73783 64.9526 3.92634 58.8108Z" fill="white" fill-opacity="0.4"/>
<path fill-rule="evenodd" clip-rule="evenodd" d="M13.2722 17.8422C15.7335 15.7928 18.4866 14.0806 21.4537 12.7705L68.967 52.6405C68.1563 55.9644 66.8657 59.1001 65.1729 61.97L13.2722 17.839V17.8422Z" fill="white" fill-opacity="0.12"/>
<path fill-rule="evenodd" clip-rule="evenodd" d="M1.51367 37.4121C3.79335 26.351 11.3588 17.2193 21.4535 12.7734L68.9668 52.6434C66.298 63.5943 58.4147 72.5022 48.093 76.5849L1.51367 37.4088V37.4121Z" fill="white" fill-opacity="0.21"/>
<path fill-rule="evenodd" clip-rule="evenodd" d="M34.5447 70.7999C19.7511 70.7999 7.7561 58.8081 7.7561 44.0113C7.7561 29.2177 19.7479 17.2227 34.5447 17.2227C49.3383 17.2227 61.3333 29.2145 61.3333 44.0113C61.3333 58.8048 49.3415 70.7999 34.5447 70.7999Z" fill="#4F4F4F"/>
<path fill-rule="evenodd" clip-rule="evenodd" d="M35.5823 71.63C20.7888 71.63 8.7937 59.6382 8.7937 44.8414C8.7937 30.0478 20.7855 18.0527 35.5823 18.0527C50.3759 18.0527 62.3709 30.0445 62.3709 44.8414C62.3709 59.6349 50.3791 71.63 35.5823 71.63Z" fill="url(#paint5_linear)"/>
<path fill-rule="evenodd" clip-rule="evenodd" d="M35.3749 79.0006C28.043 79.0006 21.2461 76.7177 15.6523 72.8263L18.3147 73.9483C48.0802 91.1837 86.3579 56.2979 61.3691 22.1027L59.618 19.7744C65.9965 26.046 69.9527 34.7755 69.9527 44.426C69.9527 63.5195 54.4749 78.9973 35.3814 78.9973L35.3749 79.0006Z" fill="#FFFDF0" fill-opacity="0.55"/>
<path fill-rule="evenodd" clip-rule="evenodd" d="M10.5059 54.2843C9.4001 51.3464 8.7937 48.1652 8.7937 44.8414C8.7937 30.0478 20.7855 18.0527 35.5823 18.0527C43.5887 18.0527 50.7715 21.5647 55.6811 27.1293C57.7824 29.5127 50.6386 41.2062 39.425 48.6808C28.2115 56.1554 12.3964 59.3009 10.5059 54.2811V54.2843Z" fill="white" fill-opacity="0.12"/>
<path fill-rule="evenodd" clip-rule="evenodd" d="M35.5306 72.0609C29.7649 72.0609 24.4175 70.2677 20.0171 67.2097L22.1119 68.0918C45.5248 81.6336 75.634 54.2256 55.9763 27.3592L54.5981 25.5303C59.6147 30.4593 62.7278 37.3145 62.7278 44.8994C62.7278 59.9005 50.5511 72.0609 35.5338 72.0609H35.5306Z" fill="#FFFDF0" fill-opacity="0.55"/>
<path fill-rule="evenodd" clip-rule="evenodd" d="M25.9546 48.0478L20.2992 42.2562C18.4962 40.1063 19.4334 37.6774 22.1378 37.2948L29.7357 35.8712L33.4811 28.9673C35.4235 25.6013 38.0599 27.093 39.0652 28.9673L42.7781 35.7318L50.6516 37.2915C53.635 38.1249 53.7387 40.5505 52.1433 42.2854L46.663 48.1127L47.9115 56.2294C48.2228 58.4507 46.2479 59.9067 43.4364 58.7263L36.2926 55.396L29.1812 58.6907C27.0669 59.871 24.7061 58.7944 25.0531 56.5407L25.9546 48.0414V48.0478Z" fill="#4F4F4F" fill-opacity="0.81"/>
<path fill-rule="evenodd" clip-rule="evenodd" d="M25.1245 46.9033L19.4691 41.1117C17.6661 38.9617 18.6033 36.5329 21.3078 36.1503L28.9056 34.7267L32.651 27.8228C34.5934 24.4568 37.2298 25.9485 38.2351 27.8228L41.9481 34.5872L49.8215 36.147C52.8049 36.9804 52.9087 39.406 51.3132 41.1409L45.8329 46.9682L47.0814 55.0849C47.3927 57.3062 45.4178 58.7622 42.6064 57.5818L35.4625 54.2515L28.3511 57.5461C26.2368 58.7265 23.876 57.6499 24.223 55.3962L25.1245 46.8968V46.9033Z" fill="url(#paint6_linear)"/>
<path fill-rule="evenodd" clip-rule="evenodd" d="M25.1245 46.9033L19.4691 41.1117C17.6661 38.9617 18.6033 36.5329 21.3078 36.1503L28.9056 34.7267L32.651 27.8228C34.5934 24.4568 37.2298 25.9485 38.2351 27.8228L41.9481 34.5872L45.3789 35.2682C47.464 45.9662 28.2116 54.7054 24.9267 48.7809L25.1245 46.9033Z" fill="white" fill-opacity="0.27"/>
<path fill-rule="evenodd" clip-rule="evenodd" d="M24.2584 56.3464C24.2584 56.3464 24.2843 57.7506 26.1068 57.9581C27.9292 58.1656 35.5238 54.1867 35.5238 54.1867L35.4978 53.9014C35.4978 53.9014 27.9 57.569 26.5218 57.6468C25.1436 57.7246 24.5956 57.0209 24.414 56.6577C24.2324 56.2945 24.2584 56.3464 24.2584 56.3464Z" fill="white"/>
<path fill-rule="evenodd" clip-rule="evenodd" d="M46.7347 56.3464C46.7347 56.3464 46.7087 57.7506 44.8863 57.9581C43.0638 58.1656 35.4692 54.1867 35.4692 54.1867L35.4952 53.9014C35.4952 53.9014 43.093 57.569 44.4712 57.6468C45.8494 57.7246 46.3974 57.0209 46.579 56.6577C46.7606 56.2945 46.7347 56.3464 46.7347 56.3464Z" fill="white"/>
<path fill-rule="evenodd" clip-rule="evenodd" d="M45.4339 46.0182L45.0188 44.1438C45.0188 44.1438 48.3491 42.2695 50.2202 40.3984C52.0945 38.5241 51.7281 37.8496 51.7281 37.8496C51.7281 37.8496 52.354 38.7868 51.2093 40.3984C50.0646 42.0101 45.4339 46.0182 45.4339 46.0182Z" fill="#5D5D5D" fill-opacity="0.75"/>
<path fill-rule="evenodd" clip-rule="evenodd" d="M25.6107 46.3297L26.0258 44.4554C26.0258 44.4554 22.6955 42.581 20.8244 40.71C18.9501 38.8356 19.3165 38.1611 19.3165 38.1611C19.3165 38.1611 18.6906 39.0983 19.8353 40.71C20.98 42.3216 25.6107 46.3297 25.6107 46.3297Z" fill="#5D5D5D" fill-opacity="0.32"/>
<path fill-rule="evenodd" clip-rule="evenodd" d="M30.3454 44.6105C25.6466 44.6105 21.7423 41.2056 20.9673 36.7305L29.2883 35.2453L33.0693 28.2053C33.3807 27.5794 34.5254 26.506 34.7686 26.4704C36.7791 25.9159 39.8662 31.2891 39.8662 35.0897C39.8662 40.3462 35.6052 44.6105 30.3454 44.6105Z" fill="white" fill-opacity="0.75"/>
<path fill-rule="evenodd" clip-rule="evenodd" d="M34.0094 28.8733C34.0094 28.8733 30.8347 34.3634 30.9125 35.1157C30.9904 35.8712 31.5125 36.9641 32.8388 35.3751C34.0872 33.8932 35.8059 30.0148 35.6211 28.8182C35.4913 27.9589 34.7358 28.1145 34.3985 28.3512C34.0613 28.5847 34.0094 28.8701 34.0094 28.8701V28.8733Z" fill="white" fill-opacity="0.77"/>
<path fill-rule="evenodd" clip-rule="evenodd" d="M29.5117 37.0935C29.5117 37.0935 29.3561 36.3899 27.7152 36.5488C26.0776 36.7044 24.774 37.1195 24.6703 37.7194C24.5665 38.3193 25.2702 38.6825 27.3488 38.2123C29.4307 37.7453 29.5085 37.0935 29.5085 37.0935H29.5117Z" fill="white" fill-opacity="0.77"/>
<path fill-rule="evenodd" clip-rule="evenodd" d="M24.6218 55.0721C24.6218 55.0721 25.2477 56.4503 27.3782 56.0352C29.5119 55.6202 35.6765 51.9785 35.6765 51.9785V53.7231L28.2375 57.1313C28.2375 57.1313 26.2335 57.8869 25.2704 57.1054C24.3073 56.3238 24.5408 55.8309 24.5408 55.8309L24.6186 55.0754L24.6218 55.0721Z" fill="#5D5D5D" fill-opacity="0.72"/>
<path fill-rule="evenodd" clip-rule="evenodd" d="M46.7084 55.0721C46.7084 55.0721 46.0826 56.4503 43.9521 56.0352C41.8183 55.6202 35.6538 51.9785 35.6538 51.9785V53.7231L43.0927 57.1313C43.0927 57.1313 45.0968 57.8869 46.0599 57.1054C47.023 56.3238 46.7895 55.8309 46.7895 55.8309L46.7117 55.0754L46.7084 55.0721Z" fill="#5D5D5D" fill-opacity="0.72"/>
<defs>
<linearGradient id="paint0_linear" x1="31.2243" y1="-25.9811" x2="124.941" y2="68.3838" gradientUnits="userSpaceOnUse">
<stop stop-color="#BA7542"/>
<stop offset="1" stop-color="#885320"/>
</linearGradient>
<linearGradient id="paint1_linear" x1="39.9793" y1="-15.6041" x2="111.321" y2="55.7371" gradientUnits="userSpaceOnUse">
<stop stop-color="#BA7542"/>
<stop offset="1" stop-color="#885320"/>
</linearGradient>
<linearGradient id="paint2_linear" x1="75.3257" y1="-7.49802" x2="75.3257" y2="39.5223" gradientUnits="userSpaceOnUse">
<stop stop-color="#D7AE83"/>
<stop offset="1" stop-color="#D58F4A"/>
</linearGradient>
<linearGradient id="paint3_linear" x1="-0.230733" y1="7.74366" x2="74.6775" y2="83.3005" gradientUnits="userSpaceOnUse">
<stop stop-color="#9A9A9A"/>
<stop offset="1" stop-color="#797979"/>
</linearGradient>
<linearGradient id="paint4_linear" x1="35.1156" y1="8.06772" x2="35.1156" y2="80.706" gradientUnits="userSpaceOnUse">
<stop stop-color="#BBBBBB"/>
<stop offset="1" stop-color="#7F7F7F"/>
</linearGradient>
<linearGradient id="paint5_linear" x1="6.90316" y1="16.1752" x2="63.9761" y2="73.2481" gradientUnits="userSpaceOnUse">
<stop stop-color="#A4A4A4"/>
<stop offset="1" stop-color="#4D4D4D"/>
</linearGradient>
<linearGradient id="paint6_linear" x1="35.1155" y1="22.6603" x2="35.1155" y2="60.2765" gradientUnits="userSpaceOnUse">
<stop stop-color="#BFBFBF"/>
<stop offset="1" stop-color="#959595"/>
</linearGradient>
</defs>
</svg>
