<svg width="24" height="24" viewBox="0 0 24 24" fill="none" xmlns="http://www.w3.org/2000/svg">
<path d="M12 0C5.4 0 0 5.4 0 12C0 18.6 5.4 24 12 24C18.6 24 24 18.6 24 12C24 5.4 18.6 0 12 0ZM7.59857 15C6.99728 15.0195 6.40402 14.8577 5.89584 14.5357C5.38767 14.2137 4.98804 13.7463 4.74886 13.1943C4.50967 12.6423 4.44198 12.0311 4.55458 11.4401C4.66717 10.8491 4.95485 10.3057 5.38025 9.88025C5.80565 9.45485 6.34913 9.16717 6.94011 9.05458C7.53108 8.94198 8.14227 9.00967 8.69428 9.24886C9.2463 9.48804 9.71366 9.88767 10.0357 10.3958C10.3577 10.904 10.5195 11.4973 10.5 12.0986C10.4754 12.8603 10.1618 13.584 9.62289 14.1229C9.08401 14.6618 8.36026 14.9754 7.59857 15ZM16.5986 15C15.9973 15.0195 15.404 14.8577 14.8958 14.5357C14.3877 14.2137 13.988 13.7463 13.7489 13.1943C13.5097 12.6423 13.442 12.0311 13.5546 11.4401C13.6672 10.8491 13.9548 10.3057 14.3802 9.88025C14.8057 9.45485 15.3491 9.16717 15.9401 9.05458C16.5311 8.94198 17.1423 9.00967 17.6943 9.24886C18.2463 9.48804 18.7137 9.88767 19.0357 10.3958C19.3577 10.904 19.5195 11.4973 19.5 12.0986C19.4754 12.8603 19.1618 13.584 18.6229 14.1229C18.084 14.6618 17.3603 14.9754 16.5986 15Z" fill="black"/>
</svg>
