<svg width="16" height="16" viewBox="0 0 16 16" fill="none" xmlns="http://www.w3.org/2000/svg">
<path fill-rule="evenodd" clip-rule="evenodd" d="M9.33334 1.99967C9.33334 1.63148 9.63182 1.33301 10 1.33301H14C14.3682 1.33301 14.6667 1.63148 14.6667 1.99967C14.6667 2.36786 14.3682 2.66634 14 2.66634H10C9.63182 2.66634 9.33334 2.36786 9.33334 1.99967Z" fill="white"/>
<path fill-rule="evenodd" clip-rule="evenodd" d="M14 1.33301C14.3682 1.33301 14.6667 1.63148 14.6667 1.99967V5.99967C14.6667 6.36786 14.3682 6.66634 14 6.66634C13.6318 6.66634 13.3333 6.36786 13.3333 5.99967V1.99967C13.3333 1.63148 13.6318 1.33301 14 1.33301Z" fill="white"/>
<path fill-rule="evenodd" clip-rule="evenodd" d="M13.8047 2.19526C14.0651 2.45561 14.0651 2.87772 13.8047 3.13807L9.13807 7.80474C8.87772 8.06509 8.45561 8.06509 8.19526 7.80474C7.93491 7.54439 7.93491 7.12228 8.19526 6.86193L12.8619 2.19526C13.1223 1.93491 13.5444 1.93491 13.8047 2.19526Z" fill="white"/>
<path fill-rule="evenodd" clip-rule="evenodd" d="M2.66667 3.33268C2.66667 2.96449 2.96515 2.66602 3.33334 2.66602H7.33334C7.70153 2.66602 8 2.96449 8 3.33268C8 3.70087 7.70153 3.99935 7.33334 3.99935H4.00001V11.9993H12V8.66602C12 8.29783 12.2985 7.99935 12.6667 7.99935C13.0349 7.99935 13.3333 8.29783 13.3333 8.66602V12.666C13.3333 13.0342 13.0349 13.3327 12.6667 13.3327H3.33334C2.96515 13.3327 2.66667 13.0342 2.66667 12.666V3.33268Z" fill="white"/>
</svg>
